<?xml version="1.0" encoding="UTF-8"?>
<!DOCTYPE svg PUBLIC "-//W3C//DTD SVG 1.1//EN" "http://www.w3.org/Graphics/SVG/1.1/DTD/svg11.dtd">
<svg xmlns="http://www.w3.org/2000/svg" version="1.1" width="148px" height="147px" style="shape-rendering:geometricPrecision; text-rendering:geometricPrecision; image-rendering:optimizeQuality; fill-rule:evenodd; clip-rule:evenodd" xmlns:xlink="http://www.w3.org/1999/xlink">
<g><path style="opacity:0.969" fill="#009200" d="M 61.5,-0.5 C 69.5,-0.5 77.5,-0.5 85.5,-0.5C 118.73,7.06352 139.397,27.3969 147.5,60.5C 147.5,68.8333 147.5,77.1667 147.5,85.5C 139.397,118.603 118.73,138.936 85.5,146.5C 77.5,146.5 69.5,146.5 61.5,146.5C 28.2698,138.936 7.60315,118.603 -0.5,85.5C -0.5,77.1667 -0.5,68.8333 -0.5,60.5C 7.60315,27.3969 28.2698,7.06352 61.5,-0.5 Z"/></g>
<g><path style="opacity:1" fill="#000000" d="M 23.5,22.5 C 56.8333,22.5 90.1667,22.5 123.5,22.5C 123.5,56.1667 123.5,89.8333 123.5,123.5C 90.1667,123.5 56.8333,123.5 23.5,123.5C 23.5,89.8333 23.5,56.1667 23.5,22.5 Z"/></g>
<g><path style="opacity:1" fill="#fefffe" d="M 37.5,36.5 C 61.8333,36.5 86.1667,36.5 110.5,36.5C 110.5,60.8333 110.5,85.1667 110.5,109.5C 86.1667,109.5 61.8333,109.5 37.5,109.5C 37.5,85.1667 37.5,60.8333 37.5,36.5 Z"/></g>
<g><path style="opacity:1" fill="#000000" d="M 76.5,83.5 C 72.1667,83.5 67.8333,83.5 63.5,83.5C 63.5,87.8333 63.5,92.1667 63.5,96.5C 59.5,96.5 55.5,96.5 51.5,96.5C 51.5,80.5 51.5,64.5 51.5,48.5C 67.1667,48.5 82.8333,48.5 98.5,48.5C 98.5,52.8333 98.5,57.1667 98.5,61.5C 86.8333,61.5 75.1667,61.5 63.5,61.5C 63.5,64.5 63.5,67.5 63.5,70.5C 67.8333,70.5 72.1667,70.5 76.5,70.5C 76.5,74.8333 76.5,79.1667 76.5,83.5 Z"/></g>
<g><path style="opacity:1" fill="#000000" d="M 76.5,83.5 C 79.8333,83.5 83.1667,83.5 86.5,83.5C 86.5,79.8333 86.5,76.1667 86.5,72.5C 90.8333,72.5 95.1667,72.5 99.5,72.5C 99.5,80.1667 99.5,87.8333 99.5,95.5C 91.8333,95.5 84.1667,95.5 76.5,95.5C 76.5,91.5 76.5,87.5 76.5,83.5 Z"/></g>
</svg>
