<?xml version="1.0" encoding="UTF-8"?>
<!DOCTYPE svg PUBLIC "-//W3C//DTD SVG 1.1//EN" "http://www.w3.org/Graphics/SVG/1.1/DTD/svg11.dtd">
<svg xmlns="http://www.w3.org/2000/svg" version="1.1" width="148px" height="147px" style="shape-rendering:geometricPrecision; text-rendering:geometricPrecision; image-rendering:optimizeQuality; fill-rule:evenodd; clip-rule:evenodd" xmlns:xlink="http://www.w3.org/1999/xlink">
<g><path style="opacity:0.967" fill="#029101" d="M 61.5,-0.5 C 69.5,-0.5 77.5,-0.5 85.5,-0.5C 118.73,7.06352 139.397,27.3969 147.5,60.5C 147.5,68.8333 147.5,77.1667 147.5,85.5C 139.397,118.603 118.73,138.936 85.5,146.5C 77.5,146.5 69.5,146.5 61.5,146.5C 28.2698,138.936 7.60315,118.603 -0.5,85.5C -0.5,77.1667 -0.5,68.8333 -0.5,60.5C 7.60315,27.3969 28.2698,7.06352 61.5,-0.5 Z"/></g>
<g><path style="opacity:1" fill="#fefefe" d="M 109.5,37.5 C 109.5,38.8333 109.5,40.1667 109.5,41.5C 109.334,50.8393 109.5,60.1726 110,69.5C 113.745,70.297 117.579,70.797 121.5,71C 120.944,71.3826 120.611,71.8826 120.5,72.5C 118.089,72.1367 116.589,73.1367 116,75.5C 112.287,89.2297 112.787,102.73 117.5,116C 118.448,116.483 119.448,116.649 120.5,116.5C 120.414,117.496 120.748,118.329 121.5,119C 117.514,119.499 113.514,119.666 109.5,119.5C 110.658,124.901 108.991,129.067 104.5,132C 83.5,132.667 62.5,132.667 41.5,132C 38.0723,128.864 36.0723,125.03 35.5,120.5C 32.1667,119.833 28.8333,119.167 25.5,118.5C 25.5,118.167 25.5,117.833 25.5,117.5C 27.3904,117.703 28.8904,117.037 30,115.5C 33.2165,102.216 33.2165,88.8823 30,75.5C 28.8904,73.9632 27.3904,73.2965 25.5,73.5C 28.3902,71.77 31.7236,70.77 35.5,70.5C 36.4984,60.8563 36.8318,51.1896 36.5,41.5C 36.5,40.1667 36.5,38.8333 36.5,37.5C 36.3337,30.825 36.5004,24.1583 37,17.5C 37.3917,14.545 38.8917,12.3783 41.5,11C 62.5,10.3333 83.5,10.3333 104.5,11C 106.333,12.1667 107.833,13.6667 109,15.5C 109.5,22.8258 109.666,30.1591 109.5,37.5 Z"/></g>
<g><path style="opacity:1" fill="#474747" d="M 70.5,19.5 C 77.8211,20.3193 79.1545,23.486 74.5,29C 67.075,28.4845 65.7416,25.3178 70.5,19.5 Z"/></g>
<g><path style="opacity:1" fill="#424242" d="M 67.5,31.5 C 70.8333,31.5 74.1667,31.5 77.5,31.5C 77.5,34.1667 77.5,36.8333 77.5,39.5C 73.8333,39.5 70.1667,39.5 66.5,39.5C 66.2786,36.7212 66.612,34.0545 67.5,31.5 Z"/></g>
<g><path style="opacity:1" fill="#414541" d="M 109.5,37.5 C 113.5,38.8333 113.5,40.1667 109.5,41.5C 109.5,40.1667 109.5,38.8333 109.5,37.5 Z"/></g>
<g><path style="opacity:1" fill="#394b37" d="M 36.5,37.5 C 36.5,38.8333 36.5,40.1667 36.5,41.5C 35.5,41.5 34.5,41.5 33.5,41.5C 33.0882,39.0274 34.0882,37.6941 36.5,37.5 Z"/></g>
<g><path style="opacity:1" fill="#444444" d="M 68.5,45.5 C 71.5,45.5 74.5,45.5 77.5,45.5C 77.5,47.8333 77.5,50.1667 77.5,52.5C 74.5,52.5 71.5,52.5 68.5,52.5C 68.5,50.1667 68.5,47.8333 68.5,45.5 Z"/></g>
<g><path style="opacity:1" fill="#444444" d="M 84.5,45.5 C 87.5,45.5 90.5,45.5 93.5,45.5C 93.5,47.8333 93.5,50.1667 93.5,52.5C 90.5,52.5 87.5,52.5 84.5,52.5C 84.5,50.1667 84.5,47.8333 84.5,45.5 Z"/></g>
<g><path style="opacity:1" fill="#444444" d="M 51.5,46.5 C 54.5,46.5 57.5,46.5 60.5,46.5C 60.5,48.8333 60.5,51.1667 60.5,53.5C 57.5,53.5 54.5,53.5 51.5,53.5C 51.5,51.1667 51.5,48.8333 51.5,46.5 Z"/></g>
<g><path style="opacity:1" fill="#424242" d="M 120.5,72.5 C 122.448,73.1312 124.281,74.1312 126,75.5C 127.5,88.8459 127.333,102.179 125.5,115.5C 123.784,115.629 122.117,115.962 120.5,116.5C 119.448,116.649 118.448,116.483 117.5,116C 112.787,102.73 112.287,89.2297 116,75.5C 116.589,73.1367 118.089,72.1367 120.5,72.5 Z"/></g>
<g><path style="opacity:1" fill="#424342" d="M 25.5,73.5 C 27.3904,73.2965 28.8904,73.9632 30,75.5C 33.2165,88.8823 33.2165,102.216 30,115.5C 28.8904,117.037 27.3904,117.703 25.5,117.5C 22.6118,117.78 21.1118,116.447 21,113.5C 20.5391,105.331 20.0391,97.1642 19.5,89C 19.5591,84.7776 20.0591,80.6109 21,76.5C 22.2708,75.1175 23.7708,74.1175 25.5,73.5 Z"/></g>
<g><path style="opacity:1" fill="#6fc06e" d="M 25.5,118.5 C 28.8333,119.167 32.1667,119.833 35.5,120.5C 31.774,120.823 28.1073,120.489 24.5,119.5C 24.6236,118.893 24.9569,118.56 25.5,118.5 Z"/></g>
</svg>
