<?xml version="1.0" encoding="UTF-8"?>
<!DOCTYPE svg PUBLIC "-//W3C//DTD SVG 1.1//EN" "http://www.w3.org/Graphics/SVG/1.1/DTD/svg11.dtd">
<svg xmlns="http://www.w3.org/2000/svg" version="1.1" width="147px" height="148px" style="shape-rendering:geometricPrecision; text-rendering:geometricPrecision; image-rendering:optimizeQuality; fill-rule:evenodd; clip-rule:evenodd" xmlns:xlink="http://www.w3.org/1999/xlink">
<g><path style="opacity:0.983" fill="#039201" d="M 61.5,-0.5 C 69.1667,-0.5 76.8333,-0.5 84.5,-0.5C 118.154,7.1539 138.821,27.8206 146.5,61.5C 146.5,69.5 146.5,77.5 146.5,85.5C 138.821,119.179 118.154,139.846 84.5,147.5C 76.8333,147.5 69.1667,147.5 61.5,147.5C 27.8461,139.846 7.17944,119.179 -0.5,85.5C -0.5,77.5 -0.5,69.5 -0.5,61.5C 7.17944,27.8206 27.8461,7.1539 61.5,-0.5 Z"/></g>
<g><path style="opacity:1" fill="#fd0802" d="M 65.5,47.5 C 66.1596,52.3473 64.4929,56.1806 60.5,59C 49.6829,64.6379 39.8496,63.4713 31,55.5C 29.9207,52.9373 29.4207,50.2706 29.5,47.5C 31.3067,38.381 36.9734,34.0477 46.5,34.5C 54.0972,34.0527 60.2638,36.7194 65,42.5C 65.4935,44.1341 65.6602,45.8008 65.5,47.5 Z"/></g>
<g><path style="opacity:1" fill="#0571bf" d="M 118.5,47.5 C 118.864,52.2474 117.198,56.0807 113.5,59C 105.627,63.1413 97.6275,63.4746 89.5,60C 85.1073,56.9914 83.1073,52.8247 83.5,47.5C 83.4411,43.452 85.1078,40.2854 88.5,38C 98.8887,32.5239 108.389,33.6906 117,41.5C 118.128,43.3453 118.628,45.3453 118.5,47.5 Z"/></g>
<g><path style="opacity:1" fill="#f8f7f2" d="M 29.5,47.5 C 29.4207,50.2706 29.9207,52.9373 31,55.5C 39.8496,63.4713 49.6829,64.6379 60.5,59C 64.4929,56.1806 66.1596,52.3473 65.5,47.5C 68.9273,50.3744 70.0939,54.0411 69,58.5C 59.2659,68.7231 47.7659,71.2231 34.5,66C 28.6496,63.1952 25.8163,58.6952 26,52.5C 27.0298,50.6536 28.1964,48.9869 29.5,47.5 Z"/></g>
<g><path style="opacity:1" fill="#f1f8f4" d="M 83.5,47.5 C 83.1073,52.8247 85.1073,56.9914 89.5,60C 97.6275,63.4746 105.627,63.1413 113.5,59C 117.198,56.0807 118.864,52.2474 118.5,47.5C 123.622,52.2361 123.789,57.2361 119,62.5C 106.974,70.3831 94.974,70.3831 83,62.5C 78.2114,57.2361 78.3781,52.2361 83.5,47.5 Z"/></g>
<g><path style="opacity:1" fill="#07b051" d="M 66.5,93.5 C 63.931,103.49 57.2644,108.156 46.5,107.5C 36.6146,107.596 30.6146,102.929 28.5,93.5C 30.6528,84.0713 36.6528,79.4046 46.5,79.5C 57.1655,78.8073 63.8322,83.474 66.5,93.5 Z"/></g>
<g><path style="opacity:1" fill="#fec005" d="M 118.5,92.5 C 119.16,97.3473 117.493,101.181 113.5,104C 104.668,108.794 96.0013,108.628 87.5,103.5C 84.2029,100.568 82.8696,96.9015 83.5,92.5C 83.4411,88.452 85.1078,85.2854 88.5,83C 98.8728,77.5528 108.373,78.7195 117,86.5C 118.128,88.3453 118.628,90.3453 118.5,92.5 Z"/></g>
<g><path style="opacity:1" fill="#f3faf4" d="M 28.5,93.5 C 30.6146,102.929 36.6146,107.596 46.5,107.5C 57.2644,108.156 63.931,103.49 66.5,93.5C 69.1428,96.3396 69.9761,99.673 69,103.5C 59.2659,113.723 47.7659,116.223 34.5,111C 30.2024,108.546 27.2024,105.046 25.5,100.5C 25.6946,97.7819 26.6946,95.4486 28.5,93.5 Z"/></g>
<g><path style="opacity:1" fill="#f6faf2" d="M 83.5,92.5 C 82.8696,96.9015 84.2029,100.568 87.5,103.5C 96.0013,108.628 104.668,108.794 113.5,104C 117.493,101.181 119.16,97.3473 118.5,92.5C 123.622,97.2361 123.789,102.236 119,107.5C 106.974,115.383 94.974,115.383 83,107.5C 78.2114,102.236 78.3781,97.2361 83.5,92.5 Z"/></g>
</svg>
