<?xml version="1.0" encoding="UTF-8"?>
<!DOCTYPE svg PUBLIC "-//W3C//DTD SVG 1.1//EN" "http://www.w3.org/Graphics/SVG/1.1/DTD/svg11.dtd">
<svg xmlns="http://www.w3.org/2000/svg" version="1.1" width="147px" height="148px" style="shape-rendering:geometricPrecision; text-rendering:geometricPrecision; image-rendering:optimizeQuality; fill-rule:evenodd; clip-rule:evenodd" xmlns:xlink="http://www.w3.org/1999/xlink">
<g><path style="opacity:0.98" fill="#049200" d="M 61.5,-0.5 C 69.1667,-0.5 76.8333,-0.5 84.5,-0.5C 118.154,7.1539 138.821,27.8206 146.5,61.5C 146.5,69.5 146.5,77.5 146.5,85.5C 138.821,119.179 118.154,139.846 84.5,147.5C 76.8333,147.5 69.1667,147.5 61.5,147.5C 27.8461,139.846 7.17944,119.179 -0.5,85.5C -0.5,77.5 -0.5,69.5 -0.5,61.5C 7.17944,27.8206 27.8461,7.1539 61.5,-0.5 Z"/></g>
<g><path style="opacity:1" fill="#f8c048" d="M 63.5,41.5 C 63.5,46.1667 63.5,50.8333 63.5,55.5C 64.5,55.5 65.5,55.5 66.5,55.5C 66.5,50.8333 66.5,46.1667 66.5,41.5C 68.3792,40.6586 70.3792,40.3253 72.5,40.5C 72.1805,45.3633 72.5139,50.03 73.5,54.5C 74.1667,55.8333 74.8333,55.8333 75.5,54.5C 76.4861,50.03 76.8195,45.3633 76.5,40.5C 78.6208,40.3253 80.6208,40.6586 82.5,41.5C 82.5,46.1667 82.5,50.8333 82.5,55.5C 83.5,55.5 84.5,55.5 85.5,55.5C 85.5,50.8333 85.5,46.1667 85.5,41.5C 88.3764,42.8032 91.3764,43.3032 94.5,43C 99.3869,36.445 105.22,30.945 112,26.5C 113.473,26.9031 114.806,27.5697 116,28.5C 116.333,39.5 116.667,50.5 117,61.5C 118.583,63.9113 119.583,66.578 120,69.5C 120.79,75.9147 120.624,82.248 119.5,88.5C 114.821,88.3342 110.155,88.5008 105.5,89C 104.226,89.9772 104.226,90.8106 105.5,91.5C 109.312,92.3238 113.312,92.8238 117.5,93C 113.312,93.1762 109.312,93.6762 105.5,94.5C 104.596,95.209 104.263,96.209 104.5,97.5C 108.649,96.9197 112.316,97.5864 115.5,99.5C 113.423,103.246 110.423,105.912 106.5,107.5C 103.759,96.2581 96.759,89.0914 85.5,86C 83.5273,85.5045 81.5273,85.3379 79.5,85.5C 79.2079,81.996 77.2079,80.3293 73.5,80.5C 70.1554,80.5112 68.4887,82.1779 68.5,85.5C 57.2454,87.2184 49.0787,93.2184 44,103.5C 43.3603,105.265 43.5269,106.932 44.5,108.5C 39.9568,106.628 36.2901,103.628 33.5,99.5C 36.6843,97.5864 40.351,96.9197 44.5,97.5C 44.5,96.5 44.5,95.5 44.5,94.5C 39.8333,94.5 35.1667,94.5 30.5,94.5C 30.5,94.1667 30.5,93.8333 30.5,93.5C 34.6472,92.6753 38.9805,92.1753 43.5,92C 44.8333,91 44.8333,90 43.5,89C 38.5111,88.5007 33.5111,88.3341 28.5,88.5C 28.3337,81.1591 28.5003,73.8258 29,66.5C 30,63.8333 31,61.1667 32,58.5C 32.3333,48.1667 32.6667,37.8333 33,27.5C 35.2838,25.0155 37.7838,24.8489 40.5,27C 46.054,32.0512 51.054,37.5512 55.5,43.5C 58.0956,42.5178 60.7623,41.8511 63.5,41.5 Z"/></g>
<g><path style="opacity:1" fill="#fd9057" d="M 36.5,31.5 C 37.8734,31.3433 39.2068,31.51 40.5,32C 44.9645,35.8055 48.2979,40.3055 50.5,45.5C 44.9294,46.7046 40.096,49.3712 36,53.5C 35.2036,46.0869 35.3703,38.7535 36.5,31.5 Z"/></g>
<g><path style="opacity:1" fill="#fd9256" d="M 108.5,32.5 C 109.93,32.4208 111.264,32.7542 112.5,33.5C 113.665,41.145 113.831,48.8117 113,56.5C 108.665,51.7416 103.499,48.0749 97.5,45.5C 100.814,40.8539 104.481,36.5205 108.5,32.5 Z"/></g>
<g><path style="opacity:1" fill="#2b2934" d="M 72.5,40.5 C 73.8333,40.5 75.1667,40.5 76.5,40.5C 76.8195,45.3633 76.4861,50.03 75.5,54.5C 74.8333,37.1667 74.1667,37.1667 73.5,54.5C 72.5139,50.03 72.1805,45.3633 72.5,40.5 Z"/></g>
<g><path style="opacity:1" fill="#0c0c33" d="M 75.5,54.5 C 74.8333,55.8333 74.1667,55.8333 73.5,54.5C 74.1667,37.1667 74.8333,37.1667 75.5,54.5 Z"/></g>
<g><path style="opacity:1" fill="#141134" d="M 82.5,41.5 C 83.5,41.5 84.5,41.5 85.5,41.5C 85.5,46.1667 85.5,50.8333 85.5,55.5C 84.5,55.5 83.5,55.5 82.5,55.5C 82.5,50.8333 82.5,46.1667 82.5,41.5 Z"/></g>
<g><path style="opacity:1" fill="#151234" d="M 63.5,41.5 C 64.5,41.5 65.5,41.5 66.5,41.5C 66.5,46.1667 66.5,50.8333 66.5,55.5C 65.5,55.5 64.5,55.5 63.5,55.5C 63.5,50.8333 63.5,46.1667 63.5,41.5 Z"/></g>
<g><path style="opacity:1" fill="#131438" d="M 51.5,65.5 C 57.6793,64.858 60.8459,67.5247 61,73.5C 57.7211,79.0912 53.7211,79.7579 49,75.5C 46.7012,71.3616 47.5346,68.0283 51.5,65.5 Z"/></g>
<g><path style="opacity:1" fill="#141539" d="M 88.5,65.5 C 97.8075,64.9533 100.474,68.7866 96.5,77C 90.1204,80.3081 86.4538,78.4748 85.5,71.5C 85.6284,69.0452 86.6284,67.0452 88.5,65.5 Z"/></g>
<g><path style="opacity:1" fill="#fc809d" d="M 79.5,85.5 C 78.4097,86.8571 77.0764,87.8571 75.5,88.5C 74.5,88.5 73.5,88.5 72.5,88.5C 70.5956,88.2624 69.2623,87.2624 68.5,85.5C 68.4887,82.1779 70.1554,80.5112 73.5,80.5C 77.2079,80.3293 79.2079,81.996 79.5,85.5 Z"/></g>
<g><path style="opacity:1" fill="#fe8e58" d="M 44.5,81.5 C 50.1667,81.5 55.8333,81.5 61.5,81.5C 61.5,82.5 61.5,83.5 61.5,84.5C 55.8333,84.5 50.1667,84.5 44.5,84.5C 44.5,83.5 44.5,82.5 44.5,81.5 Z"/></g>
<g><path style="opacity:1" fill="#fe9356" d="M 89.5,81.5 C 94.8437,81.334 100.177,81.5006 105.5,82C 106.833,83 106.833,84 105.5,85C 99.8431,85.4994 94.1764,85.6661 88.5,85.5C 88.4326,84.0413 88.7659,82.7079 89.5,81.5 Z"/></g>
<g><path style="opacity:1" fill="#fbfaf9" d="M 68.5,85.5 C 69.2623,87.2624 70.5956,88.2624 72.5,88.5C 71.7413,94.2319 68.408,97.2319 62.5,97.5C 60.5191,97.5629 58.8524,96.8962 57.5,95.5C 57.1667,95.8333 56.8333,96.1667 56.5,96.5C 63.3928,100.044 69.2262,98.7111 74,92.5C 78.2267,98.2878 83.7267,99.9545 90.5,97.5C 91.8333,96.8333 91.8333,96.1667 90.5,95.5C 86.4298,96.9179 82.4298,96.7512 78.5,95C 76.5494,93.2658 75.5494,91.0991 75.5,88.5C 77.0764,87.8571 78.4097,86.8571 79.5,85.5C 81.5273,85.3379 83.5273,85.5045 85.5,86C 96.759,89.0914 103.759,96.2581 106.5,107.5C 103.752,110.048 100.419,111.882 96.5,113C 82.1465,116.244 67.8132,116.244 53.5,113C 50.1598,111.997 47.1598,110.497 44.5,108.5C 43.5269,106.932 43.3603,105.265 44,103.5C 49.0787,93.2184 57.2454,87.2184 68.5,85.5 Z"/></g>
<g><path style="opacity:1" fill="#1e1934" d="M 28.5,88.5 C 33.5111,88.3341 38.5111,88.5007 43.5,89C 44.8333,90 44.8333,91 43.5,92C 38.9805,92.1753 34.6472,92.6753 30.5,93.5C 28.4099,93.5499 27.0766,92.5499 26.5,90.5C 26.8555,89.4777 27.5222,88.811 28.5,88.5 Z"/></g>
<g><path style="opacity:1" fill="#0c0e33" d="M 119.5,88.5 C 122.084,89.0483 123.084,90.715 122.5,93.5C 121.167,93.5 119.833,93.5 118.5,93.5C 114.627,91.5698 110.294,90.9031 105.5,91.5C 104.226,90.8106 104.226,89.9772 105.5,89C 110.155,88.5008 114.821,88.3342 119.5,88.5 Z"/></g>
<g><path style="opacity:1" fill="#2a2a50" d="M 72.5,88.5 C 73.5,88.5 74.5,88.5 75.5,88.5C 75.5494,91.0991 76.5494,93.2658 78.5,95C 82.4298,96.7512 86.4298,96.9179 90.5,95.5C 91.8333,96.1667 91.8333,96.8333 90.5,97.5C 83.7267,99.9545 78.2267,98.2878 74,92.5C 69.2262,98.7111 63.3928,100.044 56.5,96.5C 56.8333,96.1667 57.1667,95.8333 57.5,95.5C 58.8524,96.8962 60.5191,97.5629 62.5,97.5C 68.408,97.2319 71.7413,94.2319 72.5,88.5 Z"/></g>
<g><path style="opacity:1" fill="#69533b" d="M 105.5,91.5 C 110.294,90.9031 114.627,91.5698 118.5,93.5C 118.5,93.8333 118.5,94.1667 118.5,94.5C 114.167,94.5 109.833,94.5 105.5,94.5C 109.312,93.6762 113.312,93.1762 117.5,93C 113.312,92.8238 109.312,92.3238 105.5,91.5 Z"/></g>
<g><path style="opacity:1" fill="#0d1132" d="M 30.5,94.5 C 35.1667,94.5 39.8333,94.5 44.5,94.5C 44.5,95.5 44.5,96.5 44.5,97.5C 40.351,96.9197 36.6843,97.5864 33.5,99.5C 31.2729,98.5994 30.2729,96.9328 30.5,94.5 Z"/></g>
<g><path style="opacity:1" fill="#090c32" d="M 105.5,94.5 C 109.833,94.5 114.167,94.5 118.5,94.5C 119.084,97.285 118.084,98.9517 115.5,99.5C 112.316,97.5864 108.649,96.9197 104.5,97.5C 104.263,96.209 104.596,95.209 105.5,94.5 Z"/></g>
</svg>
