<?xml version="1.0" encoding="UTF-8"?>
<!DOCTYPE svg PUBLIC "-//W3C//DTD SVG 1.1//EN" "http://www.w3.org/Graphics/SVG/1.1/DTD/svg11.dtd">
<svg xmlns="http://www.w3.org/2000/svg" version="1.1" width="148px" height="148px" style="shape-rendering:geometricPrecision; text-rendering:geometricPrecision; image-rendering:optimizeQuality; fill-rule:evenodd; clip-rule:evenodd" xmlns:xlink="http://www.w3.org/1999/xlink">
<g><path style="opacity:0.977" fill="#019101" d="M 61.5,-0.5 C 69.5,-0.5 77.5,-0.5 85.5,-0.5C 119.167,7.16667 139.833,27.8333 147.5,61.5C 147.5,69.5 147.5,77.5 147.5,85.5C 139.833,119.167 119.167,139.833 85.5,147.5C 77.5,147.5 69.5,147.5 61.5,147.5C 27.8333,139.833 7.16667,119.167 -0.5,85.5C -0.5,77.5 -0.5,69.5 -0.5,61.5C 7.16667,27.8333 27.8333,7.16667 61.5,-0.5 Z"/></g>
<g><path style="opacity:1" fill="#fb0700" d="M 102.5,57.5 C 91.0495,56.093 81.3829,59.4264 73.5,67.5C 73.1667,67.5 72.8333,67.5 72.5,67.5C 64.6279,59.4361 54.9613,56.1027 43.5,57.5C 40.126,34.3793 49.9593,21.046 73,17.5C 94.9593,20.1239 105.293,32.4572 104,54.5C 103.768,55.7375 103.268,56.7375 102.5,57.5 Z"/></g>
<g><path style="opacity:1" fill="#f8bd06" d="M 43.5,57.5 C 54.9613,56.1027 64.6279,59.4361 72.5,67.5C 69.7235,70.718 67.7235,74.3847 66.5,78.5C 55.1331,76.1358 47.4665,69.4691 43.5,58.5C 43.5,58.1667 43.5,57.8333 43.5,57.5 Z"/></g>
<g><path style="opacity:1" fill="#02af4f" d="M 43.5,58.5 C 47.4665,69.4691 55.1331,76.1358 66.5,78.5C 66.5,78.8333 66.5,79.1667 66.5,79.5C 64.5455,88.223 65.7122,96.5563 70,104.5C 71.0391,105.71 72.2058,106.71 73.5,107.5C 73.5,107.833 73.5,108.167 73.5,108.5C 69.9135,111.571 65.9135,114.071 61.5,116C 37.6905,121.935 23.3572,112.935 18.5,89C 19.3325,72.6688 27.6659,62.5022 43.5,58.5 Z"/></g>
<g><path style="opacity:1" fill="#dc0670" d="M 102.5,57.5 C 102.5,57.8333 102.5,58.1667 102.5,58.5C 98.5335,69.4691 90.8669,76.1358 79.5,78.5C 78.8333,77.5 78.1667,76.5 77.5,75.5C 76.1667,72.8333 74.8333,70.1667 73.5,67.5C 81.3829,59.4264 91.0495,56.093 102.5,57.5 Z"/></g>
<g><path style="opacity:1" fill="#056fbe" d="M 102.5,58.5 C 118.334,62.5022 126.667,72.6688 127.5,89C 122.401,113.037 108.067,122.037 84.5,116C 80.1296,114.451 76.4629,111.951 73.5,108.5C 73.5,108.167 73.5,107.833 73.5,107.5C 80.0833,98.827 82.0833,89.1603 79.5,78.5C 90.8669,76.1358 98.5335,69.4691 102.5,58.5 Z"/></g>
<g><path style="opacity:1" fill="#f6f8f8" d="M 72.5,67.5 C 72.8333,67.5 73.1667,67.5 73.5,67.5C 74.8333,70.1667 76.1667,72.8333 77.5,75.5C 77.5,76.5 77.5,77.5 77.5,78.5C 73.8648,79.1143 70.1981,79.4476 66.5,79.5C 66.5,79.1667 66.5,78.8333 66.5,78.5C 67.7235,74.3847 69.7235,70.718 72.5,67.5 Z"/></g>
<g><path style="opacity:1" fill="#12aeec" d="M 77.5,75.5 C 78.1667,76.5 78.8333,77.5 79.5,78.5C 82.0833,89.1603 80.0833,98.827 73.5,107.5C 72.2058,106.71 71.0391,105.71 70,104.5C 65.7122,96.5563 64.5455,88.223 66.5,79.5C 70.1981,79.4476 73.8648,79.1143 77.5,78.5C 77.5,77.5 77.5,76.5 77.5,75.5 Z"/></g>
</svg>
