<?xml version="1.0" encoding="UTF-8"?>
<!DOCTYPE svg PUBLIC "-//W3C//DTD SVG 1.1//EN" "http://www.w3.org/Graphics/SVG/1.1/DTD/svg11.dtd">
<svg xmlns="http://www.w3.org/2000/svg" version="1.1" width="148px" height="147px" style="shape-rendering:geometricPrecision; text-rendering:geometricPrecision; image-rendering:optimizeQuality; fill-rule:evenodd; clip-rule:evenodd" xmlns:xlink="http://www.w3.org/1999/xlink">
<g><path style="opacity:0.978" fill="#009100" d="M 61.5,-0.5 C 69.5,-0.5 77.5,-0.5 85.5,-0.5C 118.73,7.06352 139.397,27.3969 147.5,60.5C 147.5,68.8333 147.5,77.1667 147.5,85.5C 139.397,118.603 118.73,138.936 85.5,146.5C 77.5,146.5 69.5,146.5 61.5,146.5C 28.2698,138.936 7.60315,118.603 -0.5,85.5C -0.5,77.1667 -0.5,68.8333 -0.5,60.5C 7.60315,27.3969 28.2698,7.06352 61.5,-0.5 Z"/></g>
<g><path style="opacity:1" fill="#005c00" d="M 49.5,35.5 C 66.8365,35.3334 84.1699,35.5001 101.5,36C 124.798,44.0915 133.965,60.2582 129,84.5C 124.359,97.8054 115.192,106.305 101.5,110C 84.1667,110.667 66.8333,110.667 49.5,110C 31.6667,106.833 21.1667,96.3333 18,78.5C 16.3497,55.096 26.8497,40.7627 49.5,35.5 Z"/></g>
<g><path style="opacity:1" fill="#fbfcfb" d="M 45.5,47.5 C 49.594,46.7046 52.7607,48.038 55,51.5C 55.6667,65.8333 55.6667,80.1667 55,94.5C 50.6667,99.8333 46.3333,99.8333 42,94.5C 41.3333,80.1667 41.3333,65.8333 42,51.5C 43.3756,50.2949 44.5423,48.9616 45.5,47.5 Z"/></g>
<g><path style="opacity:1" fill="#fbfcfb" d="M 95.5,47.5 C 99.8027,46.7962 103.303,48.1295 106,51.5C 106.667,65.8333 106.667,80.1667 106,94.5C 100.75,100.173 96.0836,99.8398 92,93.5C 91.3333,79.5 91.3333,65.5 92,51.5C 93.3756,50.2949 94.5423,48.9616 95.5,47.5 Z"/></g>
</svg>
