<?xml version="1.0" encoding="UTF-8"?>
<!DOCTYPE svg PUBLIC "-//W3C//DTD SVG 1.1//EN" "http://www.w3.org/Graphics/SVG/1.1/DTD/svg11.dtd">
<svg xmlns="http://www.w3.org/2000/svg" version="1.1" width="148px" height="147px" style="shape-rendering:geometricPrecision; text-rendering:geometricPrecision; image-rendering:optimizeQuality; fill-rule:evenodd; clip-rule:evenodd" xmlns:xlink="http://www.w3.org/1999/xlink">
<g><path style="opacity:0.974" fill="#039100" d="M 61.5,-0.5 C 69.5,-0.5 77.5,-0.5 85.5,-0.5C 118.73,7.06352 139.397,27.3969 147.5,60.5C 147.5,68.8333 147.5,77.1667 147.5,85.5C 139.397,118.603 118.73,138.936 85.5,146.5C 77.5,146.5 69.5,146.5 61.5,146.5C 28.2698,138.936 7.60315,118.603 -0.5,85.5C -0.5,77.1667 -0.5,68.8333 -0.5,60.5C 7.60315,27.3969 28.2698,7.06352 61.5,-0.5 Z"/></g>
<g><path style="opacity:1" fill="#262726" d="M 124.5,64.5 C 103.336,70.357 83.8359,67.0237 66,54.5C 59.8238,59.172 52.9904,62.672 45.5,65C 38.0578,65.8483 30.7244,65.3483 23.5,63.5C 29.0563,36.9484 45.3896,22.2817 72.5,19.5C 92.7913,20.2995 108.291,29.2995 119,46.5C 121.715,52.2544 123.548,58.2544 124.5,64.5 Z"/></g>
<g><path style="opacity:1" fill="#fdcb7f" d="M 124.5,64.5 C 126.836,100.666 110.003,121 74,125.5C 42.6102,122.277 25.4435,104.943 22.5,73.5C 22.7238,70.1453 23.0572,66.812 23.5,63.5C 30.7244,65.3483 38.0578,65.8483 45.5,65C 52.9904,62.672 59.8238,59.172 66,54.5C 83.8359,67.0237 103.336,70.357 124.5,64.5 Z"/></g>
<g><path style="opacity:1" fill="#322f2b" d="M 48.5,75.5 C 54.3771,75.2057 56.8771,77.8724 56,83.5C 54.1792,86.9907 51.3458,88.1574 47.5,87C 43.2231,82.601 43.5564,78.7677 48.5,75.5 Z"/></g>
<g><path style="opacity:1" fill="#322f2b" d="M 91.5,75.5 C 97.3771,75.2057 99.8771,77.8724 99,83.5C 97.1792,86.9907 94.3458,88.1574 90.5,87C 86.2231,82.601 86.5564,78.7677 91.5,75.5 Z"/></g>
<g><path style="opacity:1" fill="#fffefd" d="M 56.5,99.5 C 67.5202,99.1679 78.5202,99.5012 89.5,100.5C 87.4535,109.545 81.7869,114.212 72.5,114.5C 63.3244,113.659 57.9911,108.659 56.5,99.5 Z"/></g>
</svg>
