<?xml version="1.0" encoding="UTF-8"?>
<!DOCTYPE svg PUBLIC "-//W3C//DTD SVG 1.1//EN" "http://www.w3.org/Graphics/SVG/1.1/DTD/svg11.dtd">
<svg xmlns="http://www.w3.org/2000/svg" version="1.1" width="147px" height="147px" style="shape-rendering:geometricPrecision; text-rendering:geometricPrecision; image-rendering:optimizeQuality; fill-rule:evenodd; clip-rule:evenodd" xmlns:xlink="http://www.w3.org/1999/xlink">
<g><path style="opacity:0.977" fill="#019201" d="M 61.5,-0.5 C 69.1667,-0.5 76.8333,-0.5 84.5,-0.5C 117.718,7.05069 138.384,27.384 146.5,60.5C 146.5,68.8333 146.5,77.1667 146.5,85.5C 138.384,118.616 117.718,138.949 84.5,146.5C 76.8333,146.5 69.1667,146.5 61.5,146.5C 28.2825,138.949 7.61579,118.616 -0.5,85.5C -0.5,77.1667 -0.5,68.8333 -0.5,60.5C 7.61579,27.384 28.2825,7.05069 61.5,-0.5 Z"/></g>
<g><path style="opacity:1" fill="#565b55" d="M 45.5,27.5 C 43.5,27.5 41.5,27.5 39.5,27.5C 39.0146,22.8415 40.848,21.5081 45,23.5C 45.49,24.7932 45.6567,26.1266 45.5,27.5 Z"/></g>
<g><path style="opacity:1" fill="#565b55" d="M 101.5,27.5 C 99.5,27.5 97.5,27.5 95.5,27.5C 95.0146,22.8415 96.848,21.5081 101,23.5C 101.49,24.7932 101.657,26.1266 101.5,27.5 Z"/></g>
<g><path style="opacity:1" fill="#fdfdfd" d="M 39.5,27.5 C 41.5,27.5 43.5,27.5 45.5,27.5C 62.1667,27.5 78.8333,27.5 95.5,27.5C 97.5,27.5 99.5,27.5 101.5,27.5C 104.195,27.933 106.362,29.2663 108,31.5C 108.333,42.5 108.667,53.5 109,64.5C 114.049,64.913 118.882,65.913 123.5,67.5C 123.5,78.8333 123.5,90.1667 123.5,101.5C 118.5,101.5 113.5,101.5 108.5,101.5C 105.339,103.398 103.673,106.232 103.5,110C 93.5056,110.5 83.5056,110.666 73.5,110.5C 73.2993,114.35 71.4659,115.35 68,113.5C 67.5172,112.552 67.3505,111.552 67.5,110.5C 57.1613,110.666 46.828,110.5 36.5,110C 35.7362,107.931 35.2362,105.764 35,103.5C 34.2917,102.619 33.4584,101.953 32.5,101.5C 27.8333,101.5 23.1667,101.5 18.5,101.5C 18.5,90.1667 18.5,78.8333 18.5,67.5C 22.7799,65.9207 27.2799,64.9207 32,64.5C 32.3333,53.5 32.6667,42.5 33,31.5C 34.5707,29.0771 36.7374,27.7438 39.5,27.5 Z"/></g>
<g><path style="opacity:1" fill="#404040" d="M 46.5,35.5 C 62.5035,35.3334 78.5035,35.5001 94.5,36C 95,36.5 95.5,37 96,37.5C 96.6667,44.8333 96.6667,52.1667 96,59.5C 95.5,60 95,60.5 94.5,61C 78.5,61.6667 62.5,61.6667 46.5,61C 46,60.5 45.5,60 45,59.5C 44.3333,52.1667 44.3333,44.8333 45,37.5C 45.7172,36.9558 46.2172,36.2891 46.5,35.5 Z"/></g>
<g><path style="opacity:1" fill="#595959" d="M 40.5,64.5 C 60.3291,63.3375 80.3291,63.1709 100.5,64C 101.833,67.6667 101.833,71.3333 100.5,75C 80.3291,75.8291 60.3291,75.6625 40.5,74.5C 42.8333,74.5 45.1667,74.5 47.5,74.5C 47.5,71.1667 47.5,67.8333 47.5,64.5C 45.1667,64.5 42.8333,64.5 40.5,64.5 Z"/></g>
<g><path style="opacity:1" fill="#e9e9e9" d="M 40.5,64.5 C 42.8333,64.5 45.1667,64.5 47.5,64.5C 47.5,67.8333 47.5,71.1667 47.5,74.5C 45.1667,74.5 42.8333,74.5 40.5,74.5C 39.1667,71.1667 39.1667,67.8333 40.5,64.5 Z"/></g>
<g><path style="opacity:1" fill="#fcfcfc" d="M 50.5,64.5 C 51.8333,64.5 53.1667,64.5 54.5,64.5C 54.5,67.8333 54.5,71.1667 54.5,74.5C 53.1667,74.5 51.8333,74.5 50.5,74.5C 50.5,71.1667 50.5,67.8333 50.5,64.5 Z"/></g>
<g><path style="opacity:1" fill="#fcfcfc" d="M 56.5,64.5 C 57.8333,64.5 59.1667,64.5 60.5,64.5C 60.5,67.8333 60.5,71.1667 60.5,74.5C 59.1667,74.5 57.8333,74.5 56.5,74.5C 56.5,71.1667 56.5,67.8333 56.5,64.5 Z"/></g>
<g><path style="opacity:1" fill="#fcfcfc" d="M 62.5,64.5 C 63.8333,64.5 65.1667,64.5 66.5,64.5C 66.5,67.8333 66.5,71.1667 66.5,74.5C 65.1667,74.5 63.8333,74.5 62.5,74.5C 62.5,71.1667 62.5,67.8333 62.5,64.5 Z"/></g>
<g><path style="opacity:1" fill="#fcfcfc" d="M 68.5,64.5 C 69.8333,64.5 71.1667,64.5 72.5,64.5C 72.5,67.8333 72.5,71.1667 72.5,74.5C 71.1667,74.5 69.8333,74.5 68.5,74.5C 68.5,71.1667 68.5,67.8333 68.5,64.5 Z"/></g>
<g><path style="opacity:1" fill="#fcfcfc" d="M 74.5,64.5 C 75.8333,64.5 77.1667,64.5 78.5,64.5C 78.5,67.8333 78.5,71.1667 78.5,74.5C 77.1667,74.5 75.8333,74.5 74.5,74.5C 74.5,71.1667 74.5,67.8333 74.5,64.5 Z"/></g>
<g><path style="opacity:1" fill="#fcfcfc" d="M 80.5,64.5 C 81.8333,64.5 83.1667,64.5 84.5,64.5C 84.5,67.8333 84.5,71.1667 84.5,74.5C 83.1667,74.5 81.8333,74.5 80.5,74.5C 80.5,71.1667 80.5,67.8333 80.5,64.5 Z"/></g>
<g><path style="opacity:1" fill="#fcfcfc" d="M 86.5,64.5 C 87.8333,64.5 89.1667,64.5 90.5,64.5C 90.5,67.8333 90.5,71.1667 90.5,74.5C 89.1667,74.5 87.8333,74.5 86.5,74.5C 86.5,71.1667 86.5,67.8333 86.5,64.5 Z"/></g>
<g><path style="opacity:1" fill="#fcfcfc" d="M 92.5,64.5 C 94.8333,64.5 97.1667,64.5 99.5,64.5C 99.5,67.8333 99.5,71.1667 99.5,74.5C 97.1667,74.5 94.8333,74.5 92.5,74.5C 92.5,71.1667 92.5,67.8333 92.5,64.5 Z"/></g>
<g><path style="opacity:1" fill="#3f403f" d="M 18.5,67.5 C 18.5,78.8333 18.5,90.1667 18.5,101.5C 23.1667,101.5 27.8333,101.5 32.5,101.5C 32.6646,104.518 32.498,107.518 32,110.5C 31.5,111 31,111.5 30.5,112C 25.8333,112.667 21.1667,112.667 16.5,112C 16,111.5 15.5,111 15,110.5C 14.3333,96.8333 14.3333,83.1667 15,69.5C 15.8159,68.1772 16.9826,67.5106 18.5,67.5 Z"/></g>
<g><path style="opacity:1" fill="#3f403f" d="M 123.5,67.5 C 125.017,67.5106 126.184,68.1772 127,69.5C 127.667,83.5 127.667,97.5 127,111.5C 126.5,112 126,112.5 125.5,113C 120.5,113.667 115.5,113.667 110.5,113C 110,112.5 109.5,112 109,111.5C 108.502,108.183 108.335,104.85 108.5,101.5C 113.5,101.5 118.5,101.5 123.5,101.5C 123.5,90.1667 123.5,78.8333 123.5,67.5 Z"/></g>
<g><path style="opacity:1" fill="#4d4d4d" d="M 39.5,85.5 C 44.1785,85.3342 48.8452,85.5008 53.5,86C 57.1786,88.0879 57.5119,90.7545 54.5,94C 49.5,94.6667 44.5,94.6667 39.5,94C 36.8987,91.1705 36.8987,88.3371 39.5,85.5 Z"/></g>
<g><path style="opacity:1" fill="#4f4f4f" d="M 86.5,85.5 C 91.1785,85.3342 95.8452,85.5008 100.5,86C 104.179,88.0879 104.512,90.7545 101.5,94C 96.5,94.6667 91.5,94.6667 86.5,94C 83.8987,91.1705 83.8987,88.3371 86.5,85.5 Z"/></g>
<g><path style="opacity:1" fill="#ebebeb" d="M 39.5,87.5 C 44.1585,87.0146 45.4919,88.848 43.5,93C 39.2716,93.2717 37.9383,91.4383 39.5,87.5 Z"/></g>
<g><path style="opacity:1" fill="#e6e6e6" d="M 49.5,87.5 C 54.1585,87.0146 55.4919,88.848 53.5,93C 48.7282,93.8104 47.3948,91.9771 49.5,87.5 Z"/></g>
<g><path style="opacity:1" fill="#f1f1f1" d="M 87.5,87.5 C 91.5273,87.2596 92.8607,88.9263 91.5,92.5C 89.3561,93.9535 87.5227,93.6201 86,91.5C 85.7003,89.9343 86.2003,88.601 87.5,87.5 Z"/></g>
<g><path style="opacity:1" fill="#e6e6e6" d="M 96.5,87.5 C 101.159,87.0146 102.492,88.848 100.5,93C 95.7282,93.8104 94.3948,91.9771 96.5,87.5 Z"/></g>
</svg>
