<?xml version="1.0" encoding="UTF-8"?>
<!DOCTYPE svg PUBLIC "-//W3C//DTD SVG 1.1//EN" "http://www.w3.org/Graphics/SVG/1.1/DTD/svg11.dtd">
<svg xmlns="http://www.w3.org/2000/svg" version="1.1" width="148px" height="148px" style="shape-rendering:geometricPrecision; text-rendering:geometricPrecision; image-rendering:optimizeQuality; fill-rule:evenodd; clip-rule:evenodd" xmlns:xlink="http://www.w3.org/1999/xlink">
<g><path style="opacity:0.984" fill="#009200" d="M 61.5,-0.5 C 69.5,-0.5 77.5,-0.5 85.5,-0.5C 119.167,7.16667 139.833,27.8333 147.5,61.5C 147.5,69.5 147.5,77.5 147.5,85.5C 139.833,119.167 119.167,139.833 85.5,147.5C 77.5,147.5 69.5,147.5 61.5,147.5C 27.8333,139.833 7.16667,119.167 -0.5,85.5C -0.5,77.5 -0.5,69.5 -0.5,61.5C 7.16667,27.8333 27.8333,7.16667 61.5,-0.5 Z"/></g>
<g><path style="opacity:1" fill="#f3f4f3" d="M 68.5,12.5 C 65.8987,15.3371 65.8987,18.1705 68.5,21C 74.5,21.6667 80.5,21.6667 86.5,21C 89.1013,18.1705 89.1013,15.3371 86.5,12.5C 90.3522,13.1874 92.0189,15.5208 91.5,19.5C 95.5,20.1667 95.5,20.8333 91.5,21.5C 91.5,24.1667 91.5,26.8333 91.5,29.5C 96.9212,29.6547 98.9212,32.4881 97.5,38C 98.9298,43.5765 96.9298,46.4098 91.5,46.5C 91.6709,48.9928 90.6709,50.8261 88.5,52C 81.1667,52.6667 73.8333,52.6667 66.5,52C 64.3291,50.8261 63.3291,48.9928 63.5,46.5C 58.0702,46.4098 56.0702,43.5765 57.5,38C 56.0788,32.4881 58.0788,29.6547 63.5,29.5C 63.5,26.8333 63.5,24.1667 63.5,21.5C 59.5,20.8333 59.5,20.1667 63.5,19.5C 62.9811,15.5208 64.6478,13.1874 68.5,12.5 Z"/></g>
<g><path style="opacity:1" fill="#4e504e" d="M 68.5,12.5 C 74.5,12.5 80.5,12.5 86.5,12.5C 89.1013,15.3371 89.1013,18.1705 86.5,21C 80.5,21.6667 74.5,21.6667 68.5,21C 65.8987,18.1705 65.8987,15.3371 68.5,12.5 Z"/></g>
<g><path style="opacity:1" fill="#55bb56" d="M 72.5,15.5 C 73.5862,15.62 74.2528,16.2867 74.5,17.5C 74.1667,18.1667 73.8333,18.8333 73.5,19.5C 72.5713,18.3112 72.238,16.9778 72.5,15.5 Z"/></g>
<g><path style="opacity:1" fill="#4e4e4e" d="M 87.5,25.5 C 88.8222,28.7681 89.4888,32.4348 89.5,36.5C 89.1667,40.1667 88.8333,43.8333 88.5,47.5C 87.5027,40.1968 87.1694,32.8635 87.5,25.5 Z"/></g>
<g><path style="opacity:1" fill="#55c256" d="M 63.5,59.5 C 72.5062,59.3336 81.5062,59.5002 90.5,60C 93,61.1667 94.8333,63 96,65.5C 96.3333,73.8333 96.6667,82.1667 97,90.5C 100.825,91.2104 104.658,92.0437 108.5,93C 110.85,95.3728 111.017,97.8728 109,100.5C 99.4439,110.391 89.6106,119.891 79.5,129C 77.5,129.667 75.5,129.667 73.5,129C 64.027,119.527 54.527,110.027 45,100.5C 42.575,97.1179 43.075,94.2845 46.5,92C 49.8333,91.6667 53.1667,91.3333 56.5,91C 57,90.5 57.5,90 58,89.5C 58.3333,80.8333 58.6667,72.1667 59,63.5C 60.3968,61.9297 61.8968,60.5964 63.5,59.5 Z"/></g>
</svg>
