<?xml version="1.0" encoding="UTF-8"?>
<!DOCTYPE svg PUBLIC "-//W3C//DTD SVG 1.1//EN" "http://www.w3.org/Graphics/SVG/1.1/DTD/svg11.dtd">
<svg xmlns="http://www.w3.org/2000/svg" version="1.1" width="148px" height="147px" style="shape-rendering:geometricPrecision; text-rendering:geometricPrecision; image-rendering:optimizeQuality; fill-rule:evenodd; clip-rule:evenodd" xmlns:xlink="http://www.w3.org/1999/xlink">
<g><path style="opacity:0.98" fill="#009200" d="M 61.5,-0.5 C 69.5,-0.5 77.5,-0.5 85.5,-0.5C 118.73,7.06352 139.397,27.3969 147.5,60.5C 147.5,68.8333 147.5,77.1667 147.5,85.5C 139.397,118.603 118.73,138.936 85.5,146.5C 77.5,146.5 69.5,146.5 61.5,146.5C 28.2698,138.936 7.60315,118.603 -0.5,85.5C -0.5,77.1667 -0.5,68.8333 -0.5,60.5C 7.60315,27.3969 28.2698,7.06352 61.5,-0.5 Z"/></g>
<g><path style="opacity:1" fill="#35af35" d="M 38.5,47.5 C 48.3194,46.506 58.3194,46.1726 68.5,46.5C 68.5,64.1667 68.5,81.8333 68.5,99.5C 59.1667,99.5 49.8333,99.5 40.5,99.5C 41.3686,97.283 41.702,94.9496 41.5,92.5C 45.1667,92.5 48.8333,92.5 52.5,92.5C 52.238,93.9778 52.5713,95.3112 53.5,96.5C 55.1112,95.6798 55.7778,94.3464 55.5,92.5C 58.9705,93.1252 61.8038,92.1252 64,89.5C 64.6667,78.8333 64.6667,68.1667 64,57.5C 61.5806,55.4152 58.7472,54.4152 55.5,54.5C 55.7778,52.6536 55.1112,51.3202 53.5,50.5C 52.5713,51.6888 52.238,53.0222 52.5,54.5C 48.8333,54.5 45.1667,54.5 41.5,54.5C 41.6621,52.4727 41.4955,50.4727 41,48.5C 40.3292,47.7476 39.4959,47.4142 38.5,47.5 Z"/></g>
<g><path style="opacity:1" fill="#47ba48" d="M 68.5,46.5 C 77.5,46.5 86.5,46.5 95.5,46.5C 95.1667,47.1667 94.8333,47.8333 94.5,48.5C 93.8826,48.6107 93.3826,48.944 93,49.5C 92.5045,51.4727 92.3379,53.4727 92.5,55.5C 89.3484,54.9586 86.8484,55.9586 85,58.5C 84.3333,69.1667 84.3333,79.8333 85,90.5C 86.8484,93.0414 89.3484,94.0414 92.5,93.5C 92.5,95.5 92.5,97.5 92.5,99.5C 84.5,99.5 76.5,99.5 68.5,99.5C 68.5,81.8333 68.5,64.1667 68.5,46.5 Z"/></g>
<g><path style="opacity:1" fill="#3d403d" d="M 95.5,46.5 C 101.176,46.3339 106.843,46.5006 112.5,47C 113.416,47.2784 114.082,47.7784 114.5,48.5C 107.833,48.5 101.167,48.5 94.5,48.5C 94.8333,47.8333 95.1667,47.1667 95.5,46.5 Z"/></g>
<g><path style="opacity:1" fill="#55c256" d="M 38.5,47.5 C 39.4959,47.4142 40.3292,47.7476 41,48.5C 41.4955,50.4727 41.6621,52.4727 41.5,54.5C 45.1667,54.5 48.8333,54.5 52.5,54.5C 52.238,53.0222 52.5713,51.6888 53.5,50.5C 55.1112,51.3202 55.7778,52.6536 55.5,54.5C 58.7472,54.4152 61.5806,55.4152 64,57.5C 64.6667,68.1667 64.6667,78.8333 64,89.5C 61.8038,92.1252 58.9705,93.1252 55.5,92.5C 55.7778,94.3464 55.1112,95.6798 53.5,96.5C 52.5713,95.3112 52.238,93.9778 52.5,92.5C 48.8333,92.5 45.1667,92.5 41.5,92.5C 41.702,94.9496 41.3686,97.283 40.5,99.5C 33.1591,99.6663 25.8258,99.4997 18.5,99C 17.5769,96.9592 17.2436,94.7925 17.5,92.5C 13.8184,93.2747 11.3184,91.9414 10,88.5C 9.0716,77.76 9.40493,67.0934 11,56.5C 12.897,54.9837 15.0637,54.317 17.5,54.5C 17.2436,52.2075 17.5769,50.0408 18.5,48C 25.1583,47.5004 31.825,47.3337 38.5,47.5 Z"/></g>
<g><path style="opacity:1" fill="#fcfcfc" d="M 94.5,48.5 C 101.167,48.5 107.833,48.5 114.5,48.5C 115.117,48.6107 115.617,48.944 116,49.5C 116.495,51.4727 116.662,53.4727 116.5,55.5C 120.167,55.5 123.833,55.5 127.5,55.5C 127.238,54.0222 127.571,52.6888 128.5,51.5C 130.111,52.3202 130.778,53.6536 130.5,55.5C 134.21,55.2247 137.043,56.558 139,59.5C 139.667,69.5 139.667,79.5 139,89.5C 137.188,92.8212 134.355,94.1546 130.5,93.5C 130.778,95.3464 130.111,96.6798 128.5,97.5C 127.571,96.3112 127.238,94.9778 127.5,93.5C 123.833,93.5 120.167,93.5 116.5,93.5C 116.662,95.5273 116.495,97.5273 116,99.5C 114.933,100.191 113.766,100.691 112.5,101C 105.628,102.038 98.9618,101.538 92.5,99.5C 92.5,97.5 92.5,95.5 92.5,93.5C 89.3484,94.0414 86.8484,93.0414 85,90.5C 84.3333,79.8333 84.3333,69.1667 85,58.5C 86.8484,55.9586 89.3484,54.9586 92.5,55.5C 92.3379,53.4727 92.5045,51.4727 93,49.5C 93.3826,48.944 93.8826,48.6107 94.5,48.5 Z"/></g>
<g><path style="opacity:1" fill="#009200" d="M 17.5,58.5 C 27.1896,58.1682 36.8563,58.5016 46.5,59.5C 41.6667,59.8333 36.8333,60.1667 32,60.5C 26.7843,60.4937 21.951,59.8271 17.5,58.5 Z"/></g>
<g><path style="opacity:1" fill="#4d4d4d" d="M 92.5,58.5 C 102.19,58.1682 111.856,58.5016 121.5,59.5C 116.667,59.8333 111.833,60.1667 107,60.5C 101.784,60.4937 96.951,59.8271 92.5,58.5 Z"/></g>
<g><path style="opacity:1" fill="#0f960c" d="M 53.5,59.5 C 56.9297,59.1065 60.0964,59.7732 63,61.5C 63.6667,69.1667 63.6667,76.8333 63,84.5C 62.5,85.6667 61.6667,86.5 60.5,87C 58.1667,87.6667 55.8333,87.6667 53.5,87C 52.8742,86.2496 52.3742,85.4162 52,84.5C 51.3333,76.8333 51.3333,69.1667 52,61.5C 52.7172,60.9558 53.2172,60.2891 53.5,59.5 Z"/></g>
<g><path style="opacity:1" fill="#4f4f4f" d="M 129.5,60.5 C 132.685,60.0196 135.519,60.6863 138,62.5C 138.667,70.5 138.667,78.5 138,86.5C 134.667,89.1667 131.333,89.1667 128,86.5C 127.333,78.5 127.333,70.5 128,62.5C 128.717,61.9558 129.217,61.2891 129.5,60.5 Z"/></g>
<g><path style="opacity:1" fill="#55bc56" d="M 130.5,67.5 C 132.288,67.2148 133.955,67.5481 135.5,68.5C 134.667,68.8333 133.833,69.1667 133,69.5C 131.624,69.3158 130.791,68.6491 130.5,67.5 Z"/></g>
<g><path style="opacity:1" fill="#55bc56" d="M 130.5,79.5 C 132.288,79.2148 133.955,79.5481 135.5,80.5C 134.667,80.8333 133.833,81.1667 133,81.5C 131.624,81.3158 130.791,80.6491 130.5,79.5 Z"/></g>
<g><path style="opacity:1" fill="#009200" d="M 17.5,87.5 C 27.1896,87.1682 36.8563,87.5016 46.5,88.5C 41.6667,88.8333 36.8333,89.1667 32,89.5C 26.7843,89.4937 21.951,88.8271 17.5,87.5 Z"/></g>
<g><path style="opacity:1" fill="#4d4d4d" d="M 92.5,87.5 C 102.19,87.1682 111.856,87.5016 121.5,88.5C 116.667,88.8333 111.833,89.1667 107,89.5C 101.784,89.4937 96.951,88.8271 92.5,87.5 Z"/></g>
</svg>
