<?xml version="1.0" encoding="UTF-8"?>
<!DOCTYPE svg PUBLIC "-//W3C//DTD SVG 1.1//EN" "http://www.w3.org/Graphics/SVG/1.1/DTD/svg11.dtd">
<svg xmlns="http://www.w3.org/2000/svg" version="1.1" width="147px" height="147px" style="shape-rendering:geometricPrecision; text-rendering:geometricPrecision; image-rendering:optimizeQuality; fill-rule:evenodd; clip-rule:evenodd" xmlns:xlink="http://www.w3.org/1999/xlink">
<g><path style="opacity:0.985" fill="#009200" d="M 61.5,-0.5 C 69.1667,-0.5 76.8333,-0.5 84.5,-0.5C 117.718,7.05069 138.384,27.384 146.5,60.5C 146.5,68.8333 146.5,77.1667 146.5,85.5C 138.384,118.616 117.718,138.949 84.5,146.5C 76.8333,146.5 69.1667,146.5 61.5,146.5C 28.2825,138.949 7.61579,118.616 -0.5,85.5C -0.5,77.1667 -0.5,68.8333 -0.5,60.5C 7.61579,27.384 28.2825,7.05069 61.5,-0.5 Z"/></g>
<g><path style="opacity:1" fill="#56c356" d="M 111.5,30.5 C 115.5,30.5 119.5,30.5 123.5,30.5C 123.5,59.8333 123.5,89.1667 123.5,118.5C 119.5,118.5 115.5,118.5 111.5,118.5C 111.5,89.1667 111.5,59.8333 111.5,30.5 Z"/></g>
<g><path style="opacity:1" fill="#3c3e3b" d="M 59.5,49.5 C 52.5,49.5 45.5,49.5 38.5,49.5C 38.9175,48.7784 39.5842,48.2784 40.5,48C 46.1667,47.3333 51.8333,47.3333 57.5,48C 58.4158,48.2784 59.0825,48.7784 59.5,49.5 Z"/></g>
<g><path style="opacity:1" fill="#fcfdfc" d="M 38.5,49.5 C 45.5,49.5 52.5,49.5 59.5,49.5C 60.1174,49.6107 60.6174,49.944 61,50.5C 61.4955,52.4727 61.6621,54.4727 61.5,56.5C 65.5,56.5 69.5,56.5 73.5,56.5C 73.238,55.0222 73.5713,53.6888 74.5,52.5C 76.1112,53.3202 76.7778,54.6536 76.5,56.5C 80.0254,56.3459 82.8587,57.6792 85,60.5C 85.6667,71.1667 85.6667,81.8333 85,92.5C 82.8587,95.3208 80.0254,96.6541 76.5,96.5C 76.7778,98.3464 76.1112,99.6798 74.5,100.5C 73.5713,99.3112 73.238,97.9778 73.5,96.5C 69.5,96.5 65.5,96.5 61.5,96.5C 61.6621,98.5273 61.4955,100.527 61,102.5C 60.6174,103.056 60.1174,103.389 59.5,103.5C 52.8333,103.5 46.1667,103.5 39.5,103.5C 38.5041,103.586 37.6708,103.252 37,102.5C 36.5045,100.527 36.3379,98.5273 36.5,96.5C 33.2155,96.7307 30.7155,95.3974 29,92.5C 28.3333,81.8333 28.3333,71.1667 29,60.5C 30.7155,57.6026 33.2155,56.2693 36.5,56.5C 36.3379,54.4727 36.5045,52.4727 37,50.5C 37.3826,49.944 37.8826,49.6107 38.5,49.5 Z"/></g>
<g><path style="opacity:1" fill="#4e4e4e" d="M 36.5,59.5 C 46.8333,59.5 57.1667,59.5 67.5,59.5C 67.5,60.5 67.5,61.5 67.5,62.5C 57.1667,62.5 46.8333,62.5 36.5,62.5C 36.5,61.5 36.5,60.5 36.5,59.5 Z"/></g>
<g><path style="opacity:1" fill="#4e4e4e" d="M 74.5,61.5 C 77.9297,61.1065 81.0964,61.7732 84,63.5C 84.6667,71.8333 84.6667,80.1667 84,88.5C 81.8328,91.2868 78.9994,92.1201 75.5,91C 74.3333,90.5 73.5,89.6667 73,88.5C 72.3333,80.5 72.3333,72.5 73,64.5C 73.5133,63.4734 74.0133,62.4734 74.5,61.5 Z"/></g>
<g><path style="opacity:1" fill="#55bc56" d="M 76.5,69.5 C 78.288,69.2148 79.9547,69.5481 81.5,70.5C 80.6667,70.8333 79.8333,71.1667 79,71.5C 77.6244,71.3158 76.7911,70.6491 76.5,69.5 Z"/></g>
<g><path style="opacity:1" fill="#55bc56" d="M 76.5,81.5 C 78.288,81.2148 79.9547,81.5481 81.5,82.5C 80.6667,82.8333 79.8333,83.1667 79,83.5C 77.6244,83.3158 76.7911,82.6491 76.5,81.5 Z"/></g>
<g><path style="opacity:1" fill="#4d4d4d" d="M 36.5,90.5 C 46.8548,90.1681 57.1881,90.5014 67.5,91.5C 62.3333,91.8333 57.1667,92.1667 52,92.5C 46.4543,92.4946 41.2876,91.8279 36.5,90.5 Z"/></g>
<g><path style="opacity:1" fill="#3c3f3b" d="M 39.5,103.5 C 46.1667,103.5 52.8333,103.5 59.5,103.5C 59.0825,104.222 58.4158,104.722 57.5,105C 51.8333,105.667 46.1667,105.667 40.5,105C 39.944,104.617 39.6107,104.117 39.5,103.5 Z"/></g>
</svg>
