<?xml version="1.0" encoding="UTF-8"?>
<!DOCTYPE svg PUBLIC "-//W3C//DTD SVG 1.1//EN" "http://www.w3.org/Graphics/SVG/1.1/DTD/svg11.dtd">
<svg xmlns="http://www.w3.org/2000/svg" version="1.1" width="148px" height="148px" style="shape-rendering:geometricPrecision; text-rendering:geometricPrecision; image-rendering:optimizeQuality; fill-rule:evenodd; clip-rule:evenodd" xmlns:xlink="http://www.w3.org/1999/xlink">
<g><path style="opacity:0.984" fill="#009200" d="M 61.5,-0.5 C 69.5,-0.5 77.5,-0.5 85.5,-0.5C 119.167,7.16667 139.833,27.8333 147.5,61.5C 147.5,69.5 147.5,77.5 147.5,85.5C 139.833,119.167 119.167,139.833 85.5,147.5C 77.5,147.5 69.5,147.5 61.5,147.5C 27.8333,139.833 7.16667,119.167 -0.5,85.5C -0.5,77.5 -0.5,69.5 -0.5,61.5C 7.16667,27.8333 27.8333,7.16667 61.5,-0.5 Z"/></g>
<g><path style="opacity:1" fill="#f3f5f3" d="M 62.5,14.5 C 69.8409,14.3337 77.1742,14.5003 84.5,15C 86.915,16.4653 87.915,18.632 87.5,21.5C 91.5,22.1667 91.5,22.8333 87.5,23.5C 87.5,26.1667 87.5,28.8333 87.5,31.5C 92.9212,31.6547 94.9212,34.4881 93.5,40C 93.5571,42.9597 93.0571,45.793 92,48.5C 90.6439,49.3802 89.1439,49.7135 87.5,49.5C 87.6709,51.9928 86.6709,53.8261 84.5,55C 77.1667,55.6667 69.8333,55.6667 62.5,55C 60.3291,53.8261 59.3291,51.9928 59.5,49.5C 57.8561,49.7135 56.3561,49.3802 55,48.5C 53.4453,43.6178 53.112,38.6178 54,33.5C 55.4443,31.8446 57.2776,31.178 59.5,31.5C 59.5,28.8333 59.5,26.1667 59.5,23.5C 58.448,23.6495 57.448,23.4828 56.5,23C 58.7103,20.2658 60.7103,17.4325 62.5,14.5 Z"/></g>
<g><path style="opacity:1" fill="#4e504e" d="M 64.5,15.5 C 70.5092,15.3338 76.5092,15.5005 82.5,16C 85.1667,18.6667 85.1667,21.3333 82.5,24C 76.5,24.6667 70.5,24.6667 64.5,24C 61.8987,21.1705 61.8987,18.3371 64.5,15.5 Z"/></g>
<g><path style="opacity:1" fill="#55bb56" d="M 68.5,17.5 C 69.5862,17.62 70.2528,18.2867 70.5,19.5C 70.1667,20.1667 69.8333,20.8333 69.5,21.5C 68.5713,20.3112 68.238,18.9778 68.5,17.5 Z"/></g>
<g><path style="opacity:1" fill="#4e4e4e" d="M 83.5,27.5 C 84.8222,30.7681 85.4888,34.4348 85.5,38.5C 85.1667,42.1667 84.8333,45.8333 84.5,49.5C 83.5027,42.1968 83.1694,34.8635 83.5,27.5 Z"/></g>
<g><path style="opacity:1" fill="#55c256" d="M 70.5,62.5 C 72.9267,62.523 75.26,63.023 77.5,64C 87.7439,73.7407 97.4106,83.9074 106.5,94.5C 106.24,96.1871 105.573,97.6871 104.5,99C 100.658,99.9563 96.8246,100.79 93,101.5C 92.6667,109.5 92.3333,117.5 92,125.5C 91.2614,128.573 89.4281,130.74 86.5,132C 76.7328,132.947 67.0661,132.613 57.5,131C 56.6667,130.167 55.8333,129.333 55,128.5C 54.6667,119.833 54.3333,111.167 54,102.5C 53.5,102 53,101.5 52.5,101C 49.1667,100.667 45.8333,100.333 42.5,100C 39.2091,97.668 38.7091,94.8347 41,91.5C 50.7284,81.6039 60.5618,71.9372 70.5,62.5 Z"/></g>
</svg>
