<?xml version="1.0" encoding="UTF-8"?>
<!DOCTYPE svg PUBLIC "-//W3C//DTD SVG 1.1//EN" "http://www.w3.org/Graphics/SVG/1.1/DTD/svg11.dtd">
<svg xmlns="http://www.w3.org/2000/svg" version="1.1" width="148px" height="147px" style="shape-rendering:geometricPrecision; text-rendering:geometricPrecision; image-rendering:optimizeQuality; fill-rule:evenodd; clip-rule:evenodd" xmlns:xlink="http://www.w3.org/1999/xlink">
<g><path style="opacity:0.981" fill="#049202" d="M 61.5,-0.5 C 69.5,-0.5 77.5,-0.5 85.5,-0.5C 118.73,7.06352 139.397,27.3969 147.5,60.5C 147.5,68.8333 147.5,77.1667 147.5,85.5C 139.397,118.603 118.73,138.936 85.5,146.5C 77.5,146.5 69.5,146.5 61.5,146.5C 28.2698,138.936 7.60315,118.603 -0.5,85.5C -0.5,77.1667 -0.5,68.8333 -0.5,60.5C 7.60315,27.3969 28.2698,7.06352 61.5,-0.5 Z"/></g>
<g><path style="opacity:1" fill="#f6fbf6" d="M 72.5,9.5 C 73.8221,9.33003 74.9887,9.66337 76,10.5C 76.6667,15.1667 76.6667,19.8333 76,24.5C 74.6667,25.8333 73.3333,25.8333 72,24.5C 71.2223,19.4158 71.3889,14.4158 72.5,9.5 Z"/></g>
<g><path style="opacity:1" fill="#f5fbf5" d="M 33.5,26.5 C 37.4023,28.8926 40.9023,31.8926 44,35.5C 44.089,39.71 42.2557,40.5433 38.5,38C 36.3256,34.9964 33.9923,32.1631 31.5,29.5C 31.9424,28.2613 32.6091,27.2613 33.5,26.5 Z"/></g>
<g><path style="opacity:1" fill="#eff8ee" d="M 112.5,26.5 C 116.071,26.4077 117.238,28.0743 116,31.5C 113.5,34 111,36.5 108.5,39C 104.889,40.2542 103.389,39.0876 104,35.5C 107.038,32.6306 109.871,29.6306 112.5,26.5 Z"/></g>
<g><path style="opacity:1" fill="#f8fcf8" d="M 66.5,31.5 C 92.0412,30.5886 106.375,42.7553 109.5,68C 108.879,74.5307 107.045,80.6974 104,86.5C 99.2097,92.5757 95.043,99.0757 91.5,106C 79.5,106.667 67.5,106.667 55.5,106C 51.0631,97.902 46.2297,90.0686 41,82.5C 33.5316,57.4367 42.0316,40.4367 66.5,31.5 Z"/></g>
<g><path style="opacity:1" fill="#0b9307" d="M 68.5,39.5 C 85.2794,38.9583 96.1128,46.6249 101,62.5C 101.639,67.9796 100.972,73.3129 99,78.5C 95.2075,85.2545 91.0409,91.7545 86.5,98C 77.8333,98.6667 69.1667,98.6667 60.5,98C 56.4581,91.4152 52.2914,84.9152 48,78.5C 42.747,59.0017 49.5803,46.0017 68.5,39.5 Z"/></g>
<g><path style="opacity:1" fill="#f6fbf6" d="M 16.5,63.5 C 20.8461,63.3343 25.1794,63.501 29.5,64C 32.0026,65.7839 32.0026,67.4506 29.5,69C 25.1667,69.6667 20.8333,69.6667 16.5,69C 15.2475,67.1722 15.2475,65.3388 16.5,63.5 Z"/></g>
<g><path style="opacity:1" fill="#f6fbf6" d="M 116.5,63.5 C 120.846,63.3343 125.179,63.501 129.5,64C 132.003,65.7839 132.003,67.4506 129.5,69C 125.167,69.6667 120.833,69.6667 116.5,69C 115.248,67.1722 115.248,65.3388 116.5,63.5 Z"/></g>
<g><path style="opacity:1" fill="#f1f9f1" d="M 104.5,93.5 C 108.981,95.4591 112.815,98.4591 116,102.5C 117.254,106.111 116.088,107.611 112.5,107C 109.667,104.167 106.833,101.333 104,98.5C 103.616,96.8034 103.782,95.1368 104.5,93.5 Z"/></g>
<g><path style="opacity:1" fill="#f8fcf8" d="M 40.5,94.5 C 43.3422,94.5283 44.5088,95.8617 44,98.5C 41.1667,101.333 38.3333,104.167 35.5,107C 32.3333,107.833 31.1667,106.667 32,103.5C 35.0379,100.631 37.8712,97.6306 40.5,94.5 Z"/></g>
<g><path style="opacity:1" fill="#fafdfa" d="M 59.5,112.5 C 69.1724,112.334 78.8391,112.5 88.5,113C 91.1667,115.333 91.1667,117.667 88.5,120C 78.8333,120.667 69.1667,120.667 59.5,120C 56.9142,117.506 56.9142,115.006 59.5,112.5 Z"/></g>
<g><path style="opacity:1" fill="#f8fcf7" d="M 64.5,127.5 C 70.3188,126.347 76.3188,126.181 82.5,127C 79.8109,133.701 75.1442,135.701 68.5,133C 66.5313,131.5 65.198,129.667 64.5,127.5 Z"/></g>
</svg>
