<?xml version="1.0" encoding="UTF-8"?>
<!DOCTYPE svg PUBLIC "-//W3C//DTD SVG 1.1//EN" "http://www.w3.org/Graphics/SVG/1.1/DTD/svg11.dtd">
<svg xmlns="http://www.w3.org/2000/svg" version="1.1" width="147px" height="148px" style="shape-rendering:geometricPrecision; text-rendering:geometricPrecision; image-rendering:optimizeQuality; fill-rule:evenodd; clip-rule:evenodd" xmlns:xlink="http://www.w3.org/1999/xlink">
<g><path style="opacity:0.985" fill="#009200" d="M 61.5,-0.5 C 69.1667,-0.5 76.8333,-0.5 84.5,-0.5C 118.154,7.1539 138.821,27.8206 146.5,61.5C 146.5,69.5 146.5,77.5 146.5,85.5C 138.821,119.179 118.154,139.846 84.5,147.5C 76.8333,147.5 69.1667,147.5 61.5,147.5C 27.8461,139.846 7.17944,119.179 -0.5,85.5C -0.5,77.5 -0.5,69.5 -0.5,61.5C 7.17944,27.8206 27.8461,7.1539 61.5,-0.5 Z"/></g>
<g><path style="opacity:1" fill="#3b3f3b" d="M 35.5,50.5 C 29.8333,50.5 24.1667,50.5 18.5,50.5C 18.6107,49.8826 18.944,49.3826 19.5,49C 24.5,48.3333 29.5,48.3333 34.5,49C 35.056,49.3826 35.3893,49.8826 35.5,50.5 Z"/></g>
<g><path style="opacity:1" fill="#fdfefd" d="M 18.5,50.5 C 24.1667,50.5 29.8333,50.5 35.5,50.5C 37.2798,51.9899 37.9465,53.9899 37.5,56.5C 40.8333,56.5 44.1667,56.5 47.5,56.5C 48.1667,52.5 48.8333,52.5 49.5,56.5C 54.2065,55.8811 56.8732,57.8811 57.5,62.5C 47.6113,58.5408 43.9446,62.0408 46.5,73C 43.9446,83.9592 47.6113,87.4592 57.5,83.5C 56.8732,88.1189 54.2065,90.1189 49.5,89.5C 48.8333,93.5 48.1667,93.5 47.5,89.5C 44.1667,89.5 40.8333,89.5 37.5,89.5C 37.9465,92.0101 37.2798,94.0101 35.5,95.5C 29.8333,95.5 24.1667,95.5 18.5,95.5C 16.7202,94.0101 16.0535,92.0101 16.5,89.5C 13.6755,89.9193 11.5088,88.9193 10,86.5C 9.33333,77.5 9.33333,68.5 10,59.5C 11.5088,57.0807 13.6755,56.0807 16.5,56.5C 16.0535,53.9899 16.7202,51.9899 18.5,50.5 Z"/></g>
<g><path style="opacity:1" fill="#4e4e4e" d="M 16.5,59.5 C 25.1922,59.1686 33.8589,59.502 42.5,60.5C 38.1667,60.8333 33.8333,61.1667 29.5,61.5C 24.7784,61.4921 20.4451,60.8255 16.5,59.5 Z"/></g>
<g><path style="opacity:1" fill="#505350" d="M 57.5,62.5 C 57.5,69.5 57.5,76.5 57.5,83.5C 47.6113,87.4592 43.9446,83.9592 46.5,73C 43.9446,62.0408 47.6113,58.5408 57.5,62.5 Z"/></g>
<g><path style="opacity:1" fill="#000000" d="M 63.5,68.5 C 89.8333,68.5 116.167,68.5 142.5,68.5C 142.5,72.5 142.5,76.5 142.5,80.5C 116.167,80.5 89.8333,80.5 63.5,80.5C 63.5,76.5 63.5,72.5 63.5,68.5 Z"/></g>
<g><path style="opacity:1" fill="#4e4e4e" d="M 16.5,84.5 C 25.1922,84.1686 33.8589,84.502 42.5,85.5C 38.1667,85.8333 33.8333,86.1667 29.5,86.5C 24.7784,86.4921 20.4451,85.8255 16.5,84.5 Z"/></g>
<g><path style="opacity:1" fill="#3b3f3b" d="M 18.5,95.5 C 24.1667,95.5 29.8333,95.5 35.5,95.5C 35.3893,96.1174 35.056,96.6174 34.5,97C 29.5,97.6667 24.5,97.6667 19.5,97C 18.944,96.6174 18.6107,96.1174 18.5,95.5 Z"/></g>
</svg>
