<?xml version="1.0" encoding="UTF-8"?>
<!DOCTYPE svg PUBLIC "-//W3C//DTD SVG 1.1//EN" "http://www.w3.org/Graphics/SVG/1.1/DTD/svg11.dtd">
<svg xmlns="http://www.w3.org/2000/svg" version="1.1" width="148px" height="147px" style="shape-rendering:geometricPrecision; text-rendering:geometricPrecision; image-rendering:optimizeQuality; fill-rule:evenodd; clip-rule:evenodd" xmlns:xlink="http://www.w3.org/1999/xlink">
<g><path style="opacity:0.985" fill="#009200" d="M 61.5,-0.5 C 69.5,-0.5 77.5,-0.5 85.5,-0.5C 118.73,7.06352 139.397,27.3969 147.5,60.5C 147.5,68.8333 147.5,77.1667 147.5,85.5C 139.397,118.603 118.73,138.936 85.5,146.5C 77.5,146.5 69.5,146.5 61.5,146.5C 28.2698,138.936 7.60315,118.603 -0.5,85.5C -0.5,77.1667 -0.5,68.8333 -0.5,60.5C 7.60315,27.3969 28.2698,7.06352 61.5,-0.5 Z"/></g>
<g><path style="opacity:1" fill="#3b3e3b" d="M 73.5,52.5 C 67.8333,52.5 62.1667,52.5 56.5,52.5C 56.6107,51.8826 56.944,51.3826 57.5,51C 62.1667,50.3333 66.8333,50.3333 71.5,51C 72.4158,51.2784 73.0825,51.7784 73.5,52.5 Z"/></g>
<g><path style="opacity:1" fill="#fdfefd" d="M 56.5,52.5 C 62.1667,52.5 67.8333,52.5 73.5,52.5C 75.2798,53.9899 75.9465,55.9899 75.5,58.5C 78.8333,58.5 82.1667,58.5 85.5,58.5C 86.1667,54.5 86.8333,54.5 87.5,58.5C 90.6516,57.9586 93.1516,58.9586 95,61.5C 95.6667,70.5 95.6667,79.5 95,88.5C 93.1516,91.0414 90.6516,92.0414 87.5,91.5C 86.8333,95.5 86.1667,95.5 85.5,91.5C 82.1667,91.5 78.8333,91.5 75.5,91.5C 75.9465,94.0101 75.2798,96.0101 73.5,97.5C 67.8333,97.5 62.1667,97.5 56.5,97.5C 54.7202,96.0101 54.0535,94.0101 54.5,91.5C 51.6755,91.9193 49.5088,90.9193 48,88.5C 47.3333,79.5 47.3333,70.5 48,61.5C 49.5088,59.0807 51.6755,58.0807 54.5,58.5C 54.0535,55.9899 54.7202,53.9899 56.5,52.5 Z"/></g>
<g><path style="opacity:1" fill="#4e4e4e" d="M 54.5,61.5 C 63.1922,61.1686 71.8589,61.502 80.5,62.5C 76.1667,62.8333 71.8333,63.1667 67.5,63.5C 62.7784,63.4921 58.4451,62.8255 54.5,61.5 Z"/></g>
<g><path style="opacity:1" fill="#4f524e" d="M 86.5,62.5 C 89.3646,62.0548 91.8646,62.7215 94,64.5C 94.6667,71.5 94.6667,78.5 94,85.5C 91,88.1667 88,88.1667 85,85.5C 84.3333,78.5 84.3333,71.5 85,64.5C 85.7172,63.9558 86.2172,63.2891 86.5,62.5 Z"/></g>
<g><path style="opacity:1" fill="#000000" d="M 3.5,67.5 C 14.1667,67.5 24.8333,67.5 35.5,67.5C 35.5,71.5 35.5,75.5 35.5,79.5C 24.8333,79.5 14.1667,79.5 3.5,79.5C 3.5,75.5 3.5,71.5 3.5,67.5 Z"/></g>
<g><path style="opacity:1" fill="#000000" d="M 110.5,67.5 C 121.167,67.5 131.833,67.5 142.5,67.5C 142.5,71.5 142.5,75.5 142.5,79.5C 131.833,79.5 121.167,79.5 110.5,79.5C 110.5,75.5 110.5,71.5 110.5,67.5 Z"/></g>
<g><path style="opacity:1" fill="#4e4e4e" d="M 54.5,86.5 C 63.1922,86.1686 71.8589,86.502 80.5,87.5C 76.1667,87.8333 71.8333,88.1667 67.5,88.5C 62.7784,88.4921 58.4451,87.8255 54.5,86.5 Z"/></g>
<g><path style="opacity:1" fill="#3b3f3b" d="M 56.5,97.5 C 62.1667,97.5 67.8333,97.5 73.5,97.5C 73.3893,98.1174 73.056,98.6174 72.5,99C 67.5,99.6667 62.5,99.6667 57.5,99C 56.944,98.6174 56.6107,98.1174 56.5,97.5 Z"/></g>
</svg>
