<?xml version="1.0" encoding="UTF-8"?>
<!DOCTYPE svg PUBLIC "-//W3C//DTD SVG 1.1//EN" "http://www.w3.org/Graphics/SVG/1.1/DTD/svg11.dtd">
<svg xmlns="http://www.w3.org/2000/svg" version="1.1" width="147px" height="147px" style="shape-rendering:geometricPrecision; text-rendering:geometricPrecision; image-rendering:optimizeQuality; fill-rule:evenodd; clip-rule:evenodd" xmlns:xlink="http://www.w3.org/1999/xlink">
<g><path style="opacity:0.984" fill="#009200" d="M 61.5,-0.5 C 69.1667,-0.5 76.8333,-0.5 84.5,-0.5C 117.718,7.05069 138.384,27.384 146.5,60.5C 146.5,68.8333 146.5,77.1667 146.5,85.5C 138.384,118.616 117.718,138.949 84.5,146.5C 76.8333,146.5 69.1667,146.5 61.5,146.5C 28.2825,138.949 7.61579,118.616 -0.5,85.5C -0.5,77.1667 -0.5,68.8333 -0.5,60.5C 7.61579,27.384 28.2825,7.05069 61.5,-0.5 Z"/></g>
<g><path style="opacity:1" fill="#000000" d="M 68.5,4.5 C 72.1667,4.5 75.8333,4.5 79.5,4.5C 79.5,25.5 79.5,46.5 79.5,67.5C 100.5,67.5 121.5,67.5 142.5,67.5C 142.5,71.5 142.5,75.5 142.5,79.5C 121.5,79.5 100.5,79.5 79.5,79.5C 79.5,100.5 79.5,121.5 79.5,142.5C 75.8333,142.5 72.1667,142.5 68.5,142.5C 68.5,121.5 68.5,100.5 68.5,79.5C 66.5,79.5 64.5,79.5 62.5,79.5C 62.5,75.5 62.5,71.5 62.5,67.5C 64.5,67.5 66.5,67.5 68.5,67.5C 68.5,46.5 68.5,25.5 68.5,4.5 Z"/></g>
<g><path style="opacity:1" fill="#f8f9f8" d="M 19.5,48.5 C 24.5111,48.3341 29.5111,48.5007 34.5,49C 37.1446,50.2865 38.1446,52.4532 37.5,55.5C 40.8333,55.5 44.1667,55.5 47.5,55.5C 48.1667,51.5 48.8333,51.5 49.5,55.5C 52.505,55.253 55.005,56.253 57,58.5C 57.6667,67.8333 57.6667,77.1667 57,86.5C 55.1516,89.0414 52.6516,90.0414 49.5,89.5C 48.8333,93.5 48.1667,93.5 47.5,89.5C 44.1667,89.5 40.8333,89.5 37.5,89.5C 37.7394,91.4672 37.4061,93.3005 36.5,95C 30.1667,97 23.8333,97 17.5,95C 16.5939,93.3005 16.2606,91.4672 16.5,89.5C 13.6755,89.9193 11.5088,88.9193 10,86.5C 9.33333,77.1667 9.33333,67.8333 10,58.5C 11.5088,56.0807 13.6755,55.0807 16.5,55.5C 15.9093,52.3247 16.9093,49.9913 19.5,48.5 Z"/></g>
<g><path style="opacity:1" fill="#4e4e4e" d="M 15.5,58.5 C 24.1922,58.1686 32.8589,58.502 41.5,59.5C 37.1667,59.8333 32.8333,60.1667 28.5,60.5C 23.7784,60.4921 19.4451,59.8255 15.5,58.5 Z"/></g>
<g><path style="opacity:1" fill="#4e4e4e" d="M 48.5,59.5 C 51.3646,59.0548 53.8646,59.7215 56,61.5C 56.6667,68.5 56.6667,75.5 56,82.5C 53,85.1667 50,85.1667 47,82.5C 46.3333,75.5 46.3333,68.5 47,61.5C 47.7172,60.9558 48.2172,60.2891 48.5,59.5 Z"/></g>
<g><path style="opacity:1" fill="#55bc56" d="M 49.5,66.5 C 51.288,66.2148 52.9547,66.5481 54.5,67.5C 53.6667,67.8333 52.8333,68.1667 52,68.5C 50.6244,68.3158 49.7911,67.6491 49.5,66.5 Z"/></g>
<g><path style="opacity:1" fill="#55bc56" d="M 49.5,76.5 C 51.288,76.2148 52.9547,76.5481 54.5,77.5C 53.6667,77.8333 52.8333,78.1667 52,78.5C 50.6244,78.3158 49.7911,77.6491 49.5,76.5 Z"/></g>
<g><path style="opacity:1" fill="#4e4e4e" d="M 15.5,84.5 C 24.1922,84.1686 32.8589,84.502 41.5,85.5C 37.1667,85.8333 32.8333,86.1667 28.5,86.5C 23.7784,86.4921 19.4451,85.8255 15.5,84.5 Z"/></g>
</svg>
