<?xml version="1.0" encoding="UTF-8"?>
<!DOCTYPE svg PUBLIC "-//W3C//DTD SVG 1.1//EN" "http://www.w3.org/Graphics/SVG/1.1/DTD/svg11.dtd">
<svg xmlns="http://www.w3.org/2000/svg" version="1.1" width="148px" height="147px" style="shape-rendering:geometricPrecision; text-rendering:geometricPrecision; image-rendering:optimizeQuality; fill-rule:evenodd; clip-rule:evenodd" xmlns:xlink="http://www.w3.org/1999/xlink">
<g><path style="opacity:0.982" fill="#049203" d="M 61.5,-0.5 C 69.5,-0.5 77.5,-0.5 85.5,-0.5C 118.73,7.06352 139.397,27.3969 147.5,60.5C 147.5,68.8333 147.5,77.1667 147.5,85.5C 139.397,118.603 118.73,138.936 85.5,146.5C 77.5,146.5 69.5,146.5 61.5,146.5C 28.2698,138.936 7.60315,118.603 -0.5,85.5C -0.5,77.1667 -0.5,68.8333 -0.5,60.5C 7.60315,27.3969 28.2698,7.06352 61.5,-0.5 Z"/></g>
<g><path style="opacity:1" fill="#fdfefd" d="M 74.5,17.5 C 77.6516,16.9586 80.1516,17.9586 82,20.5C 82.4999,36.8299 82.6666,53.1633 82.5,69.5C 83.5,69.5 84.5,69.5 85.5,69.5C 85.3334,55.8293 85.5001,42.1626 86,28.5C 89.3333,24.5 92.6667,24.5 96,28.5C 96.3333,45.8333 96.6667,63.1667 97,80.5C 98.6817,72.7352 100.682,65.0686 103,57.5C 105.971,53.9083 109.304,53.5749 113,56.5C 113.923,58.0344 114.423,59.701 114.5,61.5C 111.69,73.0966 109.19,84.7633 107,96.5C 102.31,101.854 96.9765,106.521 91,110.5C 90.5017,113.817 90.335,117.15 90.5,120.5C 78.1667,120.5 65.8333,120.5 53.5,120.5C 54.7324,112.972 52.5657,106.639 47,101.5C 45.4379,99.0427 44.4379,96.376 44,93.5C 43.3333,76.1667 43.3333,58.8333 44,41.5C 47.048,37.9905 50.3813,37.6572 54,40.5C 54.4998,50.1609 54.6665,59.8276 54.5,69.5C 55.5,69.5 56.5,69.5 57.5,69.5C 57.3334,55.8293 57.5001,42.1626 58,28.5C 61.3807,24.5149 64.714,24.5149 68,28.5C 68.4999,42.1626 68.6666,55.8293 68.5,69.5C 69.5,69.5 70.5,69.5 71.5,69.5C 71.3334,53.1633 71.5001,36.8299 72,20.5C 73.045,19.6266 73.8783,18.6266 74.5,17.5 Z"/></g>
</svg>
