<?xml version="1.0" encoding="UTF-8"?>
<!DOCTYPE svg PUBLIC "-//W3C//DTD SVG 1.1//EN" "http://www.w3.org/Graphics/SVG/1.1/DTD/svg11.dtd">
<svg xmlns="http://www.w3.org/2000/svg" version="1.1" width="148px" height="148px" style="shape-rendering:geometricPrecision; text-rendering:geometricPrecision; image-rendering:optimizeQuality; fill-rule:evenodd; clip-rule:evenodd" xmlns:xlink="http://www.w3.org/1999/xlink">
<g><path style="opacity:0.98" fill="#049201" d="M 61.5,-0.5 C 69.5,-0.5 77.5,-0.5 85.5,-0.5C 119.167,7.16667 139.833,27.8333 147.5,61.5C 147.5,69.5 147.5,77.5 147.5,85.5C 139.833,119.167 119.167,139.833 85.5,147.5C 77.5,147.5 69.5,147.5 61.5,147.5C 27.8333,139.833 7.16667,119.167 -0.5,85.5C -0.5,77.5 -0.5,69.5 -0.5,61.5C 7.16667,27.8333 27.8333,7.16667 61.5,-0.5 Z"/></g>
<g><path style="opacity:1" fill="#ebedec" d="M 81.5,23.5 C 80.1546,27.6465 81.1546,28.3132 84.5,25.5C 92.9355,28.884 100.935,33.0506 108.5,38C 109.944,38.7805 111.277,38.6139 112.5,37.5C 111.451,35.7844 110.118,34.4511 108.5,33.5C 114.167,34.5809 119.334,36.9142 124,40.5C 123.97,46.8371 124.803,53.0038 126.5,59C 124.742,61.2673 124.242,63.7673 125,66.5C 127.016,70.5311 129.016,74.5311 131,78.5C 131.624,83.2233 131.29,87.89 130,92.5C 118.366,97.8228 106.366,102.156 94,105.5C 88.0174,104.26 82.8507,101.593 78.5,97.5C 81.5097,89.3743 82.1764,81.041 80.5,72.5C 80.6659,67.4889 80.4993,62.4889 80,57.5C 78.7292,56.1175 77.2292,55.1175 75.5,54.5C 74.791,53.596 73.791,53.2627 72.5,53.5C 68.6097,50.3875 64.2764,48.0542 59.5,46.5C 59.5,48.5 59.5,50.5 59.5,52.5C 57.8828,51.962 56.2161,51.6287 54.5,51.5C 54.7839,48.2234 54.4505,45.0567 53.5,42C 51.1667,40.8333 48.8333,39.6667 46.5,38.5C 45.5344,40.396 45.2011,42.396 45.5,44.5C 44.3567,41.0242 44.1901,37.3575 45,33.5C 45.5,33 46,32.5 46.5,32C 57.5337,28.9912 68.5337,25.8245 79.5,22.5C 80.4164,22.5427 81.0831,22.8761 81.5,23.5 Z"/></g>
<g><path style="opacity:1" fill="#666768" d="M 108.5,33.5 C 110.118,34.4511 111.451,35.7844 112.5,37.5C 111.277,38.6139 109.944,38.7805 108.5,38C 100.935,33.0506 92.9355,28.884 84.5,25.5C 81.1546,28.3132 80.1546,27.6465 81.5,23.5C 82.9305,23.5792 84.2638,23.2458 85.5,22.5C 93.0669,26.4508 100.734,30.1174 108.5,33.5 Z"/></g>
<g><path style="opacity:1" fill="#69686b" d="M 58.5,29.5 C 64.1258,30.8084 69.4591,32.9751 74.5,36C 77.3388,37.9203 80.3388,39.5869 83.5,41C 85.019,42.3513 86.3523,43.8513 87.5,45.5C 84.4618,46.9832 82.1285,46.1499 80.5,43C 73.2112,39.689 66.2112,35.8557 59.5,31.5C 58.8333,32.5 58.1667,33.5 57.5,34.5C 56.3482,32.6029 56.6815,30.9362 58.5,29.5 Z"/></g>
<g><path style="opacity:1" fill="#373c40" d="M 54.5,51.5 C 51.5,51.5 48.5,51.5 45.5,51.5C 45.5,49.1667 45.5,46.8333 45.5,44.5C 45.2011,42.396 45.5344,40.396 46.5,38.5C 48.8333,39.6667 51.1667,40.8333 53.5,42C 54.4505,45.0567 54.7839,48.2234 54.5,51.5 Z"/></g>
<g><path style="opacity:1" fill="#373b3b" d="M 72.5,53.5 C 71.6981,54.9516 71.1981,56.6183 71,58.5C 67.502,55.8345 63.6687,53.8345 59.5,52.5C 59.5,50.5 59.5,48.5 59.5,46.5C 64.2764,48.0542 68.6097,50.3875 72.5,53.5 Z"/></g>
<g><path style="opacity:1" fill="#484e52" d="M 115.5,50.5 C 117.167,50.5 118.833,50.5 120.5,50.5C 120.666,55.5111 120.499,60.5111 120,65.5C 111.696,70.9348 102.696,73.9348 93,74.5C 92.1711,69.467 92.3377,64.467 93.5,59.5C 100.739,56.0918 108.072,53.0918 115.5,50.5 Z"/></g>
<g><path style="opacity:1" fill="#f5bc0c" d="M 45.5,51.5 C 48.5,51.5 51.5,51.5 54.5,51.5C 56.2161,51.6287 57.8828,51.962 59.5,52.5C 63.6687,53.8345 67.502,55.8345 71,58.5C 71.1981,56.6183 71.6981,54.9516 72.5,53.5C 73.791,53.2627 74.791,53.596 75.5,54.5C 75.665,57.8499 75.4983,61.1832 75,64.5C 72.6194,65.435 70.1194,65.7683 67.5,65.5C 65.302,65.8799 63.6354,65.2132 62.5,63.5C 63.6808,61.9328 65.3474,61.0995 67.5,61C 65.1332,59.1552 62.4665,57.9886 59.5,57.5C 58.0813,56.5489 56.4147,56.2155 54.5,56.5C 52.5,55.1667 50.5,55.1667 48.5,56.5C 47.5,56.5 46.5,56.5 45.5,56.5C 38.8698,57.6488 33.2031,60.6488 28.5,65.5C 27.5,65.1667 26.8333,64.5 26.5,63.5C 31.4537,57.1964 37.787,53.1964 45.5,51.5 Z"/></g>
<g><path style="opacity:1" fill="#353a3d" d="M 75.5,54.5 C 77.2292,55.1175 78.7292,56.1175 80,57.5C 80.4993,62.4889 80.6659,67.4889 80.5,72.5C 79.3951,71.3995 78.0618,70.7329 76.5,70.5C 72.7158,70.1109 69.7158,68.4442 67.5,65.5C 70.1194,65.7683 72.6194,65.435 75,64.5C 75.4983,61.1832 75.665,57.8499 75.5,54.5 Z"/></g>
<g><path style="opacity:1" fill="#545348" d="M 48.5,56.5 C 50.5,55.1667 52.5,55.1667 54.5,56.5C 54.189,57.4778 53.5223,58.1445 52.5,58.5C 51.1401,57.8201 49.8068,57.1534 48.5,56.5 Z"/></g>
<g><path style="opacity:1" fill="#eaebeb" d="M 45.5,56.5 C 46.5,56.5 47.5,56.5 48.5,56.5C 49.8068,57.1534 51.1401,57.8201 52.5,58.5C 53.5223,58.1445 54.189,57.4778 54.5,56.5C 56.4147,56.2155 58.0813,56.5489 59.5,57.5C 59.0246,60.3126 60.0246,62.3126 62.5,63.5C 63.6354,65.2132 65.302,65.8799 67.5,65.5C 69.7158,68.4442 72.7158,70.1109 76.5,70.5C 76.0766,71.2646 75.7432,72.0979 75.5,73C 77.963,80.2738 77.6296,87.4404 74.5,94.5C 72.4939,93.4892 70.4939,92.4892 68.5,91.5C 65.8702,92.3779 63.2035,93.0445 60.5,93.5C 60.2009,85.9494 58.7009,78.6161 56,71.5C 53.6817,67.3411 50.1817,65.0078 45.5,64.5C 45.5,61.8333 45.5,59.1667 45.5,56.5 Z"/></g>
<g><path style="opacity:1" fill="#3c3f3d" d="M 59.5,57.5 C 62.4665,57.9886 65.1332,59.1552 67.5,61C 65.3474,61.0995 63.6808,61.9328 62.5,63.5C 60.0246,62.3126 59.0246,60.3126 59.5,57.5 Z"/></g>
<g><path style="opacity:1" fill="#0f130f" d="M 45.5,64.5 C 50.1817,65.0078 53.6817,67.3411 56,71.5C 58.7009,78.6161 60.2009,85.9494 60.5,93.5C 57.3051,95.0685 53.9718,95.9018 50.5,96C 46.3768,93.0657 43.7102,89.2323 42.5,84.5C 44.3606,87.0216 46.3606,89.5216 48.5,92C 52.2256,92.9606 54.3922,91.4606 55,87.5C 56.3935,80.3493 54.5602,74.1826 49.5,69C 46.975,68.1041 44.8083,68.6041 43,70.5C 41.7114,73.3508 41.2114,76.3508 41.5,79.5C 40.3862,75.2913 40.5529,70.9579 42,66.5C 42.8159,65.1772 43.9826,64.5106 45.5,64.5 Z"/></g>
<g><path style="opacity:1" fill="#9a9b9d" d="M 42.5,84.5 C 41.962,82.8828 41.6287,81.2161 41.5,79.5C 41.2114,76.3508 41.7114,73.3508 43,70.5C 44.8083,68.6041 46.975,68.1041 49.5,69C 54.5602,74.1826 56.3935,80.3493 55,87.5C 54.3922,91.4606 52.2256,92.9606 48.5,92C 46.3606,89.5216 44.3606,87.0216 42.5,84.5 Z"/></g>
<g><path style="opacity:1" fill="#2a2a2a" d="M 120.5,68.5 C 123.292,68.4521 125.125,69.7854 126,72.5C 127.496,74.4503 127.663,76.4503 126.5,78.5C 120.991,80.5965 115.325,82.0965 109.5,83C 105.995,85.3975 102.161,87.2308 98,88.5C 94.3412,87.38 92.1746,84.88 91.5,81C 91.7591,79.7387 92.4258,78.7387 93.5,78C 102.571,74.7004 111.571,71.5337 120.5,68.5 Z"/></g>
<g><path style="opacity:1" fill="#f3be00" d="M 22.5,70.5 C 23.8221,70.33 24.9887,70.6634 26,71.5C 28.2204,74.54 29.7204,77.8733 30.5,81.5C 28.0968,81.607 26.2635,80.607 25,78.5C 24.1602,95.1566 31.8269,105.49 48,109.5C 48.5378,111.473 47.7044,112.473 45.5,112.5C 28.3668,107.27 19.7002,95.6037 19.5,77.5C 17.9291,78.3094 16.2624,78.6427 14.5,78.5C 14.281,77.325 14.6143,76.325 15.5,75.5C 18.0765,74.0569 20.4099,72.3902 22.5,70.5 Z"/></g>
<g><path style="opacity:1" fill="#f7c014" d="M 76.5,70.5 C 78.0618,70.7329 79.3951,71.3995 80.5,72.5C 82.1764,81.041 81.5097,89.3743 78.5,97.5C 73.9325,103.563 68.2659,108.397 61.5,112C 63.6766,113.186 64.6766,115.019 64.5,117.5C 61.1112,116.309 57.7779,114.809 54.5,113C 53.9781,112.439 53.6448,111.772 53.5,111C 55.1199,108.262 56.6199,105.428 58,102.5C 59.0113,101.663 60.1779,101.33 61.5,101.5C 61.3016,103.575 61.1349,105.575 61,107.5C 67.3241,105.008 71.8241,100.675 74.5,94.5C 77.6296,87.4404 77.963,80.2738 75.5,73C 75.7432,72.0979 76.0766,71.2646 76.5,70.5 Z"/></g>
</svg>
