<?xml version="1.0" encoding="UTF-8"?>
<!DOCTYPE svg PUBLIC "-//W3C//DTD SVG 1.1//EN" "http://www.w3.org/Graphics/SVG/1.1/DTD/svg11.dtd">
<svg xmlns="http://www.w3.org/2000/svg" version="1.1" width="147px" height="147px" style="shape-rendering:geometricPrecision; text-rendering:geometricPrecision; image-rendering:optimizeQuality; fill-rule:evenodd; clip-rule:evenodd" xmlns:xlink="http://www.w3.org/1999/xlink">
<g><path style="opacity:0.985" fill="#019200" d="M 61.5,-0.5 C 69.1667,-0.5 76.8333,-0.5 84.5,-0.5C 117.718,7.05069 138.384,27.384 146.5,60.5C 146.5,68.8333 146.5,77.1667 146.5,85.5C 138.384,118.616 117.718,138.949 84.5,146.5C 76.8333,146.5 69.1667,146.5 61.5,146.5C 28.2825,138.949 7.61579,118.616 -0.5,85.5C -0.5,77.1667 -0.5,68.8333 -0.5,60.5C 7.61579,27.384 28.2825,7.05069 61.5,-0.5 Z"/></g>
<g><path style="opacity:1" fill="#54c255" d="M 41.5,14.5 C 52.6835,13.6194 63.0168,16.1194 72.5,22C 75.7306,24.7273 78.3972,27.894 80.5,31.5C 80.3333,31.8333 80.1667,32.1667 80,32.5C 71.0735,22.2836 60.2402,19.7836 47.5,25C 39.4687,29.8953 35.802,37.062 36.5,46.5C 39.8499,46.335 43.1832,46.5017 46.5,47C 40.2934,52.8755 33.7934,58.3755 27,63.5C 20.7934,57.6245 14.2934,52.1245 7.5,47C 10.8168,46.5017 14.1501,46.335 17.5,46.5C 17.5526,29.7909 25.5526,19.1243 41.5,14.5 Z"/></g>
<g><path style="opacity:1" fill="#f6f7f6" d="M 55.5,81.5 C 55.5,76.8333 55.5,72.1667 55.5,67.5C 56.6354,65.7868 58.302,65.1201 60.5,65.5C 60.5,62.8333 60.5,60.1667 60.5,57.5C 59.448,57.6495 58.448,57.4828 57.5,57C 59.6387,54.4083 61.6387,51.7416 63.5,49C 70.8333,48.3333 78.1667,48.3333 85.5,49C 87.915,50.4653 88.915,52.632 88.5,55.5C 92.5,56.1667 92.5,56.8333 88.5,57.5C 88.5,60.1667 88.5,62.8333 88.5,65.5C 93.9212,65.6547 95.9212,68.4881 94.5,74C 94.5571,76.9597 94.0571,79.793 93,82.5C 91.6439,83.3802 90.1439,83.7135 88.5,83.5C 88.6709,85.9928 87.6709,87.8261 85.5,89C 78.1667,89.6667 70.8333,89.6667 63.5,89C 61.3291,87.8261 60.3291,85.9928 60.5,83.5C 58.302,83.8799 56.6354,83.2132 55.5,81.5 Z"/></g>
<g><path style="opacity:1" fill="#4e504e" d="M 65.5,49.5 C 71.5092,49.3338 77.5092,49.5005 83.5,50C 86.1667,52.6667 86.1667,55.3333 83.5,58C 77.5,58.6667 71.5,58.6667 65.5,58C 62.8987,55.1705 62.8987,52.3371 65.5,49.5 Z"/></g>
<g><path style="opacity:1" fill="#55ba56" d="M 77.5,51.5 C 78.5862,51.62 79.2528,52.2867 79.5,53.5C 79.1667,54.1667 78.8333,54.8333 78.5,55.5C 77.5713,54.3112 77.238,52.9778 77.5,51.5 Z"/></g>
<g><path style="opacity:1" fill="#4e4e4e" d="M 62.5,61.5 C 63.8222,64.7681 64.4888,68.4348 64.5,72.5C 64.1667,76.1667 63.8333,79.8333 63.5,83.5C 62.5027,76.1968 62.1694,68.8635 62.5,61.5 Z"/></g>
<g><path style="opacity:1" fill="#3c3e3c" d="M 55.5,67.5 C 55.5,72.1667 55.5,76.8333 55.5,81.5C 54.8826,81.3893 54.3826,81.056 54,80.5C 53.3333,76.5 53.3333,72.5 54,68.5C 54.3826,67.944 54.8826,67.6107 55.5,67.5 Z"/></g>
<g><path style="opacity:1" fill="#54c255" d="M 111.5,80.5 C 117.814,85.8104 124.147,91.1437 130.5,96.5C 127.572,97.4841 124.572,97.8174 121.5,97.5C 120.833,118.333 109.999,129 89,129.5C 75.7924,129.149 65.6258,123.483 58.5,112.5C 58.6667,112.167 58.8333,111.833 59,111.5C 66.0385,120.403 75.2052,123.57 86.5,121C 97.9419,117.273 103.275,109.439 102.5,97.5C 99.1501,97.665 95.8168,97.4983 92.5,97C 98.7305,91.2617 105.064,85.7617 111.5,80.5 Z"/></g>
</svg>
