<?xml version="1.0" encoding="UTF-8"?>
<!DOCTYPE svg PUBLIC "-//W3C//DTD SVG 1.1//EN" "http://www.w3.org/Graphics/SVG/1.1/DTD/svg11.dtd">
<svg xmlns="http://www.w3.org/2000/svg" version="1.1" width="148px" height="147px" style="shape-rendering:geometricPrecision; text-rendering:geometricPrecision; image-rendering:optimizeQuality; fill-rule:evenodd; clip-rule:evenodd" xmlns:xlink="http://www.w3.org/1999/xlink">
<g><path style="opacity:0.985" fill="#009200" d="M 61.5,-0.5 C 69.5,-0.5 77.5,-0.5 85.5,-0.5C 118.73,7.06352 139.397,27.3969 147.5,60.5C 147.5,68.8333 147.5,77.1667 147.5,85.5C 139.397,118.603 118.73,138.936 85.5,146.5C 77.5,146.5 69.5,146.5 61.5,146.5C 28.2698,138.936 7.60315,118.603 -0.5,85.5C -0.5,77.1667 -0.5,68.8333 -0.5,60.5C 7.60315,27.3969 28.2698,7.06352 61.5,-0.5 Z"/></g>
<g><path style="opacity:1" fill="#55c256" d="M 21.5,54.5 C 23.3904,54.2965 24.8904,54.9632 26,56.5C 26.2362,58.764 26.7362,60.9307 27.5,63C 33.2778,63.0941 38.9445,63.7608 44.5,65C 45.1432,67.746 45.4765,70.5794 45.5,73.5C 45.7009,77.3727 45.0342,81.0394 43.5,84.5C 38.2187,85.2861 32.8854,85.7861 27.5,86C 26.7362,88.0693 26.2362,90.236 26,92.5C 25.2613,93.5742 24.2613,94.2409 23,94.5C 17.0116,89.1797 11.0116,83.8464 5,78.5C 4.5,77 4,75.5 3.5,74C 9.32511,67.3414 15.3251,60.8414 21.5,54.5 Z"/></g>
<g><path style="opacity:1" fill="#54c155" d="M 116.5,54.5 C 124.416,59.4136 131.083,65.747 136.5,73.5C 131.947,80.7253 126.281,87.0586 119.5,92.5C 118.167,93.8333 116.833,93.8333 115.5,92.5C 114.526,90.2573 114.192,87.924 114.5,85.5C 109.156,85.666 103.823,85.4994 98.5,85C 97.6667,84.1667 96.8333,83.3333 96,82.5C 95.3333,76.8333 95.3333,71.1667 96,65.5C 96.8333,64.6667 97.6667,63.8333 98.5,63C 103.823,62.5006 109.156,62.334 114.5,62.5C 114.132,59.4669 114.798,56.8002 116.5,54.5 Z"/></g>
<g><path style="opacity:1" fill="#f1f2f1" d="M 85.5,67.5 C 79.2428,64.0658 76.9095,66.0658 78.5,73.5C 78.5505,76.223 78.8839,78.8896 79.5,81.5C 81.7568,82.7698 83.7568,82.4364 85.5,80.5C 85.6495,81.552 85.4828,82.552 85,83.5C 83.1246,84.7424 81.2913,86.0758 79.5,87.5C 77.4775,85.8267 75.1441,85.1601 72.5,85.5C 72.7733,87.451 72.1066,88.951 70.5,90C 67.1667,90.6667 63.8333,90.6667 60.5,90C 59.1671,87.4186 57.3337,85.2519 55,83.5C 54.3333,77.5 54.3333,71.5 55,65.5C 57.3337,63.7481 59.1671,61.5814 60.5,59C 63.8333,58.3333 67.1667,58.3333 70.5,59C 72.0368,60.1096 72.7035,61.6096 72.5,63.5C 75.1441,63.8399 77.4775,63.1733 79.5,61.5C 80.5904,62.727 81.9238,63.5604 83.5,64C 84.8228,64.8159 85.4894,65.9826 85.5,67.5 Z"/></g>
<g><path style="opacity:1" fill="#515550" d="M 85.5,67.5 C 85.5,71.8333 85.5,76.1667 85.5,80.5C 83.7568,82.4364 81.7568,82.7698 79.5,81.5C 78.8839,78.8896 78.5505,76.223 78.5,73.5C 76.9095,66.0658 79.2428,64.0658 85.5,67.5 Z"/></g>
<g><path style="opacity:1" fill="#4f4f4f" d="M 58.5,81.5 C 64.2055,81.1712 69.8722,81.5046 75.5,82.5C 72.6667,82.8333 69.8333,83.1667 67,83.5C 63.7485,83.4809 60.9151,82.8142 58.5,81.5 Z"/></g>
</svg>
