<?xml version="1.0" encoding="UTF-8"?>
<!DOCTYPE svg PUBLIC "-//W3C//DTD SVG 1.1//EN" "http://www.w3.org/Graphics/SVG/1.1/DTD/svg11.dtd">
<svg xmlns="http://www.w3.org/2000/svg" version="1.1" width="147px" height="148px" style="shape-rendering:geometricPrecision; text-rendering:geometricPrecision; image-rendering:optimizeQuality; fill-rule:evenodd; clip-rule:evenodd" xmlns:xlink="http://www.w3.org/1999/xlink">
<g><path style="opacity:0.981" fill="#009100" d="M 61.5,-0.5 C 69.1667,-0.5 76.8333,-0.5 84.5,-0.5C 118.154,7.1539 138.821,27.8206 146.5,61.5C 146.5,69.5 146.5,77.5 146.5,85.5C 138.821,119.179 118.154,139.846 84.5,147.5C 76.8333,147.5 69.1667,147.5 61.5,147.5C 27.8461,139.846 7.17944,119.179 -0.5,85.5C -0.5,77.5 -0.5,69.5 -0.5,61.5C 7.17944,27.8206 27.8461,7.1539 61.5,-0.5 Z"/></g>
<g><path style="opacity:1" fill="#035e02" d="M 65.5,30.5 C 91.5791,29.1101 108.412,40.7768 116,65.5C 117.959,93.8591 105.125,111.026 77.5,117C 54.2395,118.292 38.4062,108.125 30,86.5C 25.4246,57.2992 37.2579,38.6325 65.5,30.5 Z"/></g>
<g><path style="opacity:1" fill="#fafcfa" d="M 66.5,43.5 C 84.5561,42.4358 96.3894,50.4358 102,67.5C 103.851,85.9765 96.0175,98.1432 78.5,104C 61.6979,106.018 50.1979,99.1846 44,83.5C 40.3667,63.756 47.8667,50.4226 66.5,43.5 Z"/></g>
<g><path style="opacity:1" fill="#0c6008" d="M 68.5,58.5 C 84.5584,59.3762 90.0584,67.3762 85,82.5C 76.6324,91.746 68.2991,91.746 60,82.5C 55.1961,71.7776 58.0295,63.7776 68.5,58.5 Z"/></g>
<g><path style="opacity:1" fill="#ecf3ec" d="M 65.5,72.5 C 73.8185,72.9869 75.4851,76.4869 70.5,83C 62.0878,82.8117 60.4211,79.3117 65.5,72.5 Z"/></g>
</svg>
