<?xml version="1.0" encoding="UTF-8"?>
<!DOCTYPE svg PUBLIC "-//W3C//DTD SVG 1.1//EN" "http://www.w3.org/Graphics/SVG/1.1/DTD/svg11.dtd">
<svg xmlns="http://www.w3.org/2000/svg" version="1.1" width="147px" height="147px" style="shape-rendering:geometricPrecision; text-rendering:geometricPrecision; image-rendering:optimizeQuality; fill-rule:evenodd; clip-rule:evenodd" xmlns:xlink="http://www.w3.org/1999/xlink">
<g><path style="opacity:0.984" fill="#019201" d="M 61.5,-0.5 C 69.1667,-0.5 76.8333,-0.5 84.5,-0.5C 117.718,7.05069 138.384,27.384 146.5,60.5C 146.5,68.8333 146.5,77.1667 146.5,85.5C 138.384,118.616 117.718,138.949 84.5,146.5C 76.8333,146.5 69.1667,146.5 61.5,146.5C 28.2825,138.949 7.61579,118.616 -0.5,85.5C -0.5,77.1667 -0.5,68.8333 -0.5,60.5C 7.61579,27.384 28.2825,7.05069 61.5,-0.5 Z"/></g>
<g><path style="opacity:1" fill="#54c255" d="M 64.5,22.5 C 88.6981,20.1781 106.531,29.5114 118,50.5C 119.734,54.017 120.401,57.6836 120,61.5C 113.769,40.6297 99.936,32.4631 78.5,37C 62.804,44.5507 55.804,57.0507 57.5,74.5C 62.5111,74.3341 67.5111,74.5007 72.5,75C 63,84.5 53.5,94 44,103.5C 34.5712,93.6893 25.0712,84.1893 15.5,75C 20.8229,74.5006 26.1563,74.334 31.5,74.5C 29.0712,57.6152 34.0712,43.4485 46.5,32C 52.1503,28.01 58.1503,24.8433 64.5,22.5 Z"/></g>
<g><path style="opacity:1" fill="#f8faf8" d="M 123.5,69.5 C 123.75,71.674 124.75,73.3406 126.5,74.5C 126.75,76.674 127.75,78.3406 129.5,79.5C 131.091,82.6651 130.091,84.9984 126.5,86.5C 128.105,89.5803 127.438,92.0803 124.5,94C 119.167,97 113.833,100 108.5,103C 105.593,103.854 103.26,103.021 101.5,100.5C 99.9291,101.309 98.2624,101.643 96.5,101.5C 95.9213,98.6689 94.588,96.3356 92.5,94.5C 92.2503,92.326 91.2503,90.6594 89.5,89.5C 89.8881,87.3153 90.8881,85.482 92.5,84C 91.8037,82.1072 90.9704,80.2738 90,78.5C 88.8647,78.273 87.698,77.9396 86.5,77.5C 87.7585,75.3516 87.7585,73.1849 86.5,71C 87.0717,68.9264 88.405,67.7598 90.5,67.5C 88.6505,71.4043 89.8171,74.0709 94,75.5C 99.3152,73.0097 104.315,70.0097 109,66.5C 110.006,61.8215 108.172,59.4882 103.5,59.5C 105.119,57.7615 107.119,57.2615 109.5,58C 110.813,60.3258 112.813,61.6592 115.5,62C 114.833,62.6667 114.167,63.3333 113.5,64C 115,66.1667 116.5,68.3333 118,70.5C 119.7,68.7011 121.533,68.3677 123.5,69.5 Z"/></g>
<g><path style="opacity:1" fill="#535553" d="M 103.5,59.5 C 108.172,59.4882 110.006,61.8215 109,66.5C 104.315,70.0097 99.3152,73.0097 94,75.5C 89.8171,74.0709 88.6505,71.4043 90.5,67.5C 94.2951,64.0955 98.6285,61.4288 103.5,59.5 Z"/></g>
<g><path style="opacity:1" fill="#54a154" d="M 101.5,64.5 C 102.189,63.2264 103.023,63.2264 104,64.5C 104.667,65.5 104.667,66.5 104,67.5C 103.148,66.4293 102.315,65.4293 101.5,64.5 Z"/></g>
<g><path style="opacity:1" fill="#55b255" d="M 94.5,67.5 C 96.2252,67.8425 96.7252,68.8425 96,70.5C 94.9614,69.7562 94.4614,68.7562 94.5,67.5 Z"/></g>
<g><path style="opacity:1" fill="#576655" d="M 123.5,69.5 C 125.25,70.6594 126.25,72.326 126.5,74.5C 124.75,73.3406 123.75,71.674 123.5,69.5 Z"/></g>
<g><path style="opacity:1" fill="#4a5949" d="M 126.5,74.5 C 128.25,75.6594 129.25,77.326 129.5,79.5C 127.75,78.3406 126.75,76.674 126.5,74.5 Z"/></g>
<g><path style="opacity:1" fill="#6b6b6b" d="M 112.5,70.5 C 113.189,69.2264 114.023,69.2264 115,70.5C 118.04,76.0816 121.207,81.5816 124.5,87C 123.551,87.6172 122.718,87.4506 122,86.5C 119.059,80.9382 115.892,75.6049 112.5,70.5 Z"/></g>
<g><path style="opacity:1" fill="#636363" d="M 94.5,79.5 C 97.9748,85.1027 101.475,90.7694 105,96.5C 105.688,97.3317 105.521,97.9984 104.5,98.5C 100.356,92.5441 97.0231,86.2108 94.5,79.5 Z"/></g>
<g><path style="opacity:1" fill="#505b4f" d="M 89.5,89.5 C 91.2503,90.6594 92.2503,92.326 92.5,94.5C 90.7497,93.3406 89.7497,91.674 89.5,89.5 Z"/></g>
<g><path style="opacity:1" fill="#5a6758" d="M 92.5,94.5 C 94.588,96.3356 95.9213,98.6689 96.5,101.5C 94.412,99.6644 93.0787,97.3311 92.5,94.5 Z"/></g>
</svg>
