<?xml version="1.0" encoding="UTF-8"?>
<!DOCTYPE svg PUBLIC "-//W3C//DTD SVG 1.1//EN" "http://www.w3.org/Graphics/SVG/1.1/DTD/svg11.dtd">
<svg xmlns="http://www.w3.org/2000/svg" version="1.1" width="147px" height="148px" style="shape-rendering:geometricPrecision; text-rendering:geometricPrecision; image-rendering:optimizeQuality; fill-rule:evenodd; clip-rule:evenodd" xmlns:xlink="http://www.w3.org/1999/xlink">
<g><path style="opacity:0.984" fill="#019201" d="M 61.5,-0.5 C 69.1667,-0.5 76.8333,-0.5 84.5,-0.5C 118.154,7.1539 138.821,27.8206 146.5,61.5C 146.5,69.5 146.5,77.5 146.5,85.5C 138.821,119.179 118.154,139.846 84.5,147.5C 76.8333,147.5 69.1667,147.5 61.5,147.5C 27.8461,139.846 7.17944,119.179 -0.5,85.5C -0.5,77.5 -0.5,69.5 -0.5,61.5C 7.17944,27.8206 27.8461,7.1539 61.5,-0.5 Z"/></g>
<g><path style="opacity:1" fill="#54c255" d="M 65.5,22.5 C 100.426,22.0926 117.759,39.426 117.5,74.5C 122.214,74.1734 126.88,74.5067 131.5,75.5C 122.569,84.9322 113.402,94.2656 104,103.5C 94.5,94 85,84.5 75.5,75C 80.4889,74.5007 85.4889,74.3341 90.5,74.5C 91.3704,48.2041 78.7037,35.3708 52.5,36C 39.2315,39.6017 31.0649,48.1017 28,61.5C 29.4505,48.0146 35.9505,37.5146 47.5,30C 53.3443,26.7841 59.3443,24.2841 65.5,22.5 Z"/></g>
<g><path style="opacity:1" fill="#f7f9f7" d="M 45.5,61.5 C 41.1974,61.9631 39.3641,64.2965 40,68.5C 44.0448,72.8808 48.3781,76.8808 53,80.5C 56.411,79.9232 58.2443,77.9232 58.5,74.5C 61.2226,77.1785 60.8893,79.6785 57.5,82C 58.9277,85.4741 58.4277,85.9741 56,83.5C 54.3333,85.1667 52.6667,86.8333 51,88.5C 51.9466,90.3492 52.6132,92.3492 53,94.5C 50.6278,96.7032 48.4611,99.0365 46.5,101.5C 44.5,101.5 43.5,102.5 43.5,104.5C 41.1727,104.753 39.1727,104.086 37.5,102.5C 35.2324,103.544 32.8991,103.711 30.5,103C 24.7429,97.9153 19.7429,92.2486 15.5,86C 15.9504,84.7147 16.6171,83.548 17.5,82.5C 15.447,80.2712 15.1137,77.9379 16.5,75.5C 19.6827,73.2632 22.3494,70.5966 24.5,67.5C 25.2646,67.0766 26.0979,66.7432 27,66.5C 28.4446,67.7418 29.9446,68.5751 31.5,69C 32.6667,67.8333 33.8333,66.6667 35,65.5C 34.9536,63.6874 35.1203,62.0207 35.5,60.5C 36.2935,60.9312 37.1268,61.2645 38,61.5C 39.3957,60.6057 40.8957,59.9391 42.5,59.5C 44.0377,59.4534 45.0377,60.1201 45.5,61.5 Z"/></g>
<g><path style="opacity:1" fill="#555755" d="M 45.5,61.5 C 50.8333,64.8333 55.1667,69.1667 58.5,74.5C 58.2443,77.9232 56.411,79.9232 53,80.5C 48.3781,76.8808 44.0448,72.8808 40,68.5C 39.3641,64.2965 41.1974,61.9631 45.5,61.5 Z"/></g>
<g><path style="opacity:1" fill="#54af55" d="M 45.5,66.5 C 47.6569,67.0533 47.4903,68.0533 45,69.5C 44.5304,68.4232 44.6971,67.4232 45.5,66.5 Z"/></g>
<g><path style="opacity:1" fill="#5e6a5d" d="M 24.5,67.5 C 22.3494,70.5966 19.6827,73.2632 16.5,75.5C 16.369,74.7611 16.5357,74.0944 17,73.5C 19.5088,71.3521 22.0088,69.3521 24.5,67.5 Z"/></g>
<g><path style="opacity:1" fill="#55b356" d="M 51.5,72.5 C 53.6569,73.0533 53.4903,74.0533 51,75.5C 50.5304,74.4232 50.6971,73.4232 51.5,72.5 Z"/></g>
<g><path style="opacity:1" fill="#6f6f6f" d="M 34.5,68.5 C 35.525,68.8966 35.6917,69.5632 35,70.5C 30.5,75 26,79.5 21.5,84C 20.8333,84.6667 20.1667,84.6667 19.5,84C 24.7031,78.9646 29.7031,73.798 34.5,68.5 Z"/></g>
<g><path style="opacity:1" fill="#7e7e7e" d="M 48.5,84.5 C 50.0281,84.5173 50.5281,85.184 50,86.5C 45.8333,90.6667 41.6667,94.8333 37.5,99C 36.8333,99.6667 36.1667,99.6667 35.5,99C 40.4337,94.5738 44.767,89.7405 48.5,84.5 Z"/></g>
<g><path style="opacity:1" fill="#4f594e" d="M 46.5,101.5 C 45.8333,102.833 44.8333,103.833 43.5,104.5C 43.5,102.5 44.5,101.5 46.5,101.5 Z"/></g>
</svg>
