<svg xmlns="http://www.w3.org/2000/svg" width="22" height="22" viewBox="0 0 22 22">
    <g fill="none" fill-rule="evenodd">
        <circle cx="11" cy="11" r="11" fill="#019101"/>
        <path fill="#72D173" fill-rule="nonzero" d="M16.089 13.364a2 2 0 0 1-1.998 1.909H7.909a2 2 0 0 1-2-2V9a2 2 0 0 1 2-2h6.182a2 2 0 0 1 2 1.91h1.273a.636.636 0 0 1 0 1.272H16.09v1.909h1.273a.636.636 0 0 1 0 1.273H16.09h-.002zm-10.816.604A1.591 1.591 0 0 1 4 12.41V9.864c0-.77.547-1.412 1.273-1.56v5.664zm7.954-1.877a.955.955 0 1 0 0-1.91.955.955 0 0 0 0 1.91zm-4.454 0a.955.955 0 1 0 0-1.91.955.955 0 0 0 0 1.91z"/>
    </g>
</svg>
