<svg xmlns="http://www.w3.org/2000/svg" width="22" height="22" viewBox="0 0 22 22">
    <g fill="none" fill-rule="evenodd">
        <g fill-rule="nonzero">
            <circle cx="11" cy="11" r="11" fill="#038DAC"/>
            <path fill="#83D2E4" d="M12.276 11.138h4.138a.517.517 0 0 1 0 1.034h-4.138v1.81a.776.776 0 0 1-1.552.011 1.991 1.991 0 0 1-.965.248H7.362a3.362 3.362 0 1 1 0-6.724H9.76c.35 0 .679.09.965.248a.776.776 0 0 1 1.552.01v1.811h6.207a.517.517 0 0 1 0 1.035h-6.207v.517zM7.362 8.293a2.586 2.586 0 0 0-2.586 2.586.259.259 0 1 0 .517 0c0-1.142.926-2.069 2.07-2.069a.259.259 0 0 0 0-.517z"/>
        </g>
    </g>
</svg>
