<svg xmlns="http://www.w3.org/2000/svg" width="22" height="22" viewBox="0 0 22 22">
    <g fill="none" fill-rule="evenodd">
        <circle cx="11" cy="11" r="11" fill="#038DAC"/>
        <path fill="#83D2E4" fill-rule="nonzero" d="M11 14.667a2.667 2.667 0 1 1 0-5.334 2.667 2.667 0 0 1 0 5.334zM11 4c.49 0 .889.398.889.889v2.667a.889.889 0 0 1-1.778 0V4.889c0-.491.398-.889.889-.889zm8 8c0 .49-.398.889-.889.889h-2.667a.889.889 0 0 1 0-1.778h2.667c.491 0 .889.398.889.889zM3 12c0-.49.398-.889.889-.889h2.667a.889.889 0 0 1 0 1.778H3.889A.889.889 0 0 1 3 12zm2.343-5.657a.889.889 0 0 1 1.257 0L8.486 8.23a.889.889 0 0 1-1.257 1.257L5.343 7.6a.889.889 0 0 1 0-1.257zm11.314 0a.889.889 0 0 1 0 1.257L14.77 9.486a.889.889 0 0 1-1.257-1.257L15.4 6.343a.889.889 0 0 1 1.257 0z"/>
    </g>
</svg>
