<svg xmlns="http://www.w3.org/2000/svg" width="22" height="22" viewBox="0 0 22 22">
    <g fill="none" fill-rule="evenodd">
        <circle cx="11" cy="11" r="11" fill="#CE105E"/>
        <path fill="#FD86B3" fill-rule="nonzero" d="M8.868 8.753v5.09a.556.556 0 0 1-.008.095 1.934 1.934 0 1 1-1.097-1.568V6.658c0-.285.215-.52.492-.55l4.534-.878a1 1 0 0 1 1.19.982v.726a1 1 0 0 1-.81.982l-4.3.833zm5.527 2.512V5.553a.553.553 0 0 1 1.105 0v7.184a.556.556 0 0 1-.008.096 1.934 1.934 0 1 1-1.097-1.568z"/>
    </g>
</svg>
