<svg width="22" height="22" viewBox="0 0 22 22" xmlns="http://www.w3.org/2000/svg">
    <g fill="none" fill-rule="evenodd">
        <path fill="#FFF" d="M-559-113H465v349H-559z"/>
        <path d="M-115-36c4.705 0 8.963 1.911 12.04 5H-4c7.732 0 14 6.268 14 14S3.732-3-4-3l-105-.001L-115 3l-6-6v-.09c-6.428-2.425-11-8.633-11-15.91 0-9.389 7.611-17 17-17z" fill="#8222FF" stroke="#670BDD" stroke-linejoin="round"/>
        <path d="M11-3c7.732 0 14 6.268 14 14s-6.268 14-14 14h-120l-6 6-6-6V-3l6 6 6-6H11z" fill="#8222FF" stroke="#670BDD" stroke-linejoin="round"/>
        <g>
            <circle fill="#670BDD" cx="11" cy="11" r="11"/>
            <path d="M7.51 11.84a.48.48 0 0 0-.355.577 4.047 4.047 0 0 0 7.684.021.481.481 0 0 0-.395-.607.48.48 0 0 0-.517.316 3.085 3.085 0 0 1-4.74 1.515 3.094 3.094 0 0 1-1.114-1.515.482.482 0 0 0-.563-.307m5.633-3.449a.923.923 0 0 0-.735.783.923.923 0 0 0 .472.927c.31.174.72.142 1-.078a.924.924 0 0 0 .285-1.092.923.923 0 0 0-1.022-.54m-4.648.002a.925.925 0 0 0-.536.33.923.923 0 0 0 .022 1.167.924.924 0 0 0 1.102.23.925.925 0 0 0 .474-1.101.924.924 0 0 0-1.062-.626M10.847 4h.294a6.969 6.969 0 0 1 3.355.935 7.034 7.034 0 0 1 2.959 3.354c.353.835.536 1.74.545 2.647v.125a7 7 0 0 1-.646 2.878 7.039 7.039 0 0 1-2.059 2.586A6.972 6.972 0 0 1 11.06 18h-.197a7.01 7.01 0 0 1-6.435-4.588A7.023 7.023 0 0 1 4 11.091v-.198a7.09 7.09 0 0 1 .227-1.668A7.013 7.013 0 0 1 10.847 4" fill="#AF71FF"/>
        </g>
    </g>
</svg>
