<svg xmlns="http://www.w3.org/2000/svg" xmlns:xlink="http://www.w3.org/1999/xlink" width="22" height="22" viewBox="0 0 22 22"><defs><circle id="djutn1hbea" cx="11" cy="11" r="11"/><path id="cpru8v6c3c" d="M7.795 0c3.206 0 5.806 2.583 5.806 5.77l.001 1.29a1.745 1.745 0 0 1-.141 3.444 5.793 5.793 0 0 1-3.298 3.996l1.337 5.287h-8l1.447-5.133v-.197a5.79 5.79 0 0 1-3.2-3.941h-.002a1.745 1.745 0 0 1-.143-3.484V5.769C1.601 2.583 4.201 0 7.407 0h.387zM6.434 11.043c-.133.046-.21.158-.222.309-.017.197.083.33.241.414.592.316 1.218.418 1.878.253.2-.05.404-.098.585-.201.244-.14.35-.38.265-.58-.09-.208-.323-.29-.604-.184-.276.105-.55.17-.837.121a1.637 1.637 0 0 1-.855-.122.637.637 0 0 0-.451-.01zM7.5 7.787c-.38 0-.689.184-.742.417l-.008.071V9.55c0 .272.342.488.75.488.38 0 .689-.184.742-.417l.008-.071V8.275c0-.271-.342-.488-.75-.488zm2.252-.767c-.324.537-.326 1.034.095 1.518a.709.709 0 0 0 1.007.072c.278-.238.38-.537.383-.928.026-.105-.021-.25-.066-.387-.094-.29-.277-.529-.59-.595-.333-.07-.645.014-.83.32zm-5.57-.179c-.524.443-.58 1.29-.005 1.77.28.234.636.232.922.003.284-.227.4-.53.393-.88 0-.33-.076-.56-.255-.77-.272-.322-.742-.387-1.055-.123zm-.915-1.146c-.076.018-.158.047-.21.128-.145.23-.002.466.301.49.25.021.487-.05.73-.079.505-.06.985.04 1.457.219.239.09.508-.088.482-.298-.004-.181-.113-.303-.356-.399-.794-.312-1.598-.251-2.404-.06zm7.537-.157-.222.009c-.093 0-.185-.004-.278 0a2.849 2.849 0 0 0-1.16.304c-.16.08-.215.228-.166.394.041.143.152.205.31.2.137-.003.265-.026.395-.069.406-.132.814-.194 1.249-.116.216.039.444.077.672.057.22-.02.378-.127.394-.287.018-.175-.088-.303-.326-.35-.216-.042-.43-.096-.649-.124l-.219-.018z"/></defs><g fill="none" fill-rule="evenodd"><mask id="qnuwd5c2ub" fill="#fff"><use xlink:href="#djutn1hbea"/></mask><use fill="#670BDD" xlink:href="#djutn1hbea"/><g mask="url(#qnuwd5c2ub)"><use fill="#AF71FF" transform="translate(4 4)" xlink:href="#cpru8v6c3c"/></g></g></svg>