<svg width="22" height="22" viewBox="0 0 22 22" xmlns="http://www.w3.org/2000/svg">
    <g fill="none" fill-rule="evenodd">
        <path fill="#FFF" d="M-922-113H102v349H-922z"/>
        <path d="M-104-36c4.705 0 8.963 1.911 12.04 5H-4c7.732 0 14 6.268 14 14S3.732-3-4-3l-94-.001L-104 3l-6-6v-.09c-6.428-2.425-11-8.633-11-15.91 0-9.389 7.611-17 17-17z" fill="#8222FF" stroke="#670BDD" stroke-linejoin="round"/>
        <path d="M11-3c7.732 0 14 6.268 14 14s-6.268 14-14 14H-98l-6 6-6-6V-3l6 6 6-6H11z" fill="#8222FF" stroke="#670BDD" stroke-linejoin="round"/>
        <g>
            <circle fill="#670BDD" cx="11" cy="11" r="11"/>
            <path d="M10.86 4h.046a.819.819 0 0 1 .607.297.847.847 0 0 1 .186.548v5.008c-.001.089.007.187.075.252.099.113.294.11.39-.004.084-.089.071-.22.072-.332V5.342a.804.804 0 0 1 1.295-.635c.2.149.313.394.318.642-.002 1.683 0 3.367-.001 5.05 0 .084.01.175.07.24a.269.269 0 0 0 .385.013c.069-.064.084-.163.083-.253l-.001-3.44a.828.828 0 0 1 .348-.659.808.808 0 0 1 .904-.01.827.827 0 0 1 .363.67c-.003 2.422 0 4.844-.002 7.267-.012.942-.306 1.912-.955 2.611-.289.324-.65.577-1.043.757-.622.287-1.312.39-1.993.405h-.222c-.912-.018-1.844-.18-2.645-.637a4.227 4.227 0 0 1-1.443-1.371c-.826-1.251-1.649-2.504-2.475-3.756a1.255 1.255 0 0 1-.211-.524.998.998 0 0 1 .222-.791.903.903 0 0 1 .596-.308c.297-.032.6.08.818.28.094.081.163.185.237.283l1.05 1.438V5.912a.828.828 0 0 1 .364-.699.808.808 0 0 1 1.25.676c.001 1.34-.002 2.68.001 4.02-.007.155.134.3.292.279.152-.01.256-.16.244-.306V4.847c0-.16.034-.322.12-.458A.82.82 0 0 1 10.86 4" fill="#AF71FF"/>
        </g>
    </g>
</svg>
