<svg width="22" height="22" viewBox="0 0 22 22" xmlns="http://www.w3.org/2000/svg">
    <g fill="none" fill-rule="evenodd">
        <circle fill="#670BDD" cx="11" cy="11" r="11"/>
        <path d="M10.84 4.524a.839.839 0 0 1 .697.138c.195.144.31.373.32.606.121 1.765.24 3.531.364 5.297.001.127.13.23.26.22.129.007.248-.098.248-.221.072-1.46.14-2.921.21-4.382.009-.16 0-.328.069-.48a.81.81 0 0 1 .589-.47.85.85 0 0 1 .731.191.774.774 0 0 1 .261.617c-.071 1.533-.147 3.066-.217 4.6-.019.14.12.263.264.25a.247.247 0 0 0 .264-.215c.149-1.177.29-2.355.44-3.533a.798.798 0 0 1 .453-.617.858.858 0 0 1 .799.042c.28.163.45.488.4.8-.303 2.227-.603 4.454-.918 6.679-.113.746-.246 1.502-.576 2.193-.21.434-.536.84-.994 1.057a2.238 2.238 0 0 1-.982.203h-3.427c-.168 0-.337.008-.502-.027-.332-.067-.63-.235-.894-.433-.513-.395-.926-.89-1.324-1.388a46.006 46.006 0 0 1-2.227-3.165.875.875 0 0 1-.084-.814c.11-.277.385-.482.687-.54a.896.896 0 0 1 .605.127c.228.132.41.323.589.508.286.304.562.616.834.931.098.114.227.221.387.232a.305.305 0 0 0 .286-.18c.062-.12.047-.257.037-.385-.038-.6-.115-1.196-.194-1.791-.213-1.342-.48-2.676-.727-4.012a.775.775 0 0 1 .319-.75.861.861 0 0 1 .838-.082c.239.103.42.32.463.567.25 1.364.5 2.73.748 4.094.02.1.026.22.123.283.18.106.522.025.5-.218-.108-1.63-.22-3.259-.33-4.888-.009-.166-.04-.337.012-.5a.81.81 0 0 1 .6-.544" fill="#AF71FF"/>
    </g>
</svg>
