<svg width="22" height="22" viewBox="0 0 22 22" xmlns="http://www.w3.org/2000/svg">
    <g fill="none" fill-rule="evenodd">
        <circle fill="#670BDD" cx="11" cy="11" r="11"/>
        <path d="m9.607 13.354-.954 1.272 1.183 1.852c.822.173 1.68.158 2.496-.04l1.03-1.805-.969-1.279H9.607m3.716-2.62c-.198.785-.393 1.571-.59 2.358l.976 1.288 1.973-.311c.498-.76.808-1.642.892-2.547l-1.22-1.465-2.03.677m-6.677-.676-1.22 1.465c.086.905.395 1.785.893 2.546l1.98.313.969-1.29c-.2-.787-.391-1.575-.593-2.36-.677-.222-1.352-.45-2.029-.674m.567-3.175c-.327.295-.61.634-.86.995l.416 1.768 2.045.68 1.971-1.576V6.73L8.692 5.9a5.704 5.704 0 0 0-1.478.983m4-.153v2.02l1.972 1.577 2.045-.682c.14-.589.277-1.178.416-1.767-.109-.149-.212-.302-.334-.44A5.665 5.665 0 0 0 13.3 5.895l-2.086.834M10.903 5h.189c.915.018 1.828.24 2.642.662a6.038 6.038 0 0 1 2.733 2.87c.336.737.511 1.542.533 2.35v.21a6.008 6.008 0 0 1-2.562 4.824A6.004 6.004 0 0 1 11.098 17h-.19A6.003 6.003 0 0 1 5 11.098v-.208c.02-.904.239-1.805.652-2.61A6.005 6.005 0 0 1 10.902 5" stroke="#AF71FF" stroke-width=".2" fill="#AF71FF"/>
        <path stroke="#AF71FF" stroke-width=".7" fill="#AF71FF" d="M11 6.041v3.048M9.598 13.016l-1.513 1.96M12.384 13.016l1.591 1.96M15.647 9.711l-2.855.986M6.509 9.711l2.654.986"/>
    </g>
</svg>
