<svg xmlns="http://www.w3.org/2000/svg" width="22" height="22" viewBox="0 0 22 22"><g fill="none" fill-rule="evenodd"><circle cx="11" cy="11" r="11" fill="#670BDD"/><path fill="#AF71FF" stroke="#AF71FF" d="m6.904 14.668.691.108.642.101-.005.018.296.463.295.463c.065.101.13.202.205.311a5.465 5.465 0 0 1-2.125-1.464zm7.246.84c-.323.227-.67.418-1.035.57l.063-.114c.157-.274.314-.548.455-1.064l1.465-.233c-.282.315-.6.598-.948.84zM11 9.22l1.38 1.103.442.353-.144.572-.225.903c-.05.2-.099.4-.093.703H9.725l-.067-.264-.152-.61a5.92 5.92 0 0 0-.441-1.273l.062.01 2.16-1.727zm-4.978-.56.026.104.02.083c.057.237.127.488.327.88l-.131.01c-.24.287-.48.575-.743.937.053-.764.22-1.418.5-2.013zm9.99.08c.272.597.429 1.243.475 1.896l-.226-.271-.534-.64.106-.456.116-.491.027-.115c.013.025.025.051.036.077zM10.903 5.5c.563.01 1.072.076 1.542.2l-.194.077c-.31.123-.618.247-1.064.573l-.505-.2-.605-.239a9.59 9.59 0 0 0-.556-.206 5.445 5.445 0 0 1 1.382-.205z"/><path fill="#AF71FF" stroke="#AF71FF" stroke-width=".7" d="M11 6.041v3.048M9.598 13.016l-1.513 1.96M12.384 13.016l1.591 1.96M15.647 9.711l-2.855.986M6.509 9.711l2.654.986"/></g></svg>