<svg width="22" height="22" viewBox="0 0 22 22" xmlns="http://www.w3.org/2000/svg">
    <g fill="none" fill-rule="evenodd">
        <path fill="#FFF" d="M-372-113H652v349H-372z"/>
        <path d="M-115-36c4.705 0 8.963 1.911 12.04 5H-4c7.732 0 14 6.268 14 14S3.732-3-4-3l-105-.001L-115 3l-6-6v-.09c-6.428-2.425-11-8.633-11-15.91 0-9.389 7.611-17 17-17z" fill="#8222FF" stroke="#670BDD" stroke-linejoin="round"/>
        <path d="M11-3c7.732 0 14 6.268 14 14s-6.268 14-14 14h-120l-6 6-6-6V-3l6 6 6-6H11z" fill="#8222FF" stroke="#670BDD" stroke-linejoin="round"/>
        <g>
            <circle fill="#670BDD" cx="11" cy="11" r="11"/>
            <g fill="#AF71FF">
                <path d="M10.692 3.026a1.8 1.8 0 0 1 1.252.242 1.751 1.751 0 0 1 .494 2.536A1.794 1.794 0 0 1 10 6.225a1.751 1.751 0 0 1-.448-2.492c.268-.37.686-.631 1.14-.707M8.72 7.811c.35-.518.97-.841 1.598-.844.466-.001.931-.002 1.397 0 .616.01 1.221.325 1.569.83.684.994 1.365 1.989 2.048 2.983.17.24.22.563.108.836a.786.786 0 0 1-.86.466.839.839 0 0 1-.531-.35c-.355-.511-.708-1.025-1.064-1.536v7.96a.792.792 0 0 1-1.21.691.862.862 0 0 1-.386-.727v-4.653c.01-.09-.056-.188-.152-.192-.15-.006-.3-.004-.45-.001-.1 0-.177.098-.163.195v4.547c-.001.13.01.262-.025.389a.806.806 0 0 1-.49.542.774.774 0 0 1-.677-.056.857.857 0 0 1-.403-.73c-.002-2.65 0-5.3-.001-7.949l-1.062 1.535a.817.817 0 0 1-.59.348.798.798 0 0 1-.742-.342.837.837 0 0 1-.065-.787c.043-.104.113-.194.176-.286L8.72 7.811"/>
            </g>
        </g>
    </g>
</svg>
