<svg xmlns="http://www.w3.org/2000/svg" width="22" height="22" viewBox="0 0 22 22"><g fill="none" fill-rule="evenodd"><circle cx="11" cy="11" r="11" fill="#670BDD"/><path fill="#AF71FF" d="M11.189 4c.729 0 1.32.569 1.32 1.27v.763c0 .573-.395 1.058-.937 1.216l-.001.161h.359c.068 0 .134.01.198.027l.092.032a.547.547 0 0 1 .387.096l1.604 1.118.02.015 1.193.907c.26.198.32.583.135.86a.55.55 0 0 1-.806.144l-1.183-.9-.854-.596v2.853a.894.894 0 0 1-.01.125l2.15 4.093c.195.371.07.84-.277 1.048a.684.684 0 0 1-.352.099.715.715 0 0 1-.63-.394l-2.17-4.133h-.403v4.426c0 .425-.323.77-.722.77-.399 0-.722-.345-.722-.77v-5.162c0-.046.004-.092.011-.136V8.4l-1.087-.948a.592.592 0 0 1-.027-.025L7.185 6.15a.645.645 0 0 1-.031-.87.552.552 0 0 1 .816-.034L9.25 6.51l1.037.906a.745.745 0 0 1 .09-.006h.341v-.16a1.278 1.278 0 0 1-.937-1.217V5.27c0-.701.591-1.27 1.32-1.27h.088z"/><path fill="#AF71FF" stroke="#AF71FF" stroke-width=".2" d="M7.552 4.982a.654.654 0 0 1 .489.192l1.274 1.261 1.01.88 1.63-.005 2.311 1.29 1.219.926a.747.747 0 0 1 .158.994.664.664 0 0 1-.586.302L13.512 9.79l-.838-.584-3.13-.714-1.11-.969-1.32-1.303a.733.733 0 0 1-.214-.496c.312-.7.488-.736.652-.742z"/></g></svg>