<svg xmlns="http://www.w3.org/2000/svg" width="22" height="22" viewBox="0 0 22 22">
    <g fill="none" fill-rule="evenodd">
        <circle cx="11" cy="11" r="11" fill="#670BDD"/>
        <path fill="#AF71FF" d="M11.287 4C7.636 4 5.782 6.487 5.782 9.556c0 .193.01.383.029.57l-.767 1.549a.421.421 0 0 0 .372.606h.781v1.468c0 .81.652 1.468 1.455 1.468h1.083l.163 1.886h5.194l.229-1.72C14.499 13.51 17 13.18 17 9.555 17 6.487 14.939 4 11.287 4z"/>
        <path fill="#670BDD" fill-rule="nonzero" d="M9.07 11.857l.363-1.01h1.24l.357 1.01h.71l-1.383-3.68H9.77l-1.368 3.68h.669zm1.414-1.557h-.862l.25-.75a4.33 4.33 0 0 0 .102-.304 5.05 5.05 0 0 0 .077-.262l.079.257c.025.084.06.187.104.31l.25.75zm2.627 1.557v-3.68h-.653v3.68h.653z"/>
    </g>
</svg>
