<svg xmlns="http://www.w3.org/2000/svg" width="22" height="22" viewBox="0 0 22 22"><g fill="none" fill-rule="evenodd"><circle cx="11" cy="11" r="11" fill="#670BDD"/><g fill="#AF71FF"><path d="m13.056 10.61 3.815-2.67a.4.4 0 0 1 .629.328v5.464a.4.4 0 0 1-.63.327l-3.814-2.67a.475.475 0 0 1 0-.778z"/><path d="M14 7.1a.5.5 0 0 1 .5.5v6.8a.5.5 0 0 1-.5.5H5a.5.5 0 0 1-.5-.5V7.6a.5.5 0 0 1 .5-.5h9zM8.5 8.902a.5.5 0 0 0-.5.5v3.196a.5.5 0 0 0 .765.424l2.557-1.598a.5.5 0 0 0 0-.848L8.765 8.978a.5.5 0 0 0-.265-.076z"/></g></g></svg>