<svg xmlns="http://www.w3.org/2000/svg" width="22" height="22" viewBox="0 0 22 22">
    <g fill="none" fill-rule="evenodd">
        <circle cx="11" cy="11" r="11" fill="#FC6500"/>
        <path fill="#FFB250" d="M9.313 12.535c1.07 0 1.938.868 1.938 1.939.003 3.183-6.227 2.713-5.119 2.16.738-.37 1.153-1.077 1.245-2.122l-.001.009-.002-.047c0-1.02.788-1.855 1.787-1.933zm7.07-8.245c.601.421.747 1.25.327 1.85l-4.019 5.74c-.42.6-1.249.746-1.85.326-.6-.421-.747-1.25-.326-1.85l4.018-5.74c.421-.6 1.25-.746 1.85-.326z"/>
    </g>
</svg>
