<svg xmlns="http://www.w3.org/2000/svg" width="22" height="22" viewBox="0 0 22 22">
    <g fill="none" fill-rule="evenodd">
        <circle cx="11" cy="11" r="11" fill="#FF7F00"/>
        <path fill="#FFDE82" d="M9.381 13.118l.75-.75a.353.353 0 0 0-.5-.498l-.749.749-.748-.75a.353.353 0 0 0-.5.5l.75.749-.75.748a.353.353 0 0 0 .5.5l.748-.75.75.75a.353.353 0 1 0 .498-.5l-.749-.748zm-.146-4.589V7.471a.353.353 0 0 0-.706 0v1.058H7.471a.353.353 0 0 0 0 .706h1.058v1.06a.353.353 0 1 0 .706 0v-1.06h1.06a.353.353 0 1 0 0-.706h-1.06zM7 5h8a2 2 0 0 1 2 2v8a2 2 0 0 1-2 2H7a2 2 0 0 1-2-2V7a2 2 0 0 1 2-2zm5.412 3.53a.353.353 0 0 0 0 .705h2.117a.353.353 0 0 0 0-.706h-2.117zm0 3.529a.353.353 0 0 0 0 .706h2.117a.353.353 0 0 0 0-.706h-2.117zm0 1.412a.353.353 0 0 0 0 .705h2.117a.353.353 0 0 0 0-.705h-2.117z"/>
    </g>
</svg>
