<svg xmlns="http://www.w3.org/2000/svg" width="22" height="22" viewBox="0 0 22 22">
    <g fill="none" fill-rule="evenodd">
        <circle cx="11" cy="11" r="11" fill="#1498C0"/>
        <path fill="#6DDDFE" d="M11 5c1.105 0 2 .895 2 2 0 .446-.146.858-.393 1.19l2.216 3.484c.059-.005.118-.007.177-.007 1.105 0 2 .895 2 2 0 1.104-.895 2-2 2s-2-.896-2-2c0-.636.297-1.203.76-1.57l-2.053-3.225c-.22.083-.458.128-.707.128-.249 0-.487-.045-.707-.128L8.24 12.097c.463.367.76.934.76 1.57 0 1.104-.895 2-2 2s-2-.896-2-2c0-1.105.895-2 2-2 .06 0 .118.002.177.007l2.216-3.483C9.146 7.858 9 7.446 9 7c0-1.105.895-2 2-2z"/>
    </g>
</svg>
