<svg xmlns="http://www.w3.org/2000/svg" width="22" height="22" viewBox="0 0 22 22">
    <g fill="none" fill-rule="evenodd">
        <circle cx="11" cy="11" r="11" fill="#A14100"/>
        <path fill="#FF7B22" d="M9.965 9.657c.898-1.77 2.09-3.561 3.778-3.65 2.533-.133 2.469 1.66 2.009 2.045-.46.386-1.086.02-.964-.5-.442-.302-1.083.706-1.787 2.105h1.78a.622.622 0 1 1 0 1.245h-2.39c-.673 1.388-1.488 3.04-2.047 3.628-.732.768-1.673 1.587-3.75 1.298-1.03-.35-.513-1.29 0-1.18.532.136 1.242-.586 2.22-2.564.17-.344.354-.748.555-1.182H7.936a.622.622 0 1 1 0-1.245h2.03z"/>
    </g>
</svg>
