<svg width="22" height="22" viewBox="0 0 22 22" xmlns="http://www.w3.org/2000/svg">
    <g fill="none" fill-rule="evenodd">
        <path d="M11 22c6.075 0 11-4.925 11-11S17.075 0 11 0 0 4.925 0 11s4.925 11 11 11" fill="#008380"/>
        <g fill="#78D5D3">
            <path d="M14.66 18.26c-.274-1.687-.74-2.942-1.146-3.746a7.042 7.042 0 0 1 3.548 3.038c-.421.192-1.226.483-2.402.707m-3.491.311c-1.078 0-2.022-.075-2.833-.187.467-2.642 1.469-4.023 1.65-4.25.334-.049.667-.103 1.014-.103.344 0 .674.054 1.005.102.194.26 1.135 1.658 1.568 4.292-.705.085-1.49.146-2.404.146m-3.916-.375c-1.144-.236-1.895-.52-2.287-.693a7.044 7.044 0 0 1 3.475-2.974c-.421.796-.901 2.022-1.188 3.667M11 12.931c-3.696 0-6.79 2.492-7.778 5.873.286.287.592.553.909.807.085-.387.192-.765.335-1.126.45.205 1.316.534 2.62.798-.056.558-.09 1.156-.09 1.798 0 .066.01.121.01.187a10.9 10.9 0 0 0 1.118.366c-.007-.188-.028-.356-.028-.553 0-.575.03-1.109.08-1.61a21.801 21.801 0 0 0 5.545.042c.045.49.074 1.01.074 1.568 0 .207-.02.384-.028.581a10.73 10.73 0 0 0 1.116-.354c0-.079.01-.146.01-.227 0-.618-.031-1.19-.081-1.73 1.329-.249 2.24-.58 2.739-.812.134.345.233.707.315 1.074.318-.254.625-.52.913-.809-.99-3.38-4.082-5.873-7.78-5.873M10.21 9.156a1.248 1.248 0 1 0 0 1.248l1.414-.001c.178 0 .34-.075.453-.194a.645.645 0 0 0 .133-.102l2.822-2.823h2.206a.624.624 0 1 0 0-1.248h-2.495a.626.626 0 0 0-.544.318l-.01.01-2.793 2.792H10.21zM4.759 8.532h2.498a.622.622 0 0 0 .543-.318l.012-.01 2.79-2.791h1.189a1.247 1.247 0 1 0 0-1.248h-1.415a.624.624 0 0 0-.454.195.662.662 0 0 0-.132.1L6.966 7.285H4.759a.624.624 0 0 0 0 1.248"/>
        </g>
    </g>
</svg>
