<svg xmlns="http://www.w3.org/2000/svg" xmlns:xlink="http://www.w3.org/1999/xlink" id="레이어_1" width="283.46" height="283.46" x="0" y="0" enable-background="new 0 0 283.46 283.46" version="1.1" viewBox="0 0 283.46 283.46" xml:space="preserve"><switch><g><path fill="#018482" d="M274.923,141.726c0,72.853-59.046,131.898-131.887,131.898c-72.843,0-131.89-59.046-131.89-131.898 c0-72.831,59.047-131.891,131.89-131.891C215.877,9.835,274.923,68.895,274.923,141.726z"/><g><polygon fill="#FFF" points="134.005 72.186 84.773 112.815 51.16 112.815 51.16 168.291 84.773 168.291 134.005 210.494 149.62 210.494 149.62 72.186"/><path fill="none" stroke="#FFF" stroke-linecap="round" stroke-miterlimit="10" stroke-width="9" d="M199.49,62.019 c0,0,79.693,73.462,0,159.421"/><path fill="none" stroke="#FFF" stroke-linecap="round" stroke-miterlimit="10" stroke-width="9" d="M174.757,93.275 c0,0,40.811,40.964,0,90.652"/></g></g></switch></svg>