<svg xmlns="http://www.w3.org/2000/svg" width="22" height="22" viewBox="0 0 22 22">
    <g fill="none" fill-rule="evenodd">
        <circle cx="11" cy="11" r="11" fill="#008380"/>
        <path fill="#78D5D3" d="M9.986 14.8a1.6 1.6 0 1 1 0-1.6h1.523l3.58-3.58a.815.815 0 0 1 .015-.015.8.8 0 0 1 .696-.405h2.4a.8.8 0 1 1 0 1.6h-2.028l-3.62 3.62a.8.8 0 0 1-.172.13.798.798 0 0 1-.58.25H9.986zm2.028-8a1.6 1.6 0 1 1 0 1.6h-1.523l-3.58 3.58a.815.815 0 0 1-.015.015.8.8 0 0 1-.696.405H3.8a.8.8 0 1 1 0-1.6h2.028l3.62-3.62a.8.8 0 0 1 .172-.13.798.798 0 0 1 .58-.25h1.814z"/>
    </g>
</svg>
