<svg xmlns="http://www.w3.org/2000/svg" xmlns:xlink="http://www.w3.org/1999/xlink" id="레이어_1" width="283.46" height="283.46" x="0" y="0" enable-background="new 0 0 283.46 283.46" version="1.1" viewBox="0 0 283.46 283.46" xml:space="preserve"><switch><g><path fill="#018482" d="M274.531,142.493c0,73.2-59.341,132.547-132.542,132.547c-73.199,0-132.541-59.348-132.541-132.547 c0-73.2,59.342-132.537,132.541-132.537C215.19,9.956,274.531,69.292,274.531,142.493z"/><g><polygon fill="#FFF" stroke="#FFF" stroke-linejoin="round" stroke-miterlimit="10" points="164.786 75.139 164.786 52.577 119.952 52.577 119.952 75.139 103.723 75.139 103.723 89.847 180.249 89.847 180.249 75.139"/><rect width="122.795" height="22.027" x="80.592" y="95.969" fill="#FFF" stroke="#FFF" stroke-linejoin="round" stroke-miterlimit="10"/><rect width="122.795" height="22.027" x="80.592" y="207.065" fill="#FFF" stroke="#FFF" stroke-linejoin="round" stroke-miterlimit="10"/><rect width="20.46" height="73.071" x="80.592" y="125.315" fill="#FFF" stroke="#FFF" stroke-linejoin="round" stroke-miterlimit="10"/><rect width="20.465" height="73.071" x="106.169" y="125.315" fill="#FFF" stroke="#FFF" stroke-linejoin="round" stroke-miterlimit="10"/><rect width="20.459" height="73.071" x="131.759" y="125.315" fill="#FFF" stroke="#FFF" stroke-linejoin="round" stroke-miterlimit="10"/><rect width="20.467" height="73.071" x="157.337" y="125.315" fill="#FFF" stroke="#FFF" stroke-linejoin="round" stroke-miterlimit="10"/><rect width="20.461" height="73.071" x="182.926" y="125.315" fill="#FFF" stroke="#FFF" stroke-linejoin="round" stroke-miterlimit="10"/></g></g></switch></svg>