<svg xmlns="http://www.w3.org/2000/svg" xmlns:xlink="http://www.w3.org/1999/xlink" id="레이어_1" width="283.46" height="283.46" x="0" y="0" enable-background="new 0 0 283.46 283.46" version="1.1" viewBox="0 0 283.46 283.46" xml:space="preserve"><switch><g><path fill="#018482" d="M274.103,141.73c0,72.957-59.149,132.104-132.106,132.104c-72.957,0-132.104-59.146-132.104-132.104 C9.893,68.773,69.04,9.626,141.997,9.626C214.953,9.626,274.103,68.773,274.103,141.73z"/><g><path fill="#FFF" d="M189.587,126.481c-1.795-25.286-22.292-45.299-47.59-45.299c-25.297,0-45.795,20.013-47.59,45.299l0,0 l-0.345,71.901H75.1c-4.365,0-7.902,3.949-7.902,8.822c0,4.877,3.537,8.826,7.902,8.826h30.552v21.072 c0,3.492,2.829,6.32,6.324,6.32c3.49,0,6.319-2.828,6.319-6.32v-21.072h48.454v21.072c0,3.492,2.829,6.32,6.325,6.32 c3.489,0,6.318-2.828,6.318-6.32v-21.072h29.501c4.364,0,7.902-3.949,7.902-8.826c0-4.873-3.538-8.822-7.902-8.822h-18.964"/><path fill="#FFF" d="M146.714,67.428c0,2.911-2.355,5.267-5.267,5.267l0,0c-2.911,0-5.266-2.356-5.266-5.267V45.305 c0-2.911,2.355-5.266,5.266-5.266l0,0c2.911,0,5.267,2.355,5.267,5.266V67.428z"/><path fill="#FFF" d="M78.263,131.753c2.911,0,5.261,2.35,5.261,5.261l0,0c0,2.911-2.35,5.272-5.261,5.272h-22.13 c-2.911,0-5.261-2.361-5.261-5.272l0,0c0-2.911,2.35-5.261,5.261-5.261H78.263z"/><path fill="#FFF" d="M227.859,131.753c2.911,0,5.262,2.35,5.262,5.261l0,0c0,2.911-2.351,5.272-5.262,5.272h-22.128 c-2.911,0-5.262-2.361-5.262-5.272l0,0c0-2.911,2.351-5.261,5.262-5.261H227.859z"/><path fill="#FFF" d="M204.575,69.638c2.056-2.059,5.382-2.059,7.438,0l0,0c2.06,2.057,2.064,5.389,0.009,7.447l-15.649,15.647 c-2.056,2.058-5.389,2.051-7.445-0.006l0,0c-2.058-2.057-2.058-5.383,0-7.44L204.575,69.638z"/><path fill="#FFF" d="M79.419,69.638c-2.058-2.059-5.383-2.059-7.44,0l0,0c-2.058,2.057-2.063,5.389-0.005,7.447l15.647,15.647 c2.058,2.058,5.389,2.051,7.446-0.006l0,0c2.058-2.057,2.058-5.383,0-7.44L79.419,69.638z"/></g></g></switch></svg>