<svg xmlns="http://www.w3.org/2000/svg" xmlns:xlink="http://www.w3.org/1999/xlink" width="22" height="22" viewBox="0 0 22 22">
    <defs>
        <path id="prefix__a" d="M0 0.566L14.362 0.566 14.362 13.929 0 13.929z"/>
    </defs>
    <g fill="none" fill-rule="evenodd">
        <path stroke="#1C8850" d="M1024.5 550.5H1082.5V602.5H1024.5z" transform="translate(-1043 -565)"/>
        <circle cx="11" cy="11" r="11" fill="#0D5B59"/>
        <g>
            <g transform="translate(4 3) translate(0 .506)">
                <mask id="prefix__b" fill="#fff">
                    <use xlink:href="#prefix__a"/>
                </mask>
                <path fill="#18928D" d="M7.183 13.929c4.115.013 7.06-3.002 7.174-5.93.114-2.9-1.697-4.322-2.216-4.787.104-.303.27-.905.055-1.556-.233-.702-.96-1.207-1.805-1.068-.802.133-1.15.74-1.323 1.148-.585-.102-.958-.16-1.889-.175-.93.014-1.304.074-1.888.176C5.117 1.33 4.77.722 3.967.591 3.122.45 2.395.957 2.164 1.659c-.215.65-.05 1.252.055 1.557C1.7 3.68-.111 5.102.005 8.002c.116 2.928 3.062 5.942 7.178 5.927" mask="url(#prefix__b)"/>
            </g>
            <path fill="#70BAB8" d="M8.702 10.107c0 .964-.68 1.745-1.52 1.746-.84 0-1.52-.782-1.52-1.746 0-.962.68-1.744 1.52-1.744.838-.001 1.52.781 1.52 1.744" transform="translate(4 3)"/>
            <g>
                <path fill="#00403E" d="M.753 1.013l.494.609m-.88.322l.386-.931v-.87" transform="translate(4 3) translate(6.429 9.078)"/>
                <path stroke="#00403E" stroke-linecap="round" stroke-linejoin="round" stroke-width=".382" d="M.753 1.013l.494.609m-.88.322l.386-.931v-.87" transform="translate(4 3) translate(6.429 9.078)"/>
            </g>
            <path fill="#00403E" d="M7.181 9.509c-.277 0-.61-.489-.564-.685.046-.195.344-.192.564-.192.22 0 .518-.003.564.192.046.195-.286.684-.564.685M8.544 7.832c0 .264-.215.479-.478.479-.265 0-.481-.215-.481-.48 0-.264.215-.478.48-.478.264 0 .479.214.479.479M6.777 7.832c0 .264-.215.479-.48.479-.264 0-.48-.215-.48-.478 0-.265.216-.48.48-.48.265 0 .48.214.48.479M11.147 1.82c.681.349.536 1.294.266 1.73 0 0-.283-.232-.867-.552-.583-.321-.91-.44-.91-.44.124-.36.672-1.167 1.511-.738M3.213 1.822c-.682.349-.536 1.294-.266 1.729 0 0 .283-.23.867-.552.583-.321.91-.44.91-.44-.124-.36-.673-1.167-1.511-.737" transform="translate(4 3)"/>
        </g>
    </g>
</svg>
