<svg xmlns="http://www.w3.org/2000/svg" width="22" height="22" viewBox="0 0 22 22">
    <g fill="none" fill-rule="evenodd">
        <circle cx="11" cy="11" r="11" fill="#8B19DB"/>
        <path fill="#BD65FB" d="M7.972 13.31l4.202-.56a1 1 0 0 1 1.132.992v.908a1 1 0 0 1-1.132.99l-4.202-.558.263 1.05a.5.5 0 0 1-.763.538l-3.087-2.058a.5.5 0 0 1 0-.832l3.087-2.058a.5.5 0 0 1 .763.537l-.263 1.05zm6.056-3.61l-4.202.56a1 1 0 0 1-1.132-.992V8.36a1 1 0 0 1 1.132-.99l4.202.558-.263-1.05a.5.5 0 0 1 .763-.538l3.087 2.058a.5.5 0 0 1 0 .832l-3.087 2.058a.5.5 0 0 1-.763-.537l.263-1.05z"/>
    </g>
</svg>
