<svg xmlns="http://www.w3.org/2000/svg" width="28" height="28" viewBox="0 0 28 28"><g fill="none" fill-rule="evenodd"><circle cx="14" cy="14" r="13.5" fill="#FFF" fill-rule="nonzero" stroke="#F2F2F2"/><path fill="#8222FF" d="M12.787 5.033c.318-.08.672-.012.93.192.259.198.412.515.426.838.162 2.445.32 4.89.485 7.335.002.176.173.318.347.303.171.01.33-.134.33-.305.096-2.022.186-4.044.28-6.066.012-.223.001-.456.092-.665.13-.329.437-.58.785-.65.343-.075.72.023.976.263.237.215.364.538.348.855-.095 2.123-.196 4.245-.29 6.367-.025.195.16.366.352.347a.332.332 0 0 0 .351-.297c.2-1.63.389-3.261.587-4.892.041-.36.274-.695.605-.854.333-.167.75-.14 1.065.058.373.226.599.676.533 1.107-.404 3.084-.803 6.167-1.224 9.248-.15 1.033-.328 2.08-.767 3.036-.281.602-.715 1.164-1.326 1.464-.403.203-.859.283-1.309.282h-4.57c-.223 0-.45.01-.67-.038-.441-.092-.84-.326-1.19-.6-.684-.546-1.235-1.232-1.766-1.92-1.06-1.414-2.032-2.89-2.97-4.383a1.251 1.251 0 0 1-.112-1.128c.148-.384.514-.666.917-.747.28-.053.567.03.806.175.304.183.546.447.785.704.382.42.75.853 1.112 1.29.13.157.303.305.517.32.166.01.315-.104.38-.25.083-.165.063-.355.05-.533-.05-.83-.153-1.654-.258-2.48-.285-1.857-.641-3.704-.97-5.554a1.092 1.092 0 0 1 .425-1.037c.314-.238.762-.28 1.118-.114.318.142.559.442.618.784.333 1.89.666 3.78.997 5.669.026.137.034.304.164.391.24.147.695.035.666-.3-.144-2.257-.294-4.513-.44-6.77-.012-.229-.052-.466.015-.69.103-.372.424-.667.8-.755"/></g></svg>