<svg xmlns="http://www.w3.org/2000/svg" width="30" height="30" viewBox="0 0 30 30">
    <g fill="none" fill-rule="evenodd">
        <circle cx="15" cy="15" r="14.5" fill="#FFF" fill-rule="nonzero" stroke="#F2F2F2"/>
        <path fill="#00B6B1" d="M13.526 20a2.181 2.181 0 0 1-4.071-1.09 2.182 2.182 0 0 1 4.071-1.092h2.077l4.836-4.836a1 1 0 0 1 .925-.618h3.454a1 1 0 0 1 1 1v.181a1 1 0 0 1-1 1h-2.857l-5 5.001a1.01 1.01 0 0 1-.09.08.998.998 0 0 1-.78.374h-2.565zm2.766-10.91a2.181 2.181 0 0 1 4.072 1.092 2.182 2.182 0 0 1-4.072 1.09h-2.077L9.38 16.11a1 1 0 0 1-.924.618H5a1 1 0 0 1-1-1v-.182a1 1 0 0 1 1-1h2.857l5-5a1.01 1.01 0 0 1 .09-.08.998.998 0 0 1 .78-.374h2.565z"/>
    </g>
</svg>
