<svg width="28" height="28" viewBox="0 0 28 28" xmlns="http://www.w3.org/2000/svg">
    <g fill="none" fill-rule="evenodd">
        <circle stroke="#F2F2F2" fill="#FFF" fill-rule="nonzero" cx="14" cy="14" r="13.5"/>
        <path d="M12.026 17.335c-.45.6-.901 1.2-1.35 1.802l1.675 2.623a8.02 8.02 0 0 0 3.536-.056l1.46-2.557-1.373-1.812h-3.948m5.265-3.713c-.28 1.113-.557 2.227-.836 3.341.46.609.921 1.218 1.383 1.826l2.794-.442a7.97 7.97 0 0 0 1.265-3.608c-.577-.69-1.153-1.383-1.73-2.074-.958.319-1.917.64-2.876.957m-9.457-.957c-.578.692-1.154 1.383-1.73 2.076a8.01 8.01 0 0 0 1.266 3.606l2.805.444c.458-.61.916-1.218 1.372-1.828-.282-1.114-.553-2.23-.84-3.343-.959-.315-1.915-.638-2.873-.955m.802-4.498c-.462.418-.864.9-1.219 1.41l.59 2.505c.966.32 1.932.642 2.897.963a5871.4 5871.4 0 0 0 2.793-2.233V7.951L10.73 6.775a8.08 8.08 0 0 0-2.094 1.392m5.667-.216v2.862l2.794 2.233 2.897-.965.59-2.504c-.155-.21-.302-.427-.474-.624a8.026 8.026 0 0 0-2.852-2.184l-2.955 1.182m-.44-2.451h.267c1.297.026 2.59.34 3.744.937a8.554 8.554 0 0 1 3.871 4.068 8.594 8.594 0 0 1 .755 3.328v.298a8.511 8.511 0 0 1-3.63 6.834 8.505 8.505 0 0 1-4.732 1.535h-.27A8.505 8.505 0 0 1 5.5 14.139v-.295a8.525 8.525 0 0 1 .924-3.698A8.507 8.507 0 0 1 13.862 5.5" stroke="#8222FF" stroke-width=".2" fill="#8222FF"/>
    </g>
</svg>
