<svg xmlns="http://www.w3.org/2000/svg" width="28" height="28" viewBox="0 0 28 28"><g fill="none" fill-rule="evenodd"><circle cx="14" cy="14" r="13.5" fill="#FFF" fill-rule="nonzero" stroke="#F2F2F2"/><path fill="#8222FF" stroke="#8222FF" stroke-width=".2" d="M13.86 5.6c1.548.026 2.827.336 3.968.926a8.454 8.454 0 0 1 3.826 4.02 8.49 8.49 0 0 1 .746 3.286c-.024 1.693-.394 3.085-1.087 4.3A8.402 8.402 0 0 1 14.14 22.4c-1.689-.024-3.104-.406-4.335-1.122a8.43 8.43 0 0 1-3.75-4.55 8.505 8.505 0 0 1-.455-2.586c.028-1.559.334-2.821.914-3.95A8.404 8.404 0 0 1 13.86 5.6zm2.164 11.635c-1.333 0-2.666 0-4.078.04l-.586.782c-.27.358-.538.717-.806 1.075l1.736 2.717.326.064a7.778 7.778 0 0 0 3.357-.16l.585-1.022.909-1.592zM7.8 12.55 6 14.709l.036.327a7.79 7.79 0 0 0 1.317 3.41l1.917.303.948.15.258-.344.258-.343c.298-.396.596-.792.91-1.274-.119-.467-.235-.935-.352-1.402a29.154 29.154 0 0 0-.554-2.011c-.567-.186-1.132-.375-1.698-.564-.413-.138-.827-.276-1.24-.412zm12.4 0-2.993.996-.28 1.117-.28 1.117c-.099.396-.197.792-.124 1.441.411.543.822 1.087 1.33 1.667l1.397-.22c.465-.074.931-.147 1.465-.265a7.786 7.786 0 0 0 1.258-3.727l-.989-1.185-.784-.942zm-2.98-5.873a4562.017 4562.017 0 0 1-3.018 1.207v2.978l2.133 1.705.74.592.854-.284.854-.285c.414-.138.828-.276 1.307-.485l.328-1.391c.089-.379.177-.757.14-1.34a6.374 6.374 0 0 0-.374-.486 7.779 7.779 0 0 0-2.964-2.21zm-6.533.009A8.18 8.18 0 0 0 7.31 9.557l.613 2.602 1.185.394 1.186.395.63.21.568-.454a103.6 103.6 0 0 0 2.305-1.892V9.095c-.003-.385-.013-.781-.063-1.237l-1.265-.501a41.293 41.293 0 0 0-1.781-.672z"/></g></svg>