<svg width="28" height="28" viewBox="0 0 28 28" xmlns="http://www.w3.org/2000/svg">
    <g fill="none" fill-rule="evenodd">
        <circle stroke="#F2F2F2" fill="#FFF" fill-rule="nonzero" cx="14" cy="14" r="13.5"/>
        <path d="M14.283 4c1.094 0 1.98.853 1.98 1.906v1.143c0 .809-.523 1.5-1.262 1.777L15 9.449l-.006.044h.4c.116 0 .228.019.333.052l.103.038a.82.82 0 0 1 .58.143l2.407 1.678.029.02 1.79 1.362c.39.297.48.874.203 1.29a.85.85 0 0 1-.706.387.826.826 0 0 1-.502-.172l-1.777-1.35-1.28-.893v4.279c0 .063-.005.126-.014.188l3.224 6.14c.292.556.106 1.26-.416 1.572-.167.1-.349.147-.528.147-.38 0-.747-.213-.946-.59l-3.255-6.2h-.603v6.64c0 .637-.485 1.154-1.083 1.154s-1.083-.517-1.083-1.155v-7.742c0-.07.006-.138.017-.204v-5.298l-1.63-1.422a.889.889 0 0 1-.041-.038L8.277 7.602a.968.968 0 0 1-.046-1.306.829.829 0 0 1 1.224-.05l1.92 1.898 1.556 1.358c.044-.005.09-.008.135-.008l-.062.002A.283.283 0 0 1 13 9.449V8.6a1.883 1.883 0 0 1-.828-1.55V5.906c0-1.053.886-1.906 1.98-1.906h.131z" fill="#8222FF"/>
        <path d="M18.846 11.425a.867.867 0 0 0-.03-.021L16.41 9.726a.82.82 0 0 0-.58-.143 1.11 1.11 0 0 0-.435-.09h-2.33c-.045 0-.09.004-.134.009l-1.557-1.358-1.919-1.898a.829.829 0 0 0-1.224.05.968.968 0 0 0 .046 1.306l1.939 1.917a.889.889 0 0 0 .04.038l1.63 1.422 4.687 1.069 1.281.893 1.777 1.35a.826.826 0 0 0 .502.172.85.85 0 0 0 .706-.388.964.964 0 0 0-.203-1.289l-1.79-1.361z" stroke="#8222FF" stroke-width=".5" fill="#8222FF"/>
    </g>
</svg>
