<svg width="28" height="28" viewBox="0 0 28 28" xmlns="http://www.w3.org/2000/svg">
    <g fill="none" fill-rule="evenodd">
        <path fill="#FFF" d="M-430-80H594v349H-430z"/>
        <path d="M14-3c4.705 0 8.963 1.911 12.04 5H125c7.732 0 14 6.268 14 14s-6.268 14-14 14l-105-.001L14 36l-6-6v-.09C1.571 27.486-3 21.278-3 14-3 4.611 4.611-3 14-3z" fill="#8222FF" stroke="#670BDD" stroke-linejoin="round"/>
        <g>
            <circle stroke="#F2F2F2" fill="#FFF" fill-rule="nonzero" cx="14" cy="14" r="13.5"/>
            <path d="M9.014 15.2a.687.687 0 0 0-.507.824 5.759 5.759 0 0 0 2.809 3.322 5.78 5.78 0 0 0 8.169-3.291c.125-.384-.165-.825-.564-.867a.687.687 0 0 0-.74.45 4.407 4.407 0 0 1-6.77 2.165 4.42 4.42 0 0 1-1.592-2.164.688.688 0 0 0-.805-.44m8.048-4.926a1.32 1.32 0 0 0-1.05 1.118 1.319 1.319 0 0 0 .674 1.325 1.318 1.318 0 0 0 1.427-.111 1.32 1.32 0 0 0 .409-1.56 1.319 1.319 0 0 0-1.46-.772m-6.64.002c-.3.061-.577.232-.767.473a1.318 1.318 0 0 0 .032 1.667 1.32 1.32 0 0 0 1.574.328c.572-.265.879-.975.678-1.573-.182-.628-.88-1.041-1.518-.895M13.782 4h.419a9.955 9.955 0 0 1 4.793 1.336c1.88 1.08 3.39 2.791 4.227 4.791.504 1.194.766 2.486.779 3.781v.18a10 10 0 0 1-.923 4.11 10.055 10.055 0 0 1-2.94 3.695A9.96 9.96 0 0 1 14.083 24h-.281a10.013 10.013 0 0 1-5.085-1.509 10.07 10.07 0 0 1-4.108-5.045A10.033 10.033 0 0 1 4 14.13v-.281c.015-.804.12-1.607.325-2.384a10.019 10.019 0 0 1 4.245-5.86A9.971 9.971 0 0 1 13.782 4" fill="#8222FF"/>
        </g>
    </g>
</svg>
