<svg width="28" height="28" viewBox="0 0 28 28" xmlns="http://www.w3.org/2000/svg">
    <g fill="none" fill-rule="evenodd">
        <path fill="#FFF" d="M-804-80H220v349H-804z"/>
        <path d="M14-3c4.705 0 8.963 1.911 12.04 5H114c7.732 0 14 6.268 14 14s-6.268 14-14 14l-94-.001L14 36l-6-6v-.09C1.571 27.486-3 21.278-3 14-3 4.611 4.611-3 14-3z" fill="#8222FF" stroke="#670BDD" stroke-linejoin="round"/>
        <g>
            <circle stroke="#F2F2F2" fill="#FFF" fill-rule="nonzero" cx="14" cy="14" r="13.5"/>
            <path d="M13.525 4h.066c.337.012.67.163.883.425.185.216.27.502.27.783l-.001 7.154c0 .126.012.267.11.36.144.16.427.158.568-.007.122-.126.103-.313.104-.473V5.917c.006-.375.201-.742.52-.949a1.187 1.187 0 0 1 1.363.042c.291.212.456.563.464.917-.004 2.404 0 4.81-.002 7.214 0 .12.015.25.101.342.138.16.41.17.56.02.1-.091.123-.233.121-.361-.002-1.638.002-3.276-.002-4.914.01-.369.194-.733.507-.942a1.193 1.193 0 0 1 1.316-.013c.324.206.517.578.527.955-.004 3.46.001 6.92-.003 10.381-.017 1.346-.444 2.733-1.39 3.732-.42.462-.945.823-1.516 1.08-.905.411-1.91.559-2.899.579h-.323c-1.326-.026-2.683-.257-3.847-.91-.852-.469-1.562-1.161-2.098-1.959-1.203-1.787-2.4-3.577-3.601-5.365a1.775 1.775 0 0 1-.307-.748c-.06-.4.052-.826.323-1.131a1.32 1.32 0 0 1 .867-.44c.432-.046.872.116 1.19.401.136.115.237.263.345.403.51.685 1.017 1.37 1.527 2.054V6.731c-.004-.392.19-.785.528-.998a1.192 1.192 0 0 1 1.331.028c.304.212.486.572.487.937.003 1.915-.002 3.829.003 5.743-.01.222.195.428.425.399.22-.013.371-.229.354-.436V5.21c0-.228.05-.46.174-.655.199-.327.569-.535.955-.555" fill="#8222FF"/>
        </g>
    </g>
</svg>
