<svg xmlns="http://www.w3.org/2000/svg" width="30" height="30" viewBox="0 0 30 30"><g fill="none" fill-rule="evenodd"><g fill="#00B6B1"><circle cx="15" cy="15" r="14.5" fill="#FFF" fill-rule="nonzero" stroke="#F2F2F2"/><path d="M19.117 21.866c-.308-1.864-.832-3.25-1.289-4.14a7.886 7.886 0 0 1 3.992 3.358c-.474.212-1.38.534-2.703.782m-3.927.343c-1.213 0-2.275-.083-3.187-.206.525-2.92 1.652-4.447 1.857-4.698.375-.054.75-.114 1.14-.114.387 0 .758.06 1.13.113.219.286 1.277 1.833 1.764 4.744a22.63 22.63 0 0 1-2.704.161m-4.406-.414c-1.287-.26-2.131-.575-2.572-.766a7.888 7.888 0 0 1 3.909-3.287c-.474.88-1.014 2.235-1.337 4.053M15 15.977a9.118 9.118 0 0 0-8.75 6.491c.321.317.666.611 1.022.892.096-.428.216-.846.377-1.245.507.227 1.48.59 2.949.882a19.184 19.184 0 0 0-.102 1.988c0 .073.01.133.01.206.41.157.83.291 1.258.405-.008-.208-.031-.394-.031-.611 0-.636.035-1.226.09-1.78a24.957 24.957 0 0 0 6.238.047c.05.541.083 1.115.083 1.733 0 .228-.022.424-.031.642.428-.11.847-.239 1.255-.391.001-.088.013-.162.013-.251 0-.683-.036-1.317-.093-1.914 1.495-.274 2.521-.64 3.082-.896.15.381.262.782.354 1.187.358-.28.703-.576 1.027-.894A9.118 9.118 0 0 0 15 15.977M14.11 11.804a1.408 1.408 0 0 0-1.216-.69c-.775 0-1.404.618-1.404 1.38 0 .761.63 1.378 1.404 1.378.52 0 .973-.277 1.216-.689l1.592-.001c.2 0 .383-.083.51-.214a.724.724 0 0 0 .15-.113l3.174-3.12h2.482a.695.695 0 0 0 .702-.69c0-.38-.314-.69-.702-.69h-2.807a.706.706 0 0 0-.612.352l-.012.01-3.141 3.087H14.11zM7.979 11.114h2.81c.262 0 .49-.141.611-.351l.013-.011 3.14-3.085h1.337c.243.412.696.688 1.216.688a1.39 1.39 0 0 0 1.403-1.378c0-.761-.628-1.38-1.403-1.38-.52 0-.974.278-1.216.69h-1.592a.708.708 0 0 0-.51.216.743.743 0 0 0-.15.112l-3.176 3.12H7.979a.696.696 0 0 0-.702.69c0 .38.314.69.702.69"/></g></g></svg>