<svg width="28" height="28" viewBox="0 0 28 28" xmlns="http://www.w3.org/2000/svg">
    <g fill="none" fill-rule="evenodd">
        <path fill="#FFF" d="M-243-80H781v349H-243z"/>
        <path d="M14-3c4.705 0 8.963 1.911 12.04 5H125c7.732 0 14 6.268 14 14s-6.268 14-14 14l-105-.001L14 36l-6-6v-.09C1.571 27.486-3 21.278-3 14-3 4.611 4.611-3 14-3z" fill="#8222FF" stroke="#670BDD" stroke-linejoin="round"/>
        <g>
            <circle stroke="#F2F2F2" fill="#FFF" fill-rule="nonzero" cx="14" cy="14" r="13.5"/>
            <g fill="#8222FF">
                <path d="M13.055 2.537a2.612 2.612 0 0 1 1.808.349 2.536 2.536 0 0 1 1.176 1.751 2.509 2.509 0 0 1-.462 1.894 2.602 2.602 0 0 1-3.521.605 2.508 2.508 0 0 1-.648-3.582 2.582 2.582 0 0 1 1.647-1.017M12.516 8.203c.672-.002 1.344-.003 2.017 0 .89.014 1.764.467 2.266 1.194.987 1.427 1.972 2.858 2.958 4.287.245.344.319.81.156 1.202-.184.473-.739.767-1.241.669a1.212 1.212 0 0 1-.769-.503c-.512-.735-1.022-1.473-1.535-2.208v11.444c.01.363-.166.725-.464.94-.363.273-.902.302-1.286.052a1.237 1.237 0 0 1-.557-1.045v-6.688c.015-.13-.08-.27-.219-.277a12.022 12.022 0 0 0-.65-.001c-.145 0-.255.141-.235.28v6.537c-.002.186.014.376-.036.559a1.16 1.16 0 0 1-.709.78 1.122 1.122 0 0 1-.977-.081 1.23 1.23 0 0 1-.583-1.05V12.868l-1.535 2.206c-.19.28-.51.468-.85.5a1.155 1.155 0 0 1-1.074-.49A1.199 1.199 0 0 1 7.1 13.95c.063-.149.163-.278.255-.41l2.853-4.125c.506-.745 1.4-1.21 2.309-1.213z"/>
            </g>
        </g>
    </g>
</svg>
