<svg xmlns="http://www.w3.org/2000/svg" xmlns:xlink="http://www.w3.org/1999/xlink" width="28" height="28" viewBox="0 0 28 28"><defs><circle id="jonjnm1d7a" cx="14" cy="14" r="14"/><path id="d8rv0m7bvc" d="M10.393 0c4.276 0 7.742 3.445 7.742 7.692v1.722a2.327 2.327 0 0 1-.189 4.591 7.722 7.722 0 0 1-4.497 5.372L14 23.383H6l.574-4.116a7.72 7.72 0 0 1-4.246-5.246h-.002a2.326 2.326 0 0 1-.191-4.645V7.692C2.135 3.445 5.602 0 9.877 0h.516zm1.043 14.74c-.367.139-.734.226-1.116.16a2.183 2.183 0 0 1-1.14-.163.85.85 0 0 0-.602-.013c-.176.061-.278.21-.295.412-.023.263.11.44.321.552.79.42 1.625.558 2.504.338.267-.067.538-.131.78-.269.325-.185.468-.507.353-.773-.12-.277-.43-.387-.805-.245zM9.8 10.382c-.408 0-.74.25-.793.564L9 11.034v1.698c0 .362.365.65.8.65.409 0 .74-.248.793-.563l.007-.087v-1.698c0-.363-.364-.651-.8-.651zm3.203-1.023c-.432.716-.436 1.378.126 2.024.386.442.98.407 1.343.096.37-.317.506-.715.51-1.238.036-.14-.027-.333-.087-.516-.125-.385-.369-.704-.788-.792-.443-.093-.859.018-1.104.426zm-7.427-.238c-.699.59-.773 1.72-.007 2.359.374.312.849.31 1.23.005.378-.304.534-.706.524-1.175 0-.438-.102-.745-.34-1.027-.363-.428-.99-.514-1.407-.162zm-1.22-1.528c-.102.024-.21.062-.28.17-.194.306-.002.621.402.654.331.028.648-.067.972-.106.674-.08 1.314.054 1.943.292.318.12.678-.117.642-.397-.004-.242-.15-.405-.473-.532-1.059-.416-2.131-.336-3.206-.081zm10-.21-.247.012c-.123 0-.247-.005-.37 0a3.798 3.798 0 0 0-1.546.406c-.215.107-.287.304-.223.525.056.19.203.273.414.267.183-.005.353-.036.527-.092.541-.177 1.085-.26 1.665-.155.288.052.592.102.896.075.293-.025.505-.169.526-.382.023-.233-.118-.404-.435-.466-.32-.063-.638-.145-.962-.177l-.244-.013z"/></defs><g fill="none" fill-rule="evenodd"><mask id="biakfe2scb" fill="#fff"><use xlink:href="#jonjnm1d7a"/></mask><use fill="#FFF" fill-rule="nonzero" xlink:href="#jonjnm1d7a"/><g mask="url(#biakfe2scb)"><g transform="translate(4 5)"><mask id="alohyt2b8d" fill="#fff"><use xlink:href="#d8rv0m7bvc"/></mask><use fill="#8222FF" xlink:href="#d8rv0m7bvc"/><g stroke="#8222FF" stroke-width=".1" mask="url(#alohyt2b8d)"><path d="M14.983 10.242c-.005.523-.14.92-.51 1.238-.363.31-.958.346-1.344-.096-.562-.646-.558-1.308-.126-2.024.245-.408.661-.52 1.104-.426.419.088.663.407.788.792.06.183.123.376.088.516M7.323 10.311c.01.469-.146.871-.524 1.175-.381.305-.856.307-1.23-.005-.766-.64-.692-1.769.007-2.36.417-.351 1.044-.265 1.407.163.238.282.34.589.34 1.027M8.035 8.207c.036.28-.324.517-.642.397-.629-.238-1.27-.372-1.943-.292-.324.039-.64.134-.972.106-.404-.033-.596-.348-.401-.654.069-.108.177-.146.279-.17 1.075-.255 2.147-.335 3.206.081.323.127.469.29.473.532M14.11 7.396c.497-.054.973.084 1.453.178.317.062.458.233.435.466-.021.213-.233.357-.526.382-.304.027-.608-.023-.896-.075-.58-.104-1.124-.022-1.665.155a1.835 1.835 0 0 1-.527.092c-.21.006-.358-.076-.414-.267-.064-.221.008-.418.223-.525a3.798 3.798 0 0 1 1.546-.406c.123-.005.247 0 .37 0"/></g></g></g></g></svg>