<svg xmlns="http://www.w3.org/2000/svg" width="30" height="30" viewBox="0 0 30 30">
    <g fill="none" fill-rule="evenodd">
        <g fill-rule="nonzero">
            <circle cx="15" cy="15" r="14.5" fill="#FFF" stroke="#F2F2F2"/>
            <g transform="translate(6 1.5)">
                <path fill="#00B400" stroke="#00B400" d="M8.488 12.658H6.985l-2.963 8.395h7.43l-2.964-8.395z"/>
                <g fill="#00B400">
                    <path stroke="#FFF" d="M16.301 14.967A7.453 7.453 0 0 1 5.785 4.45l10.516 10.516z"/>
                    <path d="M14.173 6.144a.525.525 0 0 1 .683.683l-2.21 5.526a.525.525 0 0 1-.86.176L8.472 9.213a.525.525 0 0 1 .176-.858l5.526-2.21zm-4.397 2.89l2.19 2.19 1.46-3.65-3.65 1.46z"/>
                </g>
                <circle cx="13.816" cy="7.184" r="1.158" fill="#FFF" stroke="#00B400"/>
            </g>
        </g>
    </g>
</svg>
