<svg xmlns="http://www.w3.org/2000/svg" width="30" height="30" viewBox="0 0 30 30">
    <g fill="none" fill-rule="evenodd">
        <circle cx="15" cy="15" r="14.5" fill="#FFF" fill-rule="nonzero" stroke="#F2F2F2"/>
        <path fill="#00B400" d="M10 10h12.5a1.5 1.5 0 0 1 1.5 1.5v9a1.5 1.5 0 0 1-1.5 1.5h-15A1.5 1.5 0 0 1 6 20.5v-9A1.5 1.5 0 0 1 7.5 10H9V7.5A2.5 2.5 0 0 1 11.5 5h6A1.5 1.5 0 0 0 19 3.5v-2h1v2A2.5 2.5 0 0 1 17.5 6h-6A1.5 1.5 0 0 0 10 7.5V10z"/>
        <path fill="#FFF" fill-rule="nonzero" d="M9 14a1 1 0 1 1 0-2 1 1 0 0 1 0 2zm4 0a1 1 0 1 1 0-2 1 1 0 0 1 0 2zm2 3a1 1 0 1 1 0-2 1 1 0 0 1 0 2zm4 0a1 1 0 1 1 0-2 1 1 0 0 1 0 2zm-8 0a1 1 0 1 1 0-2 1 1 0 0 1 0 2zm6-3a1 1 0 1 1 0-2 1 1 0 0 1 0 2zm4 0a1 1 0 1 1 0-2 1 1 0 0 1 0 2zM9.5 19h11a.5.5 0 1 1 0 1h-11a.5.5 0 1 1 0-1z"/>
        <path fill="#FFF" fill-rule="nonzero" stroke="#F2F2F2" d="M15 29.5c8.008 0 14.5-6.492 14.5-14.5S23.008.5 15 .5.5 6.992.5 15 6.992 29.5 15 29.5zm0 0C6.992 29.5.5 23.008.5 15S6.992.5 15 .5 29.5 6.992 29.5 15 23.008 29.5 15 29.5z"/>
    </g>
</svg>
