<svg xmlns="http://www.w3.org/2000/svg" width="22" height="22" viewBox="0 0 22 22">
    <g fill="none" fill-rule="evenodd">
        <circle cx="11" cy="11" r="11" fill="#009400"/>
        <path fill="#3BCE3B" d="M8.2 16.2H9a.8.8 0 0 1 0 1.6H5.8a.8.8 0 1 1 0-1.6h.8V5.8a.8.8 0 1 1 1.6 0v10.4zm3.622-4.31c-.952.19-2.09.123-2.66-.261A.34.34 0 0 1 9 11.343V6.01a.333.333 0 0 1 .542-.26c.571.38 1.331.473 2.28.283 1.429-.286 2.68-1.328 5.062-.278.13.065.115.154.115.255v5.333c0 .184-.149.334-.333.334-.092 0-.214-.065-.344-.113-2.197-.782-3.071.039-4.5.325z"/>
    </g>
</svg>
