<svg xmlns="http://www.w3.org/2000/svg" width="22" height="22" viewBox="0 0 22 22">
    <g fill="none" fill-rule="evenodd">
        <circle cx="11" cy="11" r="11" fill="#AD2800"/>
        <path fill="#FF6739" d="M15.144 10.943H13.85v4.859c0 .167-.031.198-.188.198H12.61c-.156 0-.208-.031-.208-.198V6.198c0-.156.052-.198.208-.198h1.053c.157 0 .188.042.188.198v3.556h1.293c.125 0 .208 0 .208.198v.793c0 .166-.083.198-.208.198zm-8.217 2.909c-.198.115-.271.125-.386-.031l-.49-.73c-.094-.136-.052-.271.073-.344 2.096-1.179 3.327-2.743 3.577-4.568.02-.146-.032-.219-.157-.219H6.635c-.177 0-.198-.052-.198-.208V6.97c0-.167.042-.198.198-.198h3.796c.698 0 .865.27.823.886-.166 2.503-1.74 4.776-4.327 6.194z"/>
    </g>
</svg>
