<svg xmlns="http://www.w3.org/2000/svg" width="22" height="22" viewBox="0 0 22 22">
    <g fill="none" fill-rule="evenodd">
        <circle cx="11" cy="11" r="11" fill="#E43500" fill-rule="nonzero"/>
        <path fill="#FF9354" d="M15.613 10.943H14.32v4.859c0 .167-.031.198-.188.198H13.08c-.156 0-.208-.031-.208-.198V6.198c0-.156.052-.198.208-.198h1.053c.157 0 .188.042.188.198v3.556h1.293c.125 0 .209 0 .209.198v.793c0 .166-.084.198-.209.198zm-8.217 2.909c-.198.115-.27.125-.386-.031l-.49-.73c-.093-.136-.052-.271.073-.344 2.096-1.179 3.327-2.743 3.577-4.568.02-.146-.031-.219-.156-.219h-2.91c-.177 0-.198-.052-.198-.208V6.97c0-.167.042-.198.198-.198H10.9c.699 0 .865.27.824.886-.167 2.503-1.742 4.776-4.328 6.194z"/>
    </g>
</svg>
