<svg xmlns="http://www.w3.org/2000/svg" width="22" height="22" viewBox="0 0 22 22">
    <g fill="none" fill-rule="evenodd">
        <circle cx="11" cy="11" r="11" fill="#B819B3"/>
        <path fill="#F778F3" d="M7 9.135c0-.475.152-.956.457-1.444.306-.487.75-.891 1.336-1.211C9.378 6.16 10.06 6 10.84 6c.725 0 1.365.134 1.92.401.555.268.984.631 1.286 1.091.303.46.454.96.454 1.5 0 .426-.086.798-.259 1.118a3.42 3.42 0 0 1-.615.829c-.237.232-.663.623-1.278 1.174-.17.155-.307.29-.41.408a1.66 1.66 0 0 0-.228.323c-.05.097-.089.195-.116.292-.028.098-.069.269-.124.514-.095.52-.392.78-.893.78a.912.912 0 0 1-.656-.255c-.177-.17-.266-.422-.266-.758 0-.42.065-.783.195-1.09a2.77 2.77 0 0 1 .518-.81c.215-.233.504-.51.87-.83.32-.28.55-.49.693-.633.143-.143.263-.301.36-.476.098-.176.146-.365.146-.57 0-.4-.148-.738-.446-1.013-.297-.275-.681-.413-1.151-.413-.55 0-.955.14-1.215.417-.26.277-.48.686-.66 1.226-.17.565-.492.848-.968.848a.951.951 0 0 1-.708-.297C7.096 9.58 7 9.365 7 9.135zm3.66 8.22a1.18 1.18 0 0 1-.799-.296c-.227-.198-.341-.474-.341-.829 0-.315.11-.58.33-.795.22-.215.49-.322.81-.322.315 0 .58.107.795.322.215.215.322.48.322.795 0 .35-.112.625-.337.825-.225.2-.485.3-.78.3z"/>
    </g>
</svg>
