<svg xmlns="http://www.w3.org/2000/svg" xmlns:xlink="http://www.w3.org/1999/xlink" width="160" height="160" viewBox="0 0 160 160">
    <defs>
        <circle id="a" cx="80" cy="80" r="80"/>
    </defs>
    <g fill="none" fill-rule="evenodd">
        <mask id="b" fill="#fff">
            <use xlink:href="#a"/>
        </mask>
        <use fill="#4C5280" fill-rule="nonzero" xlink:href="#a"/>
        <g mask="url(#b)">
            <path fill="#FFF" d="M96.449 61.468c.055-.03.123-.06.18-.089 2.853-1.538 3.925-5.116 2.401-7.988-1.204-2.258-.964-5.652-.806-6.688.275-.964.82-2.406 1.669-2.713 1.95-.731 6.38 1.19 8.7 2.795a5.839 5.839 0 0 0 8.147-1.497c1.836-2.67 1.187-6.335-1.458-8.19-1.08-.767-10.83-7.355-19.398-4.195-3.11 1.135-7.189 3.977-9.04 10.98l-.09.366c-.164.833-1.483 8.267 1.941 14.712 1.5 2.815 4.937 3.91 7.754 2.507"/>
            <path fill="#663413" d="M106.968 43.146c.429-.217.885-.241 1.32-.187a2.33 2.33 0 0 1-1.337-1.178 2.373 2.373 0 0 1 1.066-3.165 2.331 2.331 0 0 1 1.665-.137 2.292 2.292 0 0 1-1.183-1.096 2.367 2.367 0 0 1 1.07-3.157c.108-.057.22-.058.334-.09 2.862 1.24 4.917 2.63 5.379 2.962 2.645 1.856 3.295 5.518 1.458 8.189a5.84 5.84 0 0 1-8.147 1.499c-.78-.545-1.81-1.119-2.896-1.616.033-.837.478-1.627 1.271-2.024"/>
            <path fill="#FFF" d="M62.722 60.986a2.053 2.053 0 0 1-.187-.07c-3.002-1.207-4.46-4.644-3.264-7.671.945-2.382.332-5.718.058-6.74-.376-.921-1.072-2.297-1.962-2.511-2.018-.495-6.205 1.91-8.332 3.758a5.837 5.837 0 0 1-8.263-.569c-2.117-2.455-1.884-6.157.54-8.306.996-.878 9.956-8.526 18.824-6.344 3.216.777 7.581 3.144 10.198 9.9l.125.354c.25.807 2.39 8.047-.313 14.84-1.173 2.966-4.463 4.442-7.424 3.359"/>
            <path fill="#663413" d="M50.244 43.96c-.444-.167-.897-.14-1.329-.041a2.319 2.319 0 0 0 1.195-1.323 2.371 2.371 0 0 0-1.401-3.025c-.57-.204-1.157-.151-1.678.056.467-.27.858-.676 1.05-1.214a2.365 2.365 0 0 0-1.403-3.028c-.116-.043-.224-.032-.342-.056-2.71 1.557-4.595 3.172-5.025 3.548-2.423 2.143-2.656 5.852-.53 8.306 2.113 2.445 5.812 2.701 8.255.569.718-.626 1.677-1.307 2.698-1.926-.131-.826-.653-1.565-1.49-1.865"/>
            <g>
                <path fill="#FFF" d="M123.573 170.077c2.4 0 4.624-1.863 5.414-4.79 10.532-39.198-9.539-57.775-10.276-58.547-2.393-2.5-5.482-4.366-7.085-2.715-2.494 2.57-.479 7.69 1.87 10.199.589.657 12.666 16.935 4.663 46.727-.983 3.645.648 7.582 3.638 8.776.591.24 1.19.35 1.776.35"/>
                <path fill="#098AC5" d="M128.204 121.979s-6.642-3.837-9.97 2.163c0 0 2.585 6.701 2.645 15.567h11.158s0-8.289-3.833-17.73"/>
                <path fill="#229FD9" d="M142.9 136.405c0 5.739-5.945 10.394-13.275 10.394-7.333 0-13.279-4.655-13.279-10.394 0-5.74 5.946-10.397 13.279-10.397 7.33 0 13.276 4.656 13.276 10.397"/>
                <path fill="#057199" d="M124.965 146.556c.915.154 1.863.243 2.836.243.976 0 1.922-.089 2.833-.243v-8.826h-5.67v8.826z"/>
                <path fill="#098AC5" d="M119.603 139.291a2.837 2.837 0 0 1 2.838 2.835v2.508a2.839 2.839 0 0 1-2.838 2.834H113.7a2.839 2.839 0 0 1-2.839-2.834v-2.508a2.837 2.837 0 0 1 2.839-2.835h5.903z"/>
                <g>
                    <path fill="#FFF" d="M34.32 168.642c-2.401 0-4.632-1.863-5.415-4.794-10.537-39.195 9.54-57.77 10.276-58.546 2.396-2.496 5.485-4.363 7.086-2.71 2.494 2.566.478 7.69-1.868 10.194-.593.656-12.666 16.938-4.663 46.73.983 3.645-.648 7.58-3.638 8.78a4.777 4.777 0 0 1-1.778.346"/>
                    <path fill="#098AC5" d="M29.36 121.367s6.644-3.834 9.969 2.166c0 0-2.255 6.705-2.32 15.562H25.855s.052-8.402 3.504-17.728"/>
                    <path fill="#229FD9" d="M14.143 136.405c0 5.739 5.949 10.394 13.279 10.394 7.333 0 13.276-4.655 13.276-10.394 0-5.74-5.943-10.397-13.276-10.397-7.33 0-13.279 4.656-13.279 10.397"/>
                    <path fill="#057199" d="M28.434 146.556c-.916.154-1.86.243-2.837.243-.975 0-1.922-.089-2.832-.243v-8.826h5.669v8.826z"/>
                    <path fill="#098AC5" d="M36.533 139.291a2.835 2.835 0 0 0-2.836 2.835v2.508a2.837 2.837 0 0 0 2.836 2.834h5.905a2.838 2.838 0 0 0 2.834-2.834v-2.508a2.836 2.836 0 0 0-2.834-2.835h-5.905z"/>
                </g>
                <g>
                    <path fill="#229FD9" d="M42.65 102.016v-30.69s1.417-27.624 35.899-27.544c0 0 36.656-1.039 35.904 27.813v71.791H42.65v-41.37z"/>
                    <path fill="#098AC5" d="M89.962 123.634c0-6.35-5.106-11.498-11.413-11.498-6.298 0-11.41 5.148-11.41 11.498v17.943l-.004.013c0 6.35 5.116 11.498 11.414 11.498 6.307 0 11.413-5.148 11.413-11.498v-17.956z"/>
                </g>
            </g>
            <g>
                <path fill="#FFF" d="M110.065 58.698c-.296-.523-.707-1.107-1.233-1.752-8.063-9.48-20.934-10.544-25.524-10.75-1.2-.053-1.51-.09-1.51-.09-24.849-.944-37.882 13.46-38.387 30.064-.01.092-.015.178-.02.296 0 .197-.028.388-.028.58-.126 6.63 1.531 30.563 33.38 30.796.111.006 10.994.924 23.517-.008 11.03 0 19.206-8.671 19.206-19.784 0-7.396-2.385-12.545-5.956-15.323.509-6.175-2.107-11.67-3.445-14.03z"/>
                <path fill="#000" d="M81.693 85.117c.735.127.788.512 1.076 1.006.382.646.771 1.364 1.347 1.794 2.911 2.178 6.287 1.681 8.78-1.088.377-.424.976-1.097 1.694-.768.447.468.476 1.25-.13 2.04-1.182 1.815-2.916 2.868-5.099 3.135-2.887.347-5.421-.441-7.668-2.52-2.24 2.079-4.775 2.867-7.669 2.52-2.181-.267-3.916-1.32-5.099-3.134-.605-.791-.57-1.573-.123-2.04.712-.33 1.312.343 1.694.767 2.488 2.77 5.863 3.266 8.774 1.088.576-.43.965-1.148 1.347-1.794.294-.494.347-.88 1.076-1.006zm.006-4.608c.782 0 1.405.7 1.405 1.553 0 .858-.623 1.553-1.405 1.553s-1.418-.695-1.418-1.553c0-.852.636-1.553 1.418-1.553zm-9.727-4.757c1.382-.006 2.447 1.253 2.387 2.923-.117 1.194-.846 2.008-2.223 1.964-1.517-.056-2.375-.956-2.346-2.5.024-1.379.641-2.381 2.182-2.387zm18.154.091c1.559.085 2.153 1.179 2.235 2.585-.112 1.438-.83 2.184-2.235 2.129-1.47-.065-2.234-.903-2.194-2.37.036-1.385.648-2.435 2.194-2.344z"/>
                <path fill="#FFBFB6" d="M66.037 84.388c0 5.552-4.468 10.053-9.979 10.053-5.506 0-9.972-4.501-9.972-10.053 0-5.549 4.466-10.05 9.972-10.05 5.51 0 9.979 4.501 9.979 10.05M116.613 84.388c0 5.552-4.466 10.053-9.976 10.053-5.509 0-9.972-4.501-9.972-10.053 0-5.549 4.463-10.05 9.972-10.05 5.51 0 9.976 4.501 9.976 10.05"/>
            </g>
            <g>
                <path fill="#B9B9B8" d="M130.418 129.066c0 .916-.744 1.66-1.66 1.66H28.387a1.66 1.66 0 0 1-1.66-1.66v-1.595c0-.917.745-1.66 1.66-1.66h100.37a1.66 1.66 0 0 1 1.66 1.66v1.595z"/>
                <path fill="#B9B9B8" d="M26.729 130.654h103.733v-3.183H26.729z"/>
                <path fill="#ECECEC" d="M121.003 164.355c0 .962-.78 3.048-1.74 3.048H36.818c-.962 0-1.74-2.086-1.74-3.048l-8.348-33.227c0-.96.78-1.919 1.74-1.919h100.187c.96 0 1.74.958 1.74 1.919l-9.393 33.227z"/>
                <path fill="#D5D6D5" d="M111.682 129.21h17.042c.96 0 1.738.484 1.738 1.444l-8.348 33.799c0 .96-.779 2.95-1.737 2.95H49.258l62.424-38.194z"/>
                <path fill="#A2A2A3" d="M84.648 152.668c0 .611-.495 1.107-1.106 1.107H73.45c-.61 0-1.107-.496-1.107-1.107v-4.104c0-.61.496-1.106 1.107-1.106h10.092c.61 0 1.106.496 1.106 1.106v4.104zm2.132-7.81H70.212a1.66 1.66 0 0 0-1.66 1.66v28.335H88.44v-28.335c0-.917-.744-1.66-1.66-1.66z"/>
            </g>
        </g>
        <g fill="#FFED74">
            <path d="M130.305 67a2.327 2.327 0 0 1-2-2 2.33 2.33 0 0 1-2 2 2.33 2.33 0 0 1 2 2 2.329 2.329 0 0 1 2-2M82.473 29.236A3.766 3.766 0 0 1 79.237 26 3.769 3.769 0 0 1 76 29.236a3.772 3.772 0 0 1 3.237 3.237 3.769 3.769 0 0 1 3.236-3.237M132.473 44.236A3.766 3.766 0 0 1 129.237 41 3.769 3.769 0 0 1 126 44.236a3.772 3.772 0 0 1 3.237 3.237 3.769 3.769 0 0 1 3.236-3.237M33.094 67a2.328 2.328 0 0 1-2-2 2.327 2.327 0 0 1-2 2c1.04.137 1.863.96 2 2a2.33 2.33 0 0 1 2-2M32 34.683c-1.56-.183-2.794-1.288-3-2.683-.206 1.395-1.44 2.5-3 2.683 1.56.185 2.794 1.288 3 2.683.206-1.395 1.44-2.498 3-2.683M136.252 96.157a5.513 5.513 0 0 1-4.735-4.736 5.516 5.516 0 0 1-4.74 4.736 5.519 5.519 0 0 1 4.74 4.738 5.516 5.516 0 0 1 4.735-4.738M34.318 96.157a5.515 5.515 0 0 1-4.737-4.736 5.515 5.515 0 0 1-4.737 4.736 5.517 5.517 0 0 1 4.737 4.738 5.517 5.517 0 0 1 4.737-4.738"/>
            <path fill-rule="nonzero" d="M147.083 71.656v3.312l.866-.865.476.476-.865.865h1.25v.674h-1.251l.866.866-.476.476-.866-.866v3.313h-.673v-3.313l-.866.866-.476-.476.866-.866h-1.25v-.673l1.249-.001-.865-.865.476-.476.866.865v-3.312h.673zM12.756 77.148v3.472l.908-.907.5.5-.909.907h1.551v.707h-1.551l.908.908-.5.499-.907-.908V85.8h-.706v-3.475l-.908.909-.499-.5.908-.908-1.551.001v-.706h1.551l-.908-.908.5-.5.907.908v-3.473h.706zM64.756 14v3.472l.908-.907.5.5-.909.907h1.551v.707l-1.551-.001.908.908-.5.5-.907-.908v3.473h-.706v-3.474l-.908.909-.499-.5.908-.908H62v-.705l1.551-.001-.908-.908.5-.499.907.908V14h.706zM97.756 13v3.472l.908-.907.5.5-.909.907h1.551v.707l-1.551-.001.908.908-.5.5-.907-.908v3.473h-.706v-3.474l-.908.909-.499-.5.908-.908H95v-.705l1.551-.001-.908-.908.5-.499.907.908V13h.706z"/>
        </g>
    </g>
</svg>
