<svg xmlns="http://www.w3.org/2000/svg" width="264" height="168" viewBox="0 0 264 168">
    <g fill="none" fill-rule="evenodd">
        <g transform="translate(66 22)">
            <circle cx="64" cy="64" r="63.06" stroke="#32D27D" stroke-width="1.88" opacity=".401"/>
            <circle cx="64" cy="64" r="54" fill="#32D27D" opacity=".3"/>
            <circle cx="64" cy="64" r="45" fill="#32D27D"/>
            <path fill="#FFF" d="M50.341 66.166c.348 7.193 6.33 12.92 13.659 12.92 7.255 0 13.191-5.613 13.647-12.705l.012-.215H83c-.316 9.112-7.133 16.584-15.987 17.984V93H61.01v-8.846C52.144 82.763 45.317 75.286 45 66.166h5.341zM64.296 39a8.388 8.388 0 0 1 8.387 8.388v18.01a8.388 8.388 0 0 1-8.387 8.387h-.235a8.388 8.388 0 0 1-8.388-8.387v-18.01A8.388 8.388 0 0 1 64.061 39h.235z"/>
        </g>
        <g transform="translate(158 93)">
            <rect width="56" height="36" fill="#FFF" rx="8"/>
            <path fill="#FFF" d="M39.48 18.5L51.5 7.48 63.52 18.5 51.5 29.52z"/>
            <g fill="#49E391" transform="translate(10 7)">
                <rect width="4" height="18" x="8" y="2" rx="2"/>
                <rect width="4" height="14" x="16" y="4" rx="2"/>
                <rect width="4" height="11" y="5" rx="2"/>
                <rect width="4" height="12" x="32" y="5" rx="2"/>
                <rect width="4" height="21" x="24" rx="2"/>
            </g>
        </g>
    </g>
</svg>
