<svg xmlns="http://www.w3.org/2000/svg" xmlns:xlink="http://www.w3.org/1999/xlink" width="264" height="168" version="1.1" viewBox="0 0 264 168"><title>E9656C82-82CF-4F16-8BF6-CE49B7D52827</title><g id="230811_수정" fill="none" fill-rule="evenodd" stroke="none" stroke-width="1"><g id="230811_ws비디오감지개선" transform="translate(-16.000000, -1344.000000)"><g id="오디오감지" transform="translate(16.000000, 1290.000000)"><g id="img_img3" transform="translate(0.000000, 54.000000)"><g id="Group-17" transform="translate(75.000000, 20.000000)"><g id="Group-8" fill="#3B82F6" stroke="#3B82F6" stroke-width=".4" transform="translate(86.000000, 82.000000)"><path id="Fill-1" d="M13.6987,39.6006 C13.9507,39.6106 14.2047,39.5166 14.3607,39.3556 C16.1457,37.5586 17.6717,35.5106 18.9017,33.2626 C21.0697,29.3476 22.2617,24.7966 22.3487,20.0966 L22.3187,19.2486 C22.2497,17.8956 22.1837,16.6166 21.9637,15.3546 C21.0627,9.6116 18.3467,4.2416 14.3097,0.2086 C14.1507,0.0736 13.9307,-0.0004 13.7147,-0.0004 C13.6067,-0.0004 13.5017,0.0176 13.4027,0.0546 C12.9527,0.2056 12.6677,0.7626 12.7817,1.2116 C12.8547,1.5476 13.1477,1.8496 13.4877,2.1986 C13.6857,2.4036 13.8837,2.6086 14.0577,2.8256 C18.7807,8.1496 21.0837,15.6306 20.1837,22.7976 C19.5887,28.1406 17.2677,33.2546 13.6517,37.1816 L13.4057,37.4406 C13.1327,37.7236 12.8967,37.9676 12.8107,38.2006 C12.6757,38.5776 12.7597,39.0406 13.0117,39.2926 C13.2017,39.4986 13.4367,39.5956 13.6987,39.6006"/><path id="Fill-4" d="M6.5523,33.5938 C6.8113,33.6258 7.0573,33.5498 7.2173,33.3918 C9.9403,30.5678 11.7183,26.7828 12.2043,22.7578 C12.5093,20.3078 12.3253,17.7008 11.6743,15.2158 C10.8773,12.2238 9.3473,9.4698 7.2483,7.2588 C7.1673,7.1748 7.0523,7.0998 6.9193,7.0468 L6.9153,7.0448 C6.8403,7.0148 6.7583,7.0008 6.6743,7.0008 C6.3723,7.0008 6.0483,7.1868 5.9093,7.4708 C5.6753,7.9038 5.7653,8.4958 6.0813,8.8118 C9.1753,12.1038 10.8143,16.7208 10.4933,21.1898 C10.3493,25.0378 8.7463,28.8968 6.0973,31.7358 C5.7133,32.1118 5.6463,32.7778 5.9153,33.1718 C6.1233,33.5118 6.4293,33.5778 6.5523,33.5938"/><path id="Fill-6" d="M0.7056,25.334 L0.7066,25.335 C1.0046,25.384 1.3056,25.321 1.4746,25.171 C2.6686,24.099 3.5296,22.65 3.8976,21.095 C4.5516,18.349 3.5926,15.341 1.4556,13.432 C1.4156,13.396 1.3026,13.334 1.1296,13.282 C1.0586,13.262 0.9796,13.251 0.8986,13.251 C0.5686,13.251 0.2336,13.421 0.1196,13.646 C-0.0344,13.922 0.0156,14.256 0.2356,14.468 C1.6796,15.84 2.4596,17.764 2.3216,19.613 C2.2576,21.272 1.4846,22.918 0.2046,24.123 C-0.0094,24.332 -0.0654,24.703 0.0846,24.932 C0.2146,25.156 0.4216,25.287 0.7056,25.334"/></g><g id="Group-3" fill="#FFF" stroke="#CFE1EB" transform="translate(0.000000, 27.000000)"><path id="Fill-1" d="M76.4231657,39.2732871 C76.3532611,37.1888985 76.2900347,35.1018213 76.3132784,33.0168257 C76.4020035,25.033131 73.9656635,18.0355594 68.3141457,12.2710321 C56.4801474,0.200173461 36.1584649,-3.54588031 20.7321856,3.64267129 C10.9824892,8.1859497 4.35100607,15.594536 1.50694709,26.0477016 C-1.22063313,36.0728534 0.016140503,46.035039 3.1247268,55.7193408 C5.30425846,62.5091934 8.21345186,69.0640069 10.758118,75.738595 C11.0867389,76.6006071 11.2994016,77.5426713 11.3680919,78.4624458 C11.8783261,85.2919341 10.3544753,91.7352125 7.55161318,97.9205551 C6.63981787,99.9326106 7.10089154,100.99948 9.37834167,101.000802 C15.6818109,101.000802 21.7023468,100.998526 28.0302124,101.000802 C34.358078,101.000802 40.6656789,100.946834 47.0539703,101.000802 C48.0742652,101.0085 48.4754592,98.7326973 49.0321808,97.9205551 C50.4276708,95.8842151 50.9956654,93.9328306 52.2949715,91.8392487 C53.9000019,89.2530388 57.3679185,88.6994796 60.2837034,88.3590633 C60.8953252,88.2875976 61.5079879,88.2238508 62.121431,88.1662619 C66.4593322,87.0312229 72.7045186,89.0423244 75.244935,84.8083261 C76.4092021,82.7972246 75.6682654,80.2568083 76.1542151,78.0581093 C76.1845707,77.3128361 76.1988812,76.506765 75.9523938,75.8249783 C75.7162405,75.1719603 69.8704409,75.2581565 70.2064801,74.8004627 C70.3687893,74.5793934 74.080462,74.1251598 76.5541284,73.6016479 C77.3843105,73.4259324 77.5305377,72.0795317 77.7377363,71.2348656 C77.9002689,70.5720729 77.6999219,69.8001735 77.576418,69.0915004 C77.2550824,67.2483088 76.811804,65.4235039 76.5602862,63.5718994 C76.3316652,61.8894189 76.7680052,61.5940156 78.4126713,61.1688638 C80.0829228,60.7370338 81.7567303,60.1801388 83.2941977,59.4090199 C85.1289766,58.4888118 85.6713877,56.9061578 85.2119775,54.8826539 C84.210503,50.4718994 81.2443278,47.2300087 78.4937641,43.912229 C77.3168343,42.4923677 76.4842238,41.0898526 76.4231657,39.2732871 Z"/></g><g id="Group-14" transform="translate(39.363798, 0.000000)"><path id="Rectangle" fill="#32D27D" d="M6,0 L57.6853637,0 C60.9990722,2.79460044e-16 63.6853637,2.6862915 63.6853637,6 L63.6853637,34 C63.6853637,37.3137085 60.9990722,40 57.6853637,40 L6,40 C2.6862915,40 1.29399067e-15,37.3137085 0,34 L0,6 C4.82366169e-16,2.6862915 2.6862915,1.4968968e-15 6,0 Z"/><ellipse id="Oval" cx="16.916" cy="20" fill="#FFF" rx="2.985" ry="3"/><ellipse id="Oval" cx="31.843" cy="20" fill="#FFF" rx="2.985" ry="3"/><ellipse id="Oval" cx="46.769" cy="20" fill="#FFF" rx="2.985" ry="3"/><path id="Path-3" fill="#32D27D" d="M11.9410057,33 L20.1028834,45.9508441 C20.5445765,46.6516998 21.4707953,46.8617926 22.171651,46.4200995 C22.367883,46.2964302 22.5327615,46.1289376 22.6533289,45.9307846 L30.5211455,33 L30.5211455,33 L11.9410057,33 Z"/></g></g></g></g></g></g></svg>