<svg width="264" height="168" viewBox="0 0 264 168" xmlns="http://www.w3.org/2000/svg" xmlns:xlink="http://www.w3.org/1999/xlink">
    <defs>
        <path id="1hynaxuh6a" d="M0 0h31v33H0z"/>
        <path id="m9r67zexqc" d="M0 0h31v33H0z"/>
        <path id="7r6l9hb3je" d="M3.462 3.638.631 22.458h38l-3.27-22H3.461z"/>
        <path id="m4n2aljsig" d="M0 .538h21.148v21.149H0z"/>
        <path d="M72.389 55.35c0 19.103-15.491 34.595-34.595 34.595h-2.306C16.385 89.945.894 74.453.894 55.35V34.594C.894 15.49 16.385 0 35.488 0h2.306C56.898 0 72.39 15.49 72.39 34.594V55.35z" id="sm70cv6q0i"/>
    </defs>
    <g transform="translate(78 23)" fill="none" fill-rule="evenodd">
        <g transform="matrix(1 0 0 -1 0 107)">
            <mask id="sg4i9gqxkb" fill="#fff">
                <use xlink:href="#1hynaxuh6a"/>
            </mask>
            <path d="M17.47 33c-4.925-.246-16.239-.456-17.384-9.857C-1.245 12.198 13.141-2.984 21.3.511c6.058 2.595 8.727 11.166 9.7 15.408-2.386 1.95-4.625 4.178-6.76 6.595-2.683 3.04-4.972 6.613-6.77 10.486" fill="#0087FF" mask="url(#sg4i9gqxkb)"/>
        </g>
        <g transform="rotate(180 54 53.5)">
            <mask id="gsfi52xjwd" fill="#fff">
                <use xlink:href="#m9r67zexqc"/>
            </mask>
            <path d="M17.47 33c-4.925-.246-16.239-.456-17.384-9.857C-1.245 12.198 13.141-2.984 21.3.511c6.058 2.595 8.727 11.166 9.7 15.408-2.386 1.95-4.625 4.178-6.76 6.595-2.683 3.04-4.972 6.613-6.77 10.486" fill="#0087FF" mask="url(#gsfi52xjwd)"/>
        </g>
        <path d="M95.024 67.66V44.207C95.024 22.536 77.488 5 55.818 5h-2.611C31.537 5 14 22.536 14 44.206v23.498l81.024-.043z" fill="#0087FF"/>
        <g transform="translate(34.705 98.617)">
            <mask id="pm9np4xzuf" fill="#fff">
                <use xlink:href="#7r6l9hb3je"/>
            </mask>
            <use fill="#F9C4AB" xlink:href="#7r6l9hb3je"/>
            <path d="M55.494-26.65c0 19.103-15.49 34.595-34.594 34.595h-2.306C-.51 7.945-16-7.547-16-26.65v-20.756C-16-66.51-.51-82 18.594-82H20.9c19.103 0 34.594 15.49 34.594 34.594v20.756z" fill="#EC9C77" mask="url(#pm9np4xzuf)"/>
        </g>
        <g transform="translate(9 60.205)">
            <mask id="4jkfwf2i0h" fill="#fff">
                <use xlink:href="#m4n2aljsig"/>
            </mask>
            <path d="M21.148 11.112c0 5.84-4.734 10.575-10.574 10.575S0 16.952 0 11.112C0 5.272 4.734.538 10.574.538s10.574 4.735 10.574 10.574" fill="#EC9C77" mask="url(#4jkfwf2i0h)"/>
        </g>
        <path d="M99.905 71.317c0 5.84-4.734 10.574-10.574 10.574s-10.574-4.734-10.574-10.574 4.734-10.574 10.574-10.574 10.574 4.734 10.574 10.574z" fill="#EC9C77"/>
        <g transform="translate(17.811 13.617)">
            <mask id="tni8g6zyhj" fill="#fff">
                <use xlink:href="#sm70cv6q0i"/>
            </mask>
            <use fill="#F9C4AB" xlink:href="#sm70cv6q0i"/>
            <circle fill="#FF8077" opacity=".37" mask="url(#tni8g6zyhj)" cx="9" cy="69.031" r="14"/>
            <circle fill="#FF8077" opacity=".37" mask="url(#tni8g6zyhj)" cx="64" cy="69.031" r="14"/>
        </g>
        <g fill="#020205" stroke="#F9C4AB">
            <path d="M70.907 62.917c-.017 1.803-.484 3.178-1.763 4.273-1.251 1.072-3.303 1.195-4.634-.333-1.94-2.228-1.928-4.513-.438-6.986.848-1.409 2.284-1.792 3.812-1.47 1.446.304 2.287 1.406 2.72 2.735.206.63.423 1.298.303 1.781M44.469 63.155c.035 1.617-.504 3.007-1.81 4.054-1.314 1.054-2.952 1.062-4.245-.018-2.643-2.206-2.387-6.104.027-8.142 1.439-1.215 3.6-.918 4.853.561.823.972 1.174 2.031 1.175 3.545M46.928 55.89c.123.967-1.119 1.786-2.216 1.371-2.17-.82-4.382-1.284-6.707-1.006-1.118.133-2.212.461-3.357.367-1.394-.115-2.056-1.204-1.384-2.258.239-.374.613-.506.964-.589 3.71-.877 7.411-1.155 11.065.281 1.116.439 1.62 1 1.635 1.835M67.892 53.092c1.72-.186 3.362.29 5.016.615 1.095.215 1.582.805 1.502 1.607-.073.737-.803 1.232-1.814 1.321-1.05.092-2.1-.081-3.094-.26-2-.36-3.878-.075-5.747.535-.598.195-1.186.3-1.817.318-.728.02-1.237-.264-1.429-.922-.222-.763.028-1.444.768-1.812 1.677-.837 3.457-1.32 5.338-1.4.425-.018.851-.002 1.277-.002"/>
        </g>
        <path d="M54.61 82.62c-1.11.139-2.136-.032-3.137-.45a2.336 2.336 0 0 0-1.653-.037c-.486.17-.766.58-.813 1.133-.062.724.303 1.21.884 1.52 2.171 1.156 4.467 1.534 6.884.928.734-.185 1.481-.36 2.146-.739.895-.51 1.287-1.394.97-2.125-.329-.762-1.183-1.066-2.214-.674-1.01.385-2.018.625-3.067.443" fill="#020205"/>
        <path d="M57.869 73.099a3.445 3.445 0 0 1-3.438 3.438 3.445 3.445 0 0 1-3.438-3.438v-8.965a3.445 3.445 0 0 1 3.438-3.437 3.445 3.445 0 0 1 3.438 3.437V73.1z" fill="#EC9C77"/>
        <path d="M53.78 0c3.658 0 4.606.9 4.916 1.192 1.675 1.584 2.53 3.336 2.945 4.9A42.03 42.03 0 0 1 64.403 6c20.217 0 30.768 14.229 32.26 28.342 1.568 14.804-2.816 22.037-3.3 22.782l-.027.042-.009.012a1.478 1.478 0 0 1-1.104.652c-1.277.109-2.548.17-3.77.17h-.007c-23.864-.007-31.114-20.858-31.538-22.148a61.707 61.707 0 0 1-3.027-11.111C28.079 29.36 17.9 53.772 17.795 54.036c-.235.591-.806.964-1.432.964h-.112a1.553 1.553 0 0 1-1.395-1.174c-3.757-15.205-1.805-27.851 5.81-37.59C29.967 4.322 45.57 0 53.78 0z" fill="#0087FF"/>
        <path d="M64.881 9.753c-14.323 7.621-15.753 21.08-4.289 40.379" stroke="#0087FF" stroke-width="3" stroke-linecap="round"/>
        <ellipse stroke="#FFF" stroke-width="2.6" cx="55" cy="67" rx="31.7" ry="32.2"/>
    </g>
</svg>
