<svg width="264" height="168" viewBox="0 0 264 168" xmlns="http://www.w3.org/2000/svg" xmlns:xlink="http://www.w3.org/1999/xlink">
    <defs>
        <path d="M40.394.173c1.649-.423 3.487-.064 4.821 1.001 1.346 1.037 2.142 2.692 2.214 4.376.839 12.768 1.665 25.536 2.514 38.304.011.92.898 1.66 1.804 1.586.887.054 1.712-.704 1.71-1.594.498-10.56.964-21.12 1.451-31.68.064-1.164.008-2.379.48-3.473.676-1.714 2.264-3.026 4.073-3.395 1.776-.39 3.737.122 5.06 1.376 1.231 1.124 1.889 2.808 1.806 4.463-.495 11.086-1.017 22.17-1.507 33.254-.128 1.015.828 1.908 1.827 1.81.908.092 1.742-.66 1.825-1.55 1.033-8.512 2.013-17.032 3.041-25.546.216-1.884 1.423-3.63 3.138-4.461 1.729-.871 3.897-.733 5.525.3 1.936 1.18 3.108 3.53 2.764 5.784-2.093 16.102-4.163 32.207-6.347 48.296-.78 5.393-1.7 10.86-3.98 15.855-1.456 3.143-3.71 6.079-6.88 7.644-2.088 1.06-4.453 1.477-6.787 1.471-7.9.006-15.803 0-23.706.003-1.159-.003-2.333.05-3.473-.202-2.294-.48-4.358-1.7-6.18-3.13-3.548-2.853-6.406-6.437-9.158-10.031-5.497-7.38-10.54-15.085-15.403-22.888C-.08 56.02-.32 53.766.442 51.86c.767-2.006 2.664-3.483 4.755-3.903 1.449-.279 2.943.157 4.182.914 1.577.957 2.831 2.335 4.073 3.677C15.433 54.742 17.34 57 19.22 59.28c.677.821 1.572 1.597 2.68 1.674.863.056 1.632-.542 1.973-1.302.43-.866.328-1.854.261-2.784-.263-4.333-.799-8.642-1.342-12.949-1.476-9.702-3.324-19.346-5.032-29.008-.338-2.03.557-4.193 2.206-5.417 1.627-1.244 3.95-1.462 5.799-.596 1.651.742 2.898 2.312 3.204 4.097 1.731 9.864 3.455 19.734 5.173 29.601.136.72.175 1.589.85 2.046 1.243.768 3.606.18 3.457-1.573-.749-11.782-1.524-23.565-2.283-35.347-.061-1.199-.272-2.434.08-3.608.53-1.94 2.197-3.483 4.147-3.94" id="bj2dr533ha"/>
    </defs>
    <g fill="none" fill-rule="evenodd">
        <g stroke="#4F80FF" stroke-linecap="round" stroke-linejoin="round" stroke-width="2">
            <path d="M90.3 61c-1.353 2.74-1.353 5.479 0 8.218M84.015 61.174c-1.353 2.74-1.353 5.48 0 8.219"/>
        </g>
        <g stroke="#4F80FF" stroke-linecap="round" stroke-linejoin="round" stroke-width="2">
            <path d="M179 61c1.353 2.74 1.353 5.479 0 8.218M185.285 61.174c1.353 2.74 1.353 5.48 0 8.219"/>
        </g>
        <g transform="translate(85 37)">
            <mask id="5l1us7vzcb" fill="#fff">
                <use xlink:href="#bj2dr533ha"/>
            </mask>
            <use fill="#FFB28E" xlink:href="#bj2dr533ha"/>
            <path stroke="#FFF" stroke-width="2" stroke-linecap="round" stroke-linejoin="round" mask="url(#5l1us7vzcb)" d="m77 19.5-4.5 29M23 13.5l8.5 35"/>
            <path d="M25.695 62.496c8.211.757 14.133 5.373 17.765 13.847" stroke="#F69F77" stroke-width="2" stroke-linecap="round" stroke-linejoin="round" mask="url(#5l1us7vzcb)"/>
            <path stroke="#FFF" stroke-width="2" stroke-linejoin="round" mask="url(#5l1us7vzcb)" d="m31 48.5 13.337-.5H72L49.277 89z"/>
            <path stroke="#FFF" stroke-width="2" mask="url(#5l1us7vzcb)" d="m42 5.5 2.5 43"/>
            <path d="M32.574 8.544a2.474 2.474 0 0 1 2.502 2.476l-.024 32.684a3.002 3.002 0 0 1-3.002 3 2.92 2.92 0 0 1-2.92-3l.874-32.63a2.6 2.6 0 0 1 2.57-2.53z" fill="#F69F77" opacity=".404" mask="url(#5l1us7vzcb)" transform="rotate(-11 32.064 27.61)"/>
            <path d="M49.216 1.501a2.044 2.044 0 0 1 2.076 2.045l-.02 40.435a2.49 2.49 0 0 1-2.49 2.488 2.442 2.442 0 0 1-2.442-2.488L47.1 3.61A2.15 2.15 0 0 1 49.217 1.5z" fill="#F69F77" opacity=".404" mask="url(#5l1us7vzcb)" transform="rotate(-5 48.793 23.97)"/>
            <path d="M66.713 5.136a2.46 2.46 0 0 1 2.49 2.462l-.024 36.522a2.988 2.988 0 0 1-2.988 2.986 2.915 2.915 0 0 1-2.914-2.985l.884-36.464a2.584 2.584 0 0 1 2.552-2.521z" fill="#F69F77" opacity=".404" mask="url(#5l1us7vzcb)" transform="rotate(2 66.205 26.106)"/>
            <path stroke="#FFF" stroke-width="2" stroke-linecap="round" stroke-linejoin="round" mask="url(#5l1us7vzcb)" d="M61 9.5 58.5 49M49.5 89.5l-25.36-14-18.64-23"/>
            <g mask="url(#5l1us7vzcb)" fill="#00A2FF" stroke="#FFF">
                <path d="M80 20.75a2.75 2.75 0 1 0-5.5 0 2.75 2.75 0 0 0 5.5 0M78 33.75a2.75 2.75 0 1 0-5.5 0 2.75 2.75 0 0 0 5.5 0M75.5 48.75a2.75 2.75 0 1 0-5.5 0 2.75 2.75 0 0 0 5.5 0M26 14.75a2.75 2.75 0 1 0-5.5 0 2.75 2.75 0 0 0 5.5 0M30 31.75a2.75 2.75 0 1 0-5.5 0 2.75 2.75 0 0 0 5.5 0M27.5 75.75a2.75 2.75 0 1 0-5.5 0 2.75 2.75 0 0 0 5.5 0M52.5 88.75a2.75 2.75 0 1 0-5.5 0 2.75 2.75 0 0 0 5.5 0M9.5 54.75a2.75 2.75 0 1 0-5.5 0 2.75 2.75 0 0 0 5.5 0M34.5 48.75a2.75 2.75 0 1 0-5.5 0 2.75 2.75 0 0 0 5.5 0M45 6.75a2.75 2.75 0 1 0-5.5 0 2.75 2.75 0 0 0 5.5 0M46 25.75a2.75 2.75 0 1 0-5.5 0 2.75 2.75 0 0 0 5.5 0M47.5 48.75a2.75 2.75 0 1 0-5.5 0 2.75 2.75 0 0 0 5.5 0M64 10.75a2.75 2.75 0 1 0-5.5 0 2.75 2.75 0 0 0 5.5 0M63 27.75a2.75 2.75 0 1 0-5.5 0 2.75 2.75 0 0 0 5.5 0M61.5 48.75a2.75 2.75 0 1 0-5.5 0 2.75 2.75 0 0 0 5.5 0"/>
            </g>
        </g>
    </g>
</svg>
