<svg width="264" height="168" viewBox="0 0 264 168" xmlns="http://www.w3.org/2000/svg">
    <g transform="translate(80 31)" fill="none" fill-rule="evenodd">
        <circle fill="#FFF" cx="51.5" cy="53.5" r="49.5"/>
        <path d="M39.156 73.012c-2.697 3.603-5.406 7.201-8.102 10.81 3.353 5.245 6.702 10.494 10.055 15.74 6.98 1.476 14.278 1.34 21.21-.34C65.24 94.11 68.166 89 71.084 83.883c-2.749-3.623-5.494-7.247-8.24-10.87-7.894-.004-15.792-.002-23.687 0M70.75 50.735c-1.684 6.678-3.345 13.361-5.019 20.043 2.763 3.652 5.527 7.306 8.298 10.953 5.588-.884 11.178-1.763 16.766-2.647a47.824 47.824 0 0 0 7.588-21.65c-3.462-4.145-6.917-8.299-10.377-12.447-5.754 1.915-11.503 3.84-17.256 5.748m-56.746-5.746C10.54 49.14 7.08 53.291 3.622 57.445a48.056 48.056 0 0 0 7.596 21.639c5.61.888 11.222 1.773 16.834 2.66 2.743-3.656 5.496-7.306 8.232-10.968-1.692-6.682-3.321-13.381-5.037-20.057-5.757-1.887-11.494-3.827-17.244-5.73m4.813-26.986c-2.775 2.506-5.181 5.395-7.311 8.461 1.181 5.008 2.355 10.019 3.538 15.025l17.384 5.783c5.586-4.464 11.172-8.93 16.756-13.399-.002-5.724 0-11.445-.002-17.169-5.933-2.352-11.87-4.695-17.802-7.052-4.578 2.128-8.86 4.915-12.563 8.351m34.003-1.297c0 5.724.004 11.447.004 17.171 5.582 4.47 11.17 8.935 16.756 13.401 5.793-1.932 11.589-3.862 17.384-5.795 1.183-5.006 2.357-10.013 3.538-15.019-.926-1.265-1.807-2.566-2.843-3.747-4.594-5.61-10.532-10.075-17.11-13.103-5.91 2.365-11.82 4.726-17.73 7.092M51.779 2c7.784.155 15.542 2.044 22.465 5.624 10.192 5.215 18.53 13.961 23.229 24.404C100.327 38.286 101.815 45.133 102 52v1.789c-.147 8.483-2.399 16.928-6.602 24.303a51.176 51.176 0 0 1-15.173 16.696c-8.261 5.827-18.294 9.045-28.396 9.212H50.21c-8.626-.15-17.216-2.476-24.68-6.82C14.95 91.11 6.692 81.113 2.76 69.56 1.01 64.506.12 59.173 0 53.832v-1.77c.167-7.685 2.03-15.343 5.546-22.188 4.118-8.109 10.455-15.07 18.135-19.936C31.552 4.903 40.838 2.16 50.175 2h1.604z" fill="#636376"/>
        <path d="M31 90c28.167 0 51-22.833 51-51 0-12.675-4.624-24.27-12.277-33.19l-.347-.4C88.462 12.787 102 31.313 102 53c0 28.167-22.833 51-51 51-15.21 0-28.865-6.658-38.209-17.219l-.167-.192A50.876 50.876 0 0 0 31 90z" fill="#000" opacity=".052"/>
        <path stroke="#4F80FF" stroke-width="2" d="M-1 1h104v104H-1z"/>
        <path fill="#4F80FF" d="M59 0h45v19H59z"/>
        <text font-family="NanumGothicOTF" font-size="12" letter-spacing="-.429" fill="#FFF">
                        <tspan x="65" y="13">축구공</tspan>
                    </text>
    </g>
</svg>
