<svg xmlns="http://www.w3.org/2000/svg" xmlns:xlink="http://www.w3.org/1999/xlink" width="264" height="168" viewBox="0 0 264 168"><defs><path id="lllbx6fi5a" d="M0 .594h73.009v108.27H0z"/></defs><g fill="none" fill-rule="evenodd"><g transform="translate(76 29.734)"><mask id="blm9uhknpb" fill="#fff"><use xlink:href="#lllbx6fi5a"/></mask><path fill="#00A2FF" d="M73.009 50.31c-8.056 0-23.209.086-23.209.086V2.598h-3.555c-19.132 0-24.656.204-33.259-2.004 0 0 .188 8.298 8.992 12.808-7.813 7.416-10.132 18.403-10.132 29.865s-1.093 20.127-2.511 26.91C6.18 85.26 0 96.98 0 96.98c4.748 1.162 9.815 1.25 14.658.384v11.5c31.65 0 58.35-18.28 58.35-52.292V50.31" mask="url(#blm9uhknpb)"/></g><path fill="#FFC600" d="M125.8 68.067V90.78c9.34 0 17.686-4.182 23.208-10.738l-23.209-11.976"/><path fill="#FAFDFD" d="M125.8 90.781c-13.86 0-25.098-11.036-25.098-24.648 0-13.614 11.238-24.649 25.097-24.649V90.78z"/><path fill="#50505F" d="M120.128 62.368c0 3.148-2.598 5.699-5.801 5.699-3.206 0-5.804-2.55-5.804-5.699 0-3.147 2.598-5.698 5.804-5.698 3.203 0 5.801 2.55 5.801 5.698"/><path fill="#1EDA69" d="M140.178 35.426a34.76 34.76 0 0 0-14.38-3.094v35.735h34.391v-1.96c0-13.61-8.2-25.333-20.011-30.68"/><path fill="#0087FF" d="M118.665 104.4c-4.492 11.755-15.088 20.579-27.998 22.746l-.01 11.442c16.033-3.374 28.051-17.372 28.051-34.126"/><path fill="#636376" d="M168.93 91.764c-.277-1.175-.486-2.475-.643-3.808 1.71-.644 3.446-.933 4.92-.607a27.403 27.403 0 0 1-4.277 4.415m-7.87 3.056c-.345-.051-.535-.129-.611-.173-.037-.492.866-2.288 3.537-4.299.335-.252.686-.497 1.049-.732.216 1.476.501 2.9.876 4.165-1.576.814-3.24 1.273-4.85 1.039m14.656-10.092c-2.394-1.124-5.131-.973-7.725-.166-.046-.768-.08-1.52-.103-2.239 2.152 0 4.18-.092 5.361-.374 3.14-.749 5.144-1.497 5.228-1.528l-1.264-3.064c-.018.007-1.896.706-4.8 1.398-.869.207-2.582.282-4.574.278a77.59 77.59 0 0 1 .05-2.777l-3.447-.137a76.174 76.174 0 0 0-.057 2.844 140.67 140.67 0 0 1-4.815-.252l-.256 3.283c.477.034 2.606.179 5.117.265.037 1.171.1 2.436.201 3.727a21.833 21.833 0 0 0-3.175 2.08c-1.241.98-5.222 4.418-4.329 7.5.227.784.972 2.151 3.41 2.507 7.788 1.14 14.648-7.688 15.713-9.132.784.653 1.347 1.452 1.293 2.386-.096 1.68-2.078 3.561-4.711 4.473l-2.707 1.031 1.281 3.057 2.63-1.003c3.986-1.388 6.779-4.35 6.952-7.377.09-1.565-.475-4.527-5.273-6.78M185.233 100.151l1.581-5.172c.365-1.246.67-2.71.973-3.926h.06c.305 1.215.64 2.649 1.035 3.926l1.611 5.172h-5.26zM190.341 88h-4.773L179 109h3.861l1.764-5.951h6.507l1.855 5.951H197l-6.659-21z"/></g></svg>