<svg width="264" height="168" viewBox="0 0 264 168" xmlns="http://www.w3.org/2000/svg" xmlns:xlink="http://www.w3.org/1999/xlink">
    <defs>
        <path d="M77.504 41.884 66.52 33.481a5.318 5.318 0 0 0-.177-.13l-14.76-10.355a5.005 5.005 0 0 0-3.56-.885 6.777 6.777 0 0 0-2.67-.549H31.07c-.28 0-.554.019-.825.052l-9.549-8.381L8.925 1.52C6.775-.621 3.413-.484 1.418 1.826s-1.868 5.92.284 8.061l11.89 11.832c.081.08.164.158.25.233l9.999 8.776v32.7a7.68 7.68 0 0 0-.105 1.258v47.784c0 3.938 2.973 7.13 6.641 7.13 3.669 0 6.642-3.192 6.642-7.13V71.496h3.703l19.964 38.26c1.217 2.333 3.474 3.647 5.8 3.647a6.263 6.263 0 0 0 3.24-.911c3.2-1.924 4.342-6.27 2.55-9.705L52.501 64.895c.054-.382.082-.769.082-1.16v-26.41l7.857 5.512 10.894 8.336a5.045 5.045 0 0 0 3.08 1.06c1.66 0 3.295-.832 4.331-2.393 1.704-2.566 1.147-6.127-1.242-7.956" id="7nvewy8sya"/>
    </defs>
    <g fill="none" fill-rule="evenodd">
        <g transform="translate(92 29.4)">
            <mask id="mijba997kb" fill="#fff">
                <use xlink:href="#7nvewy8sya"/>
            </mask>
            <use fill="#FFB28E" xlink:href="#7nvewy8sya"/>
            <path d="M74.533 54.6v41.086L54.6 107.466v1.476l-34.667.258V54.6h54.6z" fill="#00A2FF" mask="url(#mijba997kb)"/>
        </g>
        <path d="M133.574 51.068c1.93.008 3.52.044 4.101.101 2.626.26 4.768.929 6.427 2.007.265.171.52.342.765.511V89.2h-29.18l-.002-.388v-2.25l.001-.663.007-5.272.001-.736v-2.268c0-.836-.003-1.46-.007-1.738-.01-.367-.015-1.186-.016-2.457v-1.514a2298 2298 0 0 1 .016-6.123 33.295 33.295 0 0 1-.29-.16V55.11a22.893 22.893 0 0 1 2.45-1.934 16.666 16.666 0 0 1 5.671-1.825c1.404-.186 5.21-.273 8.555-.283z" fill="#32D27D"/>
        <path fill="#32D27D" d="m142.68 51.8-5.298 8.565 9.009 7.761 6.276-9.318zM122.504 51.15l-7.106 9.215-7.798-7.545 7.241-8.336z"/>
        <path d="M134.054 53.43c0 1.554-1.317 2.816-2.94 2.816h-1.96c-1.624 0-2.941-1.262-2.941-2.817v-6.128c0-1.555 1.317-2.817 2.94-2.817h1.96c1.624 0 2.941 1.262 2.941 2.817v6.128z" fill="#FFB28E"/>
        <path fill="#EC9C77" d="M126.213 51.15h7.841v-2.353h-7.841zM120.724 39.387a3.529 3.529 0 1 1-7.057 0 3.529 3.529 0 0 1 7.057 0M146.6 39.387a3.529 3.529 0 1 1-7.057 0 3.529 3.529 0 0 1 7.057 0"/>
        <path d="M142.68 38.211c0 6.495-5.437 11.762-12.142 11.762h-.81c-6.704 0-12.14-5.267-12.14-11.762v-7.057c0-6.495 5.436-11.762 12.14-11.762h.81c6.705 0 12.141 5.267 12.141 11.762v7.057z" fill="#FFB28E"/>
        <g stroke="#FFF">
            <path d="M142 57v29h-23V57h23z" stroke-width="2"/>
            <path stroke-width="2" stroke-linecap="round" stroke-linejoin="round" d="m97.657 36.411 19.93 18.089M143.5 58.638 167 75.989M120.5 87v52.28M140.5 87v13.5l16.5 33.062"/>
            <path d="M119.5 53.5a2.99 2.99 0 0 1 2.121.879 2.99 2.99 0 0 1 .879 2.121 2.99 2.99 0 0 1-.879 2.121 2.99 2.99 0 0 1-2.121.879 2.99 2.99 0 0 1-2.121-.879 2.99 2.99 0 0 1-.879-2.121c0-.829.336-1.579.879-2.121a2.99 2.99 0 0 1 2.121-.879zM140.5 53.5l.205.007a2.99 2.99 0 0 1 1.916.872 2.99 2.99 0 0 1 .879 2.121 2.99 2.99 0 0 1-.879 2.121 2.99 2.99 0 0 1-2.121.879 2.99 2.99 0 0 1-2.121-.879 2.99 2.99 0 0 1-.879-2.121c0-.829.336-1.579.879-2.121a2.99 2.99 0 0 1 2.121-.879zM166.5 72.5a2.99 2.99 0 0 1 2.121.879 2.99 2.99 0 0 1 .879 2.121 2.99 2.99 0 0 1-.879 2.121 2.99 2.99 0 0 1-2.121.879 2.99 2.99 0 0 1-2.121-.879 2.99 2.99 0 0 1-.879-2.121c0-.829.336-1.579.879-2.121a2.99 2.99 0 0 1 2.121-.879zM98.5 33.5a2.99 2.99 0 0 1 2.121.879 2.99 2.99 0 0 1 .879 2.121 2.99 2.99 0 0 1-.879 2.121 2.99 2.99 0 0 1-2.121.879 2.99 2.99 0 0 1-2.121-.879A2.99 2.99 0 0 1 95.5 36.5c0-.829.336-1.579.879-2.121A2.99 2.99 0 0 1 98.5 33.5zM120.5 134.5a2.99 2.99 0 0 1 2.121.879 2.99 2.99 0 0 1 .879 2.121 2.99 2.99 0 0 1-.879 2.121 2.99 2.99 0 0 1-2.121.879 2.99 2.99 0 0 1-2.121-.879 2.99 2.99 0 0 1-.879-2.121c0-.829.336-1.579.879-2.121a2.99 2.99 0 0 1 2.121-.879zM155.5 129.5a2.99 2.99 0 0 1 2.121.879 2.99 2.99 0 0 1 .879 2.121 2.99 2.99 0 0 1-.879 2.121 2.99 2.99 0 0 1-2.121.879 2.99 2.99 0 0 1-2.121-.879 2.99 2.99 0 0 1-.879-2.121c0-.829.336-1.579.879-2.121a2.99 2.99 0 0 1 2.121-.879zM140.5 98.5a2.99 2.99 0 0 1 2.121.879 2.99 2.99 0 0 1 .879 2.121 2.99 2.99 0 0 1-.879 2.121 2.99 2.99 0 0 1-2.121.879 2.99 2.99 0 0 1-2.121-.879 2.99 2.99 0 0 1-.879-2.121c0-.829.336-1.579.879-2.121a2.99 2.99 0 0 1 2.121-.879zM120.5 98.5a2.99 2.99 0 0 1 2.121.879 2.99 2.99 0 0 1 .879 2.121 2.99 2.99 0 0 1-.879 2.121 2.99 2.99 0 0 1-2.121.879 2.99 2.99 0 0 1-2.121-.879 2.99 2.99 0 0 1-.879-2.121c0-.829.336-1.579.879-2.121a2.99 2.99 0 0 1 2.121-.879zM120.5 117.5a2.99 2.99 0 0 1 2.121.879 2.99 2.99 0 0 1 .879 2.121 2.99 2.99 0 0 1-.879 2.121 2.99 2.99 0 0 1-2.121.879 2.99 2.99 0 0 1-2.121-.879 2.99 2.99 0 0 1-.879-2.121c0-.829.336-1.579.879-2.121a2.99 2.99 0 0 1 2.121-.879zM148.5 114.5a2.99 2.99 0 0 1 2.121.879 2.99 2.99 0 0 1 .879 2.121 2.99 2.99 0 0 1-.879 2.121 2.99 2.99 0 0 1-2.121.879 2.99 2.99 0 0 1-2.121-.879 2.99 2.99 0 0 1-.879-2.121c0-.829.336-1.579.879-2.121a2.99 2.99 0 0 1 2.121-.879zM120.5 82.5a2.99 2.99 0 0 1 2.121.879 2.99 2.99 0 0 1 .879 2.121 2.99 2.99 0 0 1-.879 2.121 2.99 2.99 0 0 1-2.121.879 2.99 2.99 0 0 1-2.121-.879 2.99 2.99 0 0 1-.879-2.121c0-.829.336-1.579.879-2.121a2.99 2.99 0 0 1 2.121-.879zM140.5 82.5a2.99 2.99 0 0 1 2.121.879 2.99 2.99 0 0 1 .879 2.121 2.99 2.99 0 0 1-.879 2.121 2.99 2.99 0 0 1-2.121.879 2.99 2.99 0 0 1-2.121-.879 2.99 2.99 0 0 1-.879-2.121c0-.829.336-1.579.879-2.121a2.99 2.99 0 0 1 2.121-.879z" fill="#00A2FF"/>
        </g>
    </g>
</svg>
