<svg xmlns="http://www.w3.org/2000/svg" xmlns:xlink="http://www.w3.org/1999/xlink" width="264" height="168" viewBox="0 0 264 168"><defs><path id="z3kdav289a" d="M19.142 0H73a4 4 0 0 1 4 4v88a4 4 0 0 1-4 4H4c-2.21 0-4 .21-4-4V19.035"/><path id="30awjhemkc" d="M54 14a2 2 0 1 1 0 4H2a2 2 0 1 1 0-4h52zm0-14a2 2 0 1 1 0 4H2a2 2 0 1 1 0-4h52z"/></defs><g fill="none" fill-rule="evenodd"><g transform="translate(93 46)"><mask id="rlmvvzgwpb" fill="#fff"><use xlink:href="#z3kdav289a"/></mask><use fill="#FFF" xlink:href="#z3kdav289a"/><path fill="#B9D0DD" d="M20-2-2 20h20a2 2 0 0 0 2-2V-2z" mask="url(#rlmvvzgwpb)"/><use fill="#D6E9F4" transform="translate(11 24)" xlink:href="#30awjhemkc"/><rect width="44" height="4" x="11" y="51" fill="#D6E9F4" rx="2"/><rect width="50" height="4" x="11" y="64" fill="#D6E9F4" rx="2"/><rect width="30" height="4" x="11" y="77" fill="#D6E9F4" rx="2"/></g><g fill="#32D27D"><path d="M148 27h44a8 8 0 0 1 8 8v24a8 8 0 0 1-8 8h-44a8 8 0 0 1-8-8V35a8 8 0 0 1 8-8z"/><path d="m147 59 8.158 12.882a1.5 1.5 0 0 0 2.574-.066L164.962 59H147z"/></g><text fill="#FFF" font-family="NanumGothicOTFExtraBold, NanumGothicOTF, NanumGothic, 'Nanum Gothic'" font-size="20" font-weight="bold" letter-spacing="-1.389" transform="translate(140 27)"><tspan x="21.295" y="27">가</tspan></text><text fill="#87EAB6" font-family="NanumGothicOTFBold, NanumGothicOTF, NanumGothic, 'Nanum Gothic'" font-size="30" font-weight="bold" letter-spacing="-.369" transform="translate(140 27)"><tspan x="7.637" y="28">“ </tspan> <tspan x="41.863" y="28">”</tspan></text><g stroke="#3B82F6" stroke-linecap="round" stroke-linejoin="round" stroke-width="2.5"><path d="M49.5 90.2v14.448M38.5 94.313v6.971M82.5 94.131v6.971M71.5 90.2v14.448M60.5 82v32"/></g><g stroke="#3B82F6" stroke-linecap="round" stroke-linejoin="round" stroke-width="2.5"><path d="M191.5 82v32M180.5 94v7.313M224.5 89v18M213.5 94.313v7M202.5 91.2v14"/></g></g></svg>