<svg xmlns="http://www.w3.org/2000/svg" width="32" height="33" viewBox="0 0 32 33">
    <g fill="none" fill-rule="evenodd">
        <path fill="#8222FF" d="M16.479 5c-6.086 0-9.176 4.146-9.176 9.26 0 .321.017.638.048.951l-1.278 2.58a.702.702 0 0 0 .31.938.687.687 0 0 0 .31.073h1.303v2.446a2.435 2.435 0 0 0 2.423 2.446h1.807l.27 3.145h8.657l.381-2.868C21.831 20.85 26 20.3 26 14.26 26 9.146 22.564 5 16.479 5z"/>
        <path fill="#FFF" fill-rule="nonzero" d="M12.785 18.095l.604-1.684h2.066l.596 1.684h1.182l-2.305-6.133h-.978l-2.28 6.133h1.115zM15.14 15.5h-1.438l.417-1.25c.04-.108.072-.201.098-.28l.072-.226a8.415 8.415 0 0 0 .128-.438l.132.43c.042.138.1.31.174.514l.417 1.25zm4.377 2.595v-6.133H18.43v6.133h1.088z"/>
    </g>
</svg>
