<svg xmlns="http://www.w3.org/2000/svg" width="32" height="33" viewBox="0 0 32 33">
    <g fill="none" fill-rule="evenodd">
        <path fill="#8222FF" d="M16.479 5.167c-6.086 0-9.176 4.222-9.176 9.43 0 .328.017.651.048.97l-1.278 2.627a.721.721 0 0 0 .31.955c.096.05.202.076.31.076h1.303v2.49c0 1.377 1.085 2.492 2.423 2.492h1.807l.27 3.203h8.657l.381-2.921C21.831 21.31 26 20.75 26 14.598c0-5.209-3.436-9.431-9.521-9.431z"/>
        <path fill="#FFF" fill-rule="nonzero" d="M12.785 18.504l.604-1.715h2.066l.596 1.715h1.182l-2.305-6.246h-.978l-2.28 6.246h1.115zm2.356-2.642h-1.438l.417-1.274c.04-.11.072-.205.098-.286l.072-.23a8.69 8.69 0 0 0 .128-.446l.132.438c.042.141.1.316.174.524l.417 1.274zm4.377 2.642v-6.246H18.43v6.246h1.088z"/>
    </g>
</svg>
