<svg xmlns="http://www.w3.org/2000/svg" width="32" height="33" viewBox="0 0 32 33">
    <path fill="#FFF" fill-rule="nonzero" d="M16.479 5C22.564 5 26 9.146 26 14.26c0 6.04-4.169 6.59-4.466 9.71l-.381 2.87h-8.656l-.271-3.146h-1.807a2.435 2.435 0 0 1-2.423-2.446v-2.446H6.693a.687.687 0 0 1-.31-.073.702.702 0 0 1-.31-.938l1.278-2.58a9.454 9.454 0 0 1-.048-.951c0-5.114 3.09-9.26 9.176-9.26zm-1.551 6.962h-.978l-2.28 6.133h1.115l.604-1.684h2.066l.596 1.684h1.182l-2.305-6.133zm4.59 0H18.43v6.133h1.088v-6.133zm-5.1 1.344l.132.43c.031.104.072.226.122.367l.052.147.417 1.25h-1.438l.417-1.25c.04-.108.072-.201.098-.28l.072-.226a8.415 8.415 0 0 0 .128-.438z"/>
</svg>
