<svg xmlns="http://www.w3.org/2000/svg" width="32" height="32" viewBox="0 0 32 32">
    <g fill="none" fill-rule="evenodd">
        <path fill="#FF9B00" d="M12.517 19.215c1.783 0 3.229 1.445 3.229 3.228l-.001-.001c.005 5.227-10.076 4.54-8.597 3.636l.072-.04c1.23-.614 1.92-1.792 2.073-3.532l-.003.024-.001-.087c0-1.721 1.347-3.128 3.045-3.223zM24.118 5.362l.348.243c.905.634 1.125 1.881.491 2.786l-6.936 9.905c-.633.905-1.88 1.125-2.785.491l-.348-.243c-.905-.634-1.124-1.88-.49-2.786l6.935-9.905c.634-.905 1.88-1.125 2.785-.491z"/>
    </g>
</svg>
