<svg width="28" height="28" xmlns="http://www.w3.org/2000/svg">
    <g fill="none" fill-rule="evenodd">
        <rect stroke="#E2E2E2" fill="#FFF" x=".5" y=".5" width="27" height="27" rx="4"/>
        <path d="M14.256 19.85c-.167.2-.345.2-.512 0l-1.41-1.514h-1.667A2.667 2.667 0 0 1 8 15.668v-5A2.667 2.667 0 0 1 10.667 8h6.666A2.667 2.667 0 0 1 20 10.667v5.001a2.667 2.667 0 0 1-2.667 2.668h-1.666l-1.41 1.513zM10.5 11a.5.5 0 0 0 0 1h7a.5.5 0 0 0 0-1h-7zm-.031 2c-.26 0-.469.224-.469.5s.21.5.469.5h4.062c.26 0 .469-.224.469-.5s-.21-.5-.469-.5H10.47zm.094 2c-.311 0-.563.224-.563.5s.252.5.563.5h1.874c.311 0 .563-.224.563-.5s-.252-.5-.563-.5h-1.874z" fill="#4F80FF" fill-rule="nonzero"/>
    </g>
</svg>
