<svg xmlns="http://www.w3.org/2000/svg" width="28" height="28"><g fill="none" fill-rule="evenodd"><rect width="27" height="27" x=".5" y=".5" fill="#FFF" stroke="#E2E2E2" rx="4"/><g fill-rule="nonzero"><path fill="#989898" d="M17.889 8C19.607 8 21 9.294 21 10.89v5.417c0 1.596-1.393 2.89-3.111 2.89h-1.945l-1.645 1.64c-.195.217-.403.217-.598 0l-1.645-1.64H10.11C8.393 19.197 7 17.903 7 16.307V10.89C7 9.294 8.393 8 10.111 8h7.778z"/><g fill="#FFF"><path d="M16.4 13.071a.5.5 0 0 1 .09.992l-.09.008h-4.8a.5.5 0 0 1-.09-.992l.09-.008h4.8z"/><path d="M14 10.75a.5.5 0 0 1 .492.41l.008.09v4.643a.5.5 0 0 1-.992.09l-.008-.09V11.25a.5.5 0 0 1 .5-.5z"/></g></g></g></svg>