<svg xmlns="http://www.w3.org/2000/svg" width="28" height="28"><g fill="none" fill-rule="evenodd"><rect width="27" height="27" x=".5" y=".5" fill="#FFF" stroke="#E2E2E2" rx="4"/><g fill-rule="nonzero"><path fill="#989898" d="M14.256 19.85c-.167.2-.345.2-.512 0l-1.41-1.514h-1.667A2.667 2.667 0 0 1 8 15.668v-5A2.667 2.667 0 0 1 10.667 8h6.666A2.667 2.667 0 0 1 20 10.667v5.001a2.667 2.667 0 0 1-2.667 2.668h-1.666l-1.41 1.513zM10.5 11a.5.5 0 0 0 0 1h7a.5.5 0 1 0 0-1h-7zm-.031 2c-.26 0-.469.224-.469.5s.21.5.469.5h4.062c.26 0 .469-.224.469-.5s-.21-.5-.469-.5H10.47zm.094 2c-.311 0-.563.224-.563.5s.252.5.563.5h1.874c.311 0 .563-.224.563-.5s-.252-.5-.563-.5h-1.874z"/><path fill="#FFF" d="M5.584 6.46a1.661 1.661 0 0 0 0 2.529L19.929 21.54l.148.116c.757.494 1.708.437 2.34-.116a1.661 1.661 0 0 0 0-2.529L8.07 6.46l-.148-.116-.059-.04a1.917 1.917 0 0 0-2.28.156zm1.736.682.093.07 14.345 12.552a.662.662 0 0 1 0 1.024.918.918 0 0 1-1.078.07l-.093-.07L6.242 8.236a.662.662 0 0 1 0-1.024.918.918 0 0 1 1.078-.07z"/><path fill="#989898" d="M6.242 7.212a.918.918 0 0 1 1.078-.07l.093.07 14.345 12.552a.662.662 0 0 1 0 1.024.918.918 0 0 1-1.078.07l-.093-.07L6.242 8.236a.662.662 0 0 1 0-1.024z"/></g></g></svg>