<?xml version="1.0" encoding="utf-8"?>
<!-- Generator: Adobe Illustrator 26.3.1, SVG Export Plug-In . SVG Version: 6.00 Build 0)  -->
<svg version="1.1" id="레이어_1" xmlns="http://www.w3.org/2000/svg" xmlns:xlink="http://www.w3.org/1999/xlink" x="0px"
	 y="0px" viewBox="0 0 18 18" style="enable-background:new 0 0 18 18;" xml:space="preserve">
<style type="text/css">
	.st0{fill-rule:evenodd;clip-rule:evenodd;fill:#FFFFFF;}
	.st1{fill:#ECF8FF;stroke:#D6E9F4;}
	.st2{fill:#D6E9F4;stroke:#AAC5D5;}
	.st3{fill:#FFFFFF;stroke:#4F80FF;stroke-miterlimit:10;}
</style>
<g>
	<path class="st0" d="M-314-454H710v768H-314V-454z"/>
	<path class="st1" d="M241.5-330.5v637H-14c-1.5,0-2.9-0.6-3.9-1.6c-1-1-1.6-2.4-1.6-3.9v-631.5H241.5z"/>
	<path class="st2" d="M241.5-115.5v417h-261v-417H241.5z"/>
	<g>
		<path class="st3" d="M4.3,0.5h9.4c2.1,0,3.8,1.7,3.8,3.8v9.4c0,2.1-1.7,3.8-3.8,3.8H4.3c-2.1,0-3.8-1.7-3.8-3.8V4.3
			C0.5,2.2,2.2,0.5,4.3,0.5z"/>
	</g>
</g>
</svg>
