<svg width="18" height="18" viewBox="0 0 18 18" xmlns="http://www.w3.org/2000/svg">
    <g fill="none" fill-rule="evenodd">
        <path fill="#FFF" d="M-314-454H710v768H-314z"/>
        <path d="M241.5-330.5v637H-14a5.483 5.483 0 0 1-3.89-1.61A5.483 5.483 0 0 1-19.5 301v-631.5h261z" stroke="#D6E9F4" fill="#ECF8FF" fill-rule="nonzero"/>
        <path d="M241.5-115.5v417h-261v-417h261z" stroke="#AAC5D5" fill="#D6E9F4" fill-rule="nonzero"/>
        <g fill-rule="nonzero">
            <rect fill="#4F80FF" width="18" height="18" rx="4"/>
            <path d="M11.427 6.266a.75.75 0 1 1 1.146.968L8.448 12.11a.75.75 0 0 1-1.103.046L4.72 9.53a.75.75 0 0 1 1.06-1.06l2.049 2.048 3.598-4.252z" fill="#FFF"/>
        </g>
    </g>
</svg>
