<svg xmlns="http://www.w3.org/2000/svg" width="32" height="32" viewBox="0 0 32 32">
    <g fill="none" fill-rule="evenodd">
        <rect width="17" height="17" x="7.5" y="7.5" fill="#F4AF18" rx="4"/>
        <path fill="#FFF" fill-rule="nonzero" d="M13.707 19l1.06 1.06a.5.5 0 0 1-.706.708L13 19.708l-1.06 1.06a.5.5 0 0 1-.708-.707L12.292 19l-1.06-1.06a.5.5 0 0 1 .707-.708L13 18.292l1.06-1.06a.5.5 0 0 1 .708.707L13.708 19zm-.207-6.5H15a.5.5 0 1 1 0 1h-1.5V15a.5.5 0 1 1-1 0v-1.5H11a.5.5 0 1 1 0-1h1.5V11a.5.5 0 1 1 1 0v1.5zm4.5 0h3a.5.5 0 1 1 0 1h-3a.5.5 0 1 1 0-1zm0 5h3a.5.5 0 1 1 0 1h-3a.5.5 0 1 1 0-1zm0 2h3a.5.5 0 1 1 0 1h-3a.5.5 0 1 1 0-1z"/>
    </g>
</svg>
