<svg xmlns="http://www.w3.org/2000/svg" width="32" height="32" viewBox="0 0 32 32">
    <g fill="none" fill-rule="evenodd">
        <path fill="#FFF" fill-rule="nonzero" d="M13.707 19l1.06-1.06a.5.5 0 0 0-.706-.708L13 18.292l-1.06-1.06a.5.5 0 0 0-.708.707L12.292 19l-1.06 1.06a.5.5 0 0 0 .707.708L13 19.708l1.06 1.06a.5.5 0 0 0 .708-.707L13.708 19zm-.207-6.5V11a.5.5 0 1 0-1 0v1.5H11a.5.5 0 1 0 0 1h1.5V15a.5.5 0 1 0 1 0v-1.5H15a.5.5 0 1 0 0-1h-1.5zm-2-5h9a4 4 0 0 1 4 4v9a4 4 0 0 1-4 4h-9a4 4 0 0 1-4-4v-9a4 4 0 0 1 4-4zm6.5 5a.5.5 0 1 0 0 1h3a.5.5 0 1 0 0-1h-3zm0 5a.5.5 0 1 0 0 1h3a.5.5 0 1 0 0-1h-3zm0 2a.5.5 0 1 0 0 1h3a.5.5 0 1 0 0-1h-3z"/>
    </g>
</svg>
