<svg xmlns="http://www.w3.org/2000/svg" xmlns:xlink="http://www.w3.org/1999/xlink" width="60" height="27" viewBox="0 0 60 27">
    <defs>
        <path id="a" d="M4.223 5.18L20.171.756C23.699.252 26.976 0 30 0c3.024 0 6.3.252 9.83.756L55.776 5.18a5 5 0 0 1 3.435 6.312l-1.236 3.947C54.51 17.523 45.185 18.565 30 18.565c-15.185 0-24.51-1.042-27.976-3.126L.788 11.492A5 5 0 0 1 4.223 5.18z"/>
        <linearGradient id="b" x1="100%" x2="0%" y1="50%" y2="50%">
            <stop offset="0%" stop-color="#D35252"/>
            <stop offset="48.264%" stop-color="#DD5858"/>
            <stop offset="100%" stop-color="#D35252"/>
        </linearGradient>
    </defs>
    <g fill="none" fill-rule="evenodd">
        <g transform="translate(.3 7.561)">
            <mask id="c" fill="#fff">
                <use xlink:href="#a"/>
            </mask>
            <use fill="#FF5454" fill-rule="nonzero" xlink:href="#a"/>
            <path fill="url(#b)" fill-rule="nonzero" d="M-.399 7.14C4.654 10.249 14.787 11.803 30 11.803c15.213 0 25.546-1.554 31-4.661l-1.734 7.875c-4.298 2.494-14.053 3.74-29.266 3.74-15.213 0-25.196-1.222-29.95-3.667L-.399 7.14z" mask="url(#c)"/>
            <path fill="#DD5858" fill-rule="nonzero" d="M30 1.512c5.011 0 9.83-.338 9.83-.756C39.83.34 35.01 0 30 0s-9.83.339-9.83.756c0 .418 4.819.756 9.83.756z" mask="url(#c)"/>
        </g>
        <path fill="#7F5858" fill-rule="nonzero" d="M37.105 8.317c0 .209-.677.378-1.512.378s-1.513-.17-1.513-.378V6.05a3.024 3.024 0 0 0-3.024-3.025h-1.512A3.024 3.024 0 0 0 26.52 6.05v2.268c0 .209-.678.378-1.513.378-.835 0-1.512-.17-1.512-.378V6.05A6.049 6.049 0 0 1 29.544 0h1.512a6.049 6.049 0 0 1 6.049 6.049v2.268z"/>
        <path fill="#D35252" fill-rule="nonzero" d="M30.389 15.815a1.497 1.497 0 0 1 1.496 1.512l-.057 5.6a1.528 1.528 0 0 1-1.528 1.512 1.497 1.497 0 0 1-1.497-1.512l.058-5.6a1.528 1.528 0 0 1 1.528-1.512zM19.918 15.377l.124.006a.92.92 0 0 1 .783 1.309l-1.11 2.366.06 3.015a1.351 1.351 0 0 1-1.483 1.372 1.71 1.71 0 0 1-1.543-1.667l-.059-2.936 1.38-2.45a2 2 0 0 1 1.848-1.015zM41.7 15.657l-.134.007a.905.905 0 0 0-.766 1.3l.919 1.884v3.897a1.379 1.379 0 0 0 1.512 1.372 1.675 1.675 0 0 0 1.512-1.667v-3.694l-1.202-2.097a2 2 0 0 0-1.84-1.002z"/>
        <path fill="#D24E4E" fill-rule="nonzero" d="M52.127 14.658l-.31.076a.679.679 0 0 0-.302 1.154l1.734 1.626-.06 3.813a1.053 1.053 0 0 0 1.336 1.031 1.971 1.971 0 0 0 1.44-1.785l.22-3.828-2.399-1.758a2 2 0 0 0-1.659-.33zM9.357 14.758l.31.076a.679.679 0 0 1 .303 1.154l-1.735 1.626.06 3.813a1.053 1.053 0 0 1-1.335 1.031 1.971 1.971 0 0 1-1.44-1.785l-.22-3.828 2.398-1.758a2 2 0 0 1 1.66-.33z"/>
    </g>
</svg>
