<svg xmlns="http://www.w3.org/2000/svg" xmlns:xlink="http://www.w3.org/1999/xlink" width="61" height="70" viewBox="0 0 61 70">
    <defs>
        <linearGradient id="a" x1="50%" x2="50%" y1="0%" y2="100%">
            <stop offset="0%" stop-color="#F4F4F4"/>
            <stop offset="23.449%" stop-color="#E7E7E7"/>
            <stop offset="100%" stop-color="#E6E6E6"/>
        </linearGradient>
        <linearGradient id="b" x1="100%" x2="0%" y1="50%" y2="50%">
            <stop offset="0%" stop-color="#CCC"/>
            <stop offset="46.67%" stop-color="#E9E9E9"/>
            <stop offset="100%" stop-color="#CCC"/>
        </linearGradient>
        <path id="c" d="M5.871 59.978c6.624 2.007 14.953 3.01 24.99 3.01 10.035 0 17.863-1.003 23.483-3.01l-.301 4.516c-4.918 2.007-12.645 3.01-23.183 3.01-10.537 0-18.767-1.003-24.688-3.01l-.301-4.516z"/>
        <linearGradient id="d" x1="70.029%" x2="2.649%" y1="50%" y2="50%">
            <stop offset="0%" stop-color="#FFF"/>
            <stop offset="100%" stop-color="#F4F4F4"/>
        </linearGradient>
    </defs>
    <g fill="none" fill-rule="nonzero" transform="translate(0 1.538)">
        <path fill="url(#a)" d="M2.258 3.624h55.699l-3.763 58.71c-7.488 2.007-15.517 3.01-24.086 3.01-8.994 0-17.022-1.003-24.086-3.01L2.258 3.623z"/>
        <path fill="#979797" stroke="#A6A6A6" stroke-width="4" d="M30.108 9.892c15.38 0 26.588-1.96 27.849-4.14C59.218 3.573 45.488.85 30.107.85 14.728.85 1.015 4.277 3.012 5.753c1.997 1.475 11.716 4.14 27.097 4.14z"/>
        <use fill="url(#b)" xlink:href="#c"/>
        <use fill="#CBCBCB" xlink:href="#c"/>
        <rect width="4.516" height="40.645" x="27.849" y="17.172" fill="url(#d)" rx="2.258"/>
        <path fill="url(#d)" d="M42.068 16.42a2.176 2.176 0 0 1 2.175 2.256l-1.338 36.132a2.343 2.343 0 0 1-2.342 2.257 2.176 2.176 0 0 1-2.174-2.257l1.338-36.132a2.343 2.343 0 0 1 2.341-2.257zM18.147 16.42a2.176 2.176 0 0 0-2.175 2.256l1.338 36.132a2.343 2.343 0 0 0 2.342 2.257 2.176 2.176 0 0 0 2.174-2.257l-1.338-36.132a2.343 2.343 0 0 0-2.341-2.257zM52.527 15.667a2.097 2.097 0 0 1 2.091 2.252l-2.677 36.14a2.432 2.432 0 0 1-2.425 2.253 2.097 2.097 0 0 1-2.09-2.252l2.676-36.141a2.432 2.432 0 0 1 2.425-2.252zM8.118 15.667a2.097 2.097 0 0 0-2.09 2.252l2.676 36.14a2.432 2.432 0 0 0 2.425 2.253 2.097 2.097 0 0 0 2.092-2.252l-2.678-36.141a2.432 2.432 0 0 0-2.425-2.252z"/>
        <path fill="#CBCBCB" d="M3.406 9.228C1.788 8.836.506 7.796.429 5.808.353 3.818 1.794 3.012 2.733 3.24 9.473 4.872 17.896 5.802 30 5.802s20.528-.93 27.267-2.562c1.617-.391 3.015.162 2.93 2.567-.083 2.406-1.664 3.03-3.282 3.421C49.694 10.976 42.565 11.83 30 11.83s-19.373-.854-26.594-2.602z"/>
    </g>
</svg>
