<svg width="32" height="32" viewBox="0 0 32 32" xmlns="http://www.w3.org/2000/svg">
    <g transform="translate(4 8)" fill="#00B6B1" fill-rule="evenodd">
        <circle cx="12" cy="12" r="4"/>
        <rect x="11" width="2" height="6" rx="1"/>
        <path d="M21.1 4.87a.995.995 0 0 1 0 1.395l-2.827 2.866a.964.964 0 0 1-1.374 0 .995.995 0 0 1 .002-1.396l2.826-2.866a.964.964 0 0 1 1.374 0zM24 13a1 1 0 0 1-1 1h-4a1 1 0 0 1 0-2h4a1 1 0 0 1 1 1zM0 13a1 1 0 0 1 1-1h4a1 1 0 0 1 0 2H1a1 1 0 0 1-1-1zM2.9 4.87a.964.964 0 0 1 1.373-.001L7.1 7.735a.995.995 0 0 1 .002 1.395.964.964 0 0 1-1.374.001L2.9 6.265a.995.995 0 0 1-.002-1.395z"/>
    </g>
</svg>
