<svg xmlns="http://www.w3.org/2000/svg" xmlns:xlink="http://www.w3.org/1999/xlink" width="48" height="48" viewBox="0 0 48 48">
    <defs>
        <path id="a" d="M0 0h48v48H0z"/>
    </defs>
    <g fill="none" fill-rule="evenodd">
        <mask id="b" fill="#fff">
            <use xlink:href="#a"/>
        </mask>
        <use fill="#F7FCFF" fill-rule="nonzero" xlink:href="#a"/>
        <g fill-rule="nonzero" mask="url(#b)">
            <g transform="translate(-1 7)">
                <circle cx="1" cy="1" r="1" fill="#ECF8FF"/>
                <circle cx="9" cy="1" r="1" fill="#ECF8FF"/>
                <circle cx="17" cy="1" r="1" fill="#ECF8FF"/>
                <circle cx="25" cy="1" r="1" fill="#ECF8FF"/>
                <circle cx="33" cy="1" r="1" fill="#ECF8FF"/>
                <circle cx="41" cy="1" r="1" fill="#ECF8FF"/>
                <circle cx="1" cy="9" r="1" fill="#D8D8D8"/>
                <circle cx="9" cy="9" r="1" fill="#ECF8FF"/>
                <circle cx="17" cy="9" r="1" fill="#D8D8D8"/>
                <circle cx="25" cy="9" r="1" fill="#ECF8FF"/>
                <circle cx="33" cy="9" r="1" fill="#D8D8D8"/>
                <circle cx="41" cy="9" r="1" fill="#ECF8FF"/>
                <circle cx="1" cy="9" r="1" fill="#D6E9F4"/>
                <circle cx="9" cy="9" r="1" fill="#ECF8FF"/>
                <circle cx="17" cy="9" r="1" fill="#D6E9F4"/>
                <circle cx="25" cy="9" r="1" fill="#ECF8FF"/>
                <circle cx="33" cy="9" r="1" fill="#D6E9F4"/>
                <circle cx="41" cy="9" r="1" fill="#ECF8FF"/>
                <circle cx="1" cy="17" r="1" fill="#ECF8FF"/>
                <circle cx="9" cy="17" r="1" fill="#ECF8FF"/>
                <circle cx="17" cy="17" r="1" fill="#ECF8FF"/>
                <circle cx="25" cy="17" r="1" fill="#ECF8FF"/>
                <circle cx="33" cy="17" r="1" fill="#ECF8FF"/>
                <circle cx="41" cy="17" r="1" fill="#ECF8FF"/>
                <circle cx="1" cy="25" r="1" fill="#D6E9F4"/>
                <circle cx="9" cy="25" r="1" fill="#ECF8FF"/>
                <circle cx="17" cy="25" r="1" fill="#D6E9F4"/>
                <circle cx="25" cy="25" r="1" fill="#ECF8FF"/>
                <circle cx="33" cy="25" r="1" fill="#D6E9F4"/>
                <circle cx="41" cy="25" r="1" fill="#ECF8FF"/>
                <circle cx="1" cy="33" r="1" fill="#ECF8FF"/>
                <circle cx="9" cy="33" r="1" fill="#ECF8FF"/>
                <circle cx="17" cy="33" r="1" fill="#ECF8FF"/>
                <circle cx="25" cy="33" r="1" fill="#ECF8FF"/>
                <circle cx="33" cy="33" r="1" fill="#ECF8FF"/>
                <circle cx="41" cy="33" r="1" fill="#ECF8FF"/>
                <circle cx="1" cy="41" r="1" fill="#D6E9F4"/>
            </g>
        </g>
        <circle r="1" fill="#D6E9F4" fill-rule="nonzero" mask="url(#b)"/>
        <circle cx="8" r="1" fill="#ECF8FF" fill-rule="nonzero" mask="url(#b)"/>
        <circle cx="16" r="1" fill="#D6E9F4" fill-rule="nonzero" mask="url(#b)"/>
        <circle cx="24" r="1" fill="#ECF8FF" fill-rule="nonzero" mask="url(#b)"/>
        <circle cx="32" r="1" fill="#D6E9F4" fill-rule="nonzero" mask="url(#b)"/>
        <circle cx="40" r="1" fill="#ECF8FF" fill-rule="nonzero" mask="url(#b)"/>
        <circle cx="48" r="1" fill="#D6E9F4" fill-rule="nonzero" mask="url(#b)"/>
        <circle cx="48" cy="8" r="1" fill="#ECF8FF" fill-rule="nonzero" mask="url(#b)"/>
        <circle cx="48" cy="16" r="1" fill="#D8D8D8" fill-rule="nonzero" mask="url(#b)"/>
        <circle cx="48" cy="16" r="1" fill="#D6E9F4" fill-rule="nonzero" mask="url(#b)"/>
        <circle cx="48" cy="24" r="1" fill="#ECF8FF" fill-rule="nonzero" mask="url(#b)"/>
        <circle cx="48" cy="32" r="1" fill="#D6E9F4" fill-rule="nonzero" mask="url(#b)"/>
        <circle cx="48" cy="40" r="1" fill="#ECF8FF" fill-rule="nonzero" mask="url(#b)"/>
        <circle cx="8" cy="48" r="1" fill="#ECF8FF" fill-rule="nonzero" mask="url(#b)"/>
        <circle cx="16" cy="48" r="1" fill="#D6E9F4" fill-rule="nonzero" mask="url(#b)"/>
        <circle cx="24" cy="48" r="1" fill="#ECF8FF" fill-rule="nonzero" mask="url(#b)"/>
        <circle cx="32" cy="48" r="1" fill="#D6E9F4" fill-rule="nonzero" mask="url(#b)"/>
        <circle cx="40" cy="48" r="1" fill="#ECF8FF" fill-rule="nonzero" mask="url(#b)"/>
        <circle cx="48" cy="48" r="1" fill="#D6E9F4" fill-rule="nonzero" mask="url(#b)"/>
    </g>
</svg>
