<svg xmlns="http://www.w3.org/2000/svg" width="32" height="32" viewBox="0 0 32 32">
    <g fill="none" fill-rule="evenodd">
        <path fill="#FFF" d="M21.92 10c2.805 0 5.08 2.296 5.08 5.127 0 .285-.03.563-.074.837a4.969 4.969 0 0 0-4.337-2.56c-2.75 0-4.979 2.25-4.979 5.025 0 .644.124 1.258.343 1.825h-6.349l-2.302 2.178L7 20.254V10l2.302 2.179L11.604 10H21.92zm.756 4.865a3.784 3.784 0 1 1 0 7.568 3.784 3.784 0 0 1 0-7.568zm.628 4.412h1.006a.628.628 0 0 0 0-1.257h-1.006v-1.006a.628.628 0 0 0-1.257 0v1.006h-1.006a.628.628 0 1 0 0 1.257h1.006v1.006a.628.628 0 0 0 1.257 0v-1.006z"/>
    </g>
</svg>
