<svg xmlns="http://www.w3.org/2000/svg" width="32" height="32" viewBox="0 0 32 32">
    <g fill="none" fill-rule="evenodd">
        <path fill="#19BAEA" d="M16 8c1.657 0 3 1.343 3 3 0 .669-.219 1.287-.59 1.786l3.325 5.226c.087-.008.176-.012.265-.012 1.657 0 3 1.343 3 3s-1.343 3-3 3-3-1.343-3-3c0-.954.445-1.804 1.14-2.353l-3.08-4.84c-.33.125-.687.193-1.06.193s-.73-.068-1.06-.192l-3.078 4.84C12.555 19.196 13 20.045 13 21c0 1.657-1.343 3-3 3s-3-1.343-3-3 1.343-3 3-3c.09 0 .178.004.265.012l3.325-5.225c-.37-.5-.59-1.118-.59-1.787 0-1.657 1.343-3 3-3z"/>
    </g>
</svg>
