<svg width="24" height="24" viewBox="0 0 24 24" xmlns="http://www.w3.org/2000/svg">
    <g fill="none" fill-rule="evenodd">
        <path d="M5 7.113a1 1 0 0 1 1.107-.994l3.628.388a1 1 0 0 1 .787.547l.248.495 8.325.792a1 1 0 0 1 .905.996V12l-15 .144V7.113z" fill="#FFF"/>
        <path d="M10.292 6c.29 0 .557.156.69.404l.591 1.096h7.65c.429 0 .777.336.777.75v9c0 .414-.348.75-.778.75H5.778A.764.764 0 0 1 5 17.25V6.75c0-.414.348-.75.778-.75h4.514zm-.218 1H6v10h13V8.515h-8.105L10.075 7z" fill="#6C8696" fill-rule="nonzero"/>
        <path d="M19.5 10.75v6.5l-13.5.5-.5-7h14z" stroke="#6C8696" fill="#FFF"/>
    </g>
</svg>
