<svg xmlns="http://www.w3.org/2000/svg" width="32" height="32" viewBox="0 0 32 32">
    <g fill="none" fill-rule="evenodd">
        <path fill="#FFF" fill-rule="nonzero" d="M14.577 14.143c1.262-2.49 2.938-5.008 5.312-5.133 3.562-.187 3.472 2.333 2.825 2.876-.647.543-1.527.028-1.356-.704-.621-.424-1.523.993-2.513 2.961h2.502a.875.875 0 1 1 0 1.75H17.99c-.948 1.953-2.093 4.277-2.88 5.103-1.029 1.08-2.353 2.232-5.272 1.825-1.45-.492-.724-1.813 0-1.66.746.192 1.744-.823 3.121-3.605.24-.484.498-1.052.78-1.663h-2.016a.875.875 0 0 1 0-1.75h2.855z"/>
    </g>
</svg>
