<svg xmlns="http://www.w3.org/2000/svg" width="32" height="32" viewBox="0 0 32 32">
    <g fill="none" fill-rule="evenodd">
        <path fill="#00B6B1" d="M14.606 21.1A2.2 2.2 0 0 1 10.5 20a2.2 2.2 0 0 1 4.106-1.1H16.7l4.871-4.872a1 1 0 0 1 .929-.628H26a1 1 0 0 1 1 1v.2a1 1 0 0 1-1 1h-2.89l-5.047 5.048a1.012 1.012 0 0 1-.075.068.998.998 0 0 1-.788.384h-2.594zm2.788-11a2.2 2.2 0 0 1 4.106 1.1 2.2 2.2 0 0 1-4.106 1.1H15.3l-4.871 4.872a1 1 0 0 1-.929.628H6a1 1 0 0 1-1-1v-.2a1 1 0 0 1 1-1h2.89l5.047-5.048c.024-.024.05-.047.075-.068a.998.998 0 0 1 .788-.384h2.594z"/>
    </g>
</svg>
