<svg width="24" height="24" viewBox="0 0 24 24" xmlns="http://www.w3.org/2000/svg">
    <g fill="#728997" fill-rule="evenodd">
        <path d="M15.086 2.727a4.35 4.35 0 0 1 1.278 3.086 4.35 4.35 0 0 1-1.278 3.085l-.515-.514a3.625 3.625 0 0 0 1.065-2.571 3.625 3.625 0 0 0-1.065-2.571l.515-.515zm-6.172 0 .515.515a3.625 3.625 0 0 0-1.065 2.57c0 1.005.407 1.914 1.065 2.572l-.515.514a4.35 4.35 0 0 1-1.278-3.085 4.35 4.35 0 0 1 1.278-3.086zm1.029 1.029.514.515c-.395.394-.639.94-.639 1.542 0 .602.244 1.147.639 1.542l-.514.515a2.9 2.9 0 0 1-.852-2.057 2.9 2.9 0 0 1 .852-2.057zm4.114 0a2.9 2.9 0 0 1 .852 2.057 2.9 2.9 0 0 1-.852 2.057l-.515-.514c.395-.395.64-.94.64-1.543s-.245-1.149-.64-1.543l.515-.514zM12 4.358a1.455 1.455 0 1 1 0 2.91 1.455 1.455 0 0 1 0-2.91z"/>
        <g fill-rule="nonzero">
            <path d="M14.182 15.818a.545.545 0 1 1 0 1.091H9.818a.545.545 0 1 1 0-1.09h4.364zm0-2.182a.545.545 0 1 1 0 1.091H9.818a.545.545 0 1 1 0-1.09h4.364z"/>
            <path d="M13.636 9.273c.563 0 1.026.425 1.085.972l.006.119h.546c1.205 0 2.182.976 2.182 2.181V18a2.182 2.182 0 0 1-2.182 2.182H8.727A2.182 2.182 0 0 1 6.545 18v-5.455c0-1.205.977-2.181 2.182-2.181h.546c0-.563.425-1.026.972-1.085l.119-.006h3.272zm-4.363 2.182h-.546c-.56 0-1.02.42-1.083.963l-.008.127V18c0 .56.421 1.02.964 1.084l.127.007h6.546c.56 0 1.02-.421 1.083-.964l.008-.127v-5.455c0-.559-.421-1.02-.964-1.083l-.127-.007h-.546c0 .562-.425 1.025-.972 1.084l-.119.006h-3.272a1.091 1.091 0 0 1-1.085-.972l-.006-.118zm4.363-1.091h-3.272v1.09h3.272v-1.09z"/>
        </g>
    </g>
</svg>
