<svg width="24" height="24" viewBox="0 0 24 24" xmlns="http://www.w3.org/2000/svg">
    <path d="m10.22 11.894-1.563-.001a.679.679 0 1 1 0-1.358h2.215c.979-1.931 2.28-3.885 4.12-3.982 2.764-.145 2.694 1.81 2.192 2.231-.502.421-1.185.022-1.052-.546-.482-.328-1.181.77-1.95 2.296l1.942.001a.679.679 0 1 1 0 1.358h-2.606c-.735 1.515-1.624 3.317-2.234 3.958-.798.837-1.825 1.732-4.09 1.416-1.124-.382-.56-1.407 0-1.288.58.15 1.354-.639 2.422-2.796.186-.375.386-.816.604-1.29z" fill="#728997" fill-rule="nonzero" stroke="#728997" stroke-width=".5"/>
</svg>
