<svg xmlns="http://www.w3.org/2000/svg" width="24" height="24" viewBox="0 0 24 24"><g fill="#728997" fill-rule="evenodd"><g fill-rule="nonzero"><path d="M14.182 15.273a.545.545 0 1 1 0 1.09H9.818a.545.545 0 1 1 0-1.09h4.364zm0-2.182a.545.545 0 1 1 0 1.09H9.818a.545.545 0 1 1 0-1.09h4.364z"/><path d="M13.636 8.727c.563 0 1.026.426 1.085.972l.006.12h.546c1.205 0 2.182.976 2.182 2.181v5.455a2.182 2.182 0 0 1-2.182 2.181H8.727a2.182 2.182 0 0 1-2.182-2.181V12c0-1.205.977-2.182 2.182-2.182h.546c0-.562.425-1.025.972-1.084l.119-.007h3.272zM9.273 10.91h-.546c-.56 0-1.02.421-1.083.964L7.636 12v5.455c0 .559.421 1.02.964 1.083l.127.007h6.546c.56 0 1.02-.42 1.083-.963l.008-.127V12c0-.56-.421-1.02-.964-1.084l-.127-.007h-.546c0 .562-.425 1.025-.972 1.085l-.119.006h-3.272a1.091 1.091 0 0 1-1.085-.972l-.006-.119zm4.363-1.09h-3.272v1.09h3.272V9.82z"/></g><path d="M13.981 3.687a.545.545 0 0 1 .838.699l-2.727 3.272a.545.545 0 0 1-.805.037L9.651 6.058a.545.545 0 1 1 .771-.771l1.214 1.214 2.345-2.814z"/></g></svg>