<svg xmlns="http://www.w3.org/2000/svg" width="24" height="24" viewBox="0 0 24 24"><g fill="#728997" fill-rule="nonzero"><path d="M14.182 15.273a.545.545 0 1 1 0 1.09H9.818a.545.545 0 1 1 0-1.09h4.364zm0-2.182a.545.545 0 1 1 0 1.09H9.818a.545.545 0 1 1 0-1.09h4.364z"/><path d="M13.636 8.727c.563 0 1.026.426 1.085.972l.006.12h.546c1.205 0 2.182.976 2.182 2.181v5.455a2.182 2.182 0 0 1-2.182 2.181H8.727a2.182 2.182 0 0 1-2.182-2.181V12c0-1.205.977-2.182 2.182-2.182h.546c0-.562.425-1.025.972-1.084l.119-.007h3.272zM9.273 10.91h-.546c-.56 0-1.02.421-1.083.964L7.636 12v5.455c0 .559.421 1.02.964 1.083l.127.007h6.546c.56 0 1.02-.42 1.083-.963l.008-.127V12c0-.56-.421-1.02-.964-1.084l-.127-.007h-.546c0 .562-.425 1.025-.972 1.085l-.119.006h-3.272a1.091 1.091 0 0 1-1.085-.972l-.006-.119zm4.363-1.09h-3.272v1.09h3.272V9.82zM12.748 3.43c0-.14.17-.21.27-.11l2.209 2.209a.158.158 0 0 1-.01.23l-2.209 1.895a.158.158 0 0 1-.26-.12v-1.12c-.909-.235-2.934.04-3.737 1.093-.1.132-.31.04-.281-.122.28-1.606 2.308-2.64 4.018-2.824V3.43z"/></g></svg>