<svg width="20" height="20" viewBox="0 0 20 20" xmlns="http://www.w3.org/2000/svg">
    <path d="M14.32 7.32c-.418.351-.987.018-.877-.455-.401-.274-.984.642-1.624 1.913l1.617.001a.566.566 0 0 1 0 1.132h-2.17c-.613 1.262-1.354 2.764-1.862 3.298-.665.698-1.521 1.443-3.409 1.18-.937-.318-.467-1.172 0-1.073.483.124 1.128-.532 2.018-2.33.155-.313.322-.68.504-1.074l-1.303-.001a.566.566 0 1 1 0-1.132H9.06c.815-1.61 1.9-3.237 3.434-3.318 2.303-.121 2.244 1.508 1.826 1.86z" fill="#4F80FF" fill-rule="nonzero" stroke="#4F80FF" stroke-width=".5"/>
</svg>
