<svg xmlns="http://www.w3.org/2000/svg" width="20" height="20" viewBox="0 0 20 20"><path fill="#4F80FF" fill-rule="nonzero" d="M6.364 7.585c0-.46.148-.927.443-1.4.296-.472.728-.864 1.295-1.174.567-.31 1.229-.466 1.985-.466.703 0 1.324.13 1.862.39.538.259.954.612 1.247 1.058.294.446.44.93.44 1.454 0 .412-.083.774-.25 1.084-.168.31-.367.578-.597.804-.23.225-.644.604-1.24 1.138-.165.15-.297.282-.396.396a1.61 1.61 0 0 0-.222.313c-.049.094-.086.189-.113.283-.026.095-.066.261-.12.499-.092.504-.38.756-.865.756a.885.885 0 0 1-.637-.247c-.172-.165-.258-.41-.258-.735 0-.407.063-.76.19-1.058.125-.298.293-.56.501-.785.209-.226.49-.494.844-.804.31-.272.534-.476.672-.615.139-.138.255-.292.35-.461.094-.17.141-.354.141-.553 0-.388-.144-.715-.432-.982-.289-.267-.661-.4-1.117-.4-.533 0-.926.135-1.178.404-.252.269-.465.665-.64 1.189-.165.548-.477.822-.938.822a.922.922 0 0 1-.687-.288c-.187-.191-.28-.399-.28-.622zm3.549 7.971c-.296 0-.554-.095-.775-.287-.22-.191-.33-.46-.33-.804 0-.305.106-.562.32-.77a1.08 1.08 0 0 1 .785-.313c.305 0 .562.104.77.313.21.208.313.465.313.77 0 .34-.109.607-.327.8-.218.194-.47.291-.756.291z"/></svg>