<svg width="20" height="20" viewBox="0 0 20 20" xmlns="http://www.w3.org/2000/svg">
    <g fill="#4F80FF" fill-rule="nonzero">
        <path d="M11.818 10.91a.455.455 0 0 1 0 .908H8.182a.455.455 0 0 1 0-.909h3.636zm0-1.82a.455.455 0 0 1 0 .91H8.182a.455.455 0 0 1 0-.91h3.636z"/>
        <path d="M11.818 3.636c.466 0 .85.351.903.803l.006.106h.91c1.004 0 1.818.814 1.818 1.819v7.272a1.818 1.818 0 0 1-1.819 1.819H6.364a1.818 1.818 0 0 1-1.819-1.819V6.364c0-1.005.814-1.819 1.819-1.819h.909c0-.466.35-.85.803-.903l.106-.006h3.636zM7.272 5.454h-.908a.91.91 0 0 0-.903.804l-.006.106v7.272c0 .467.35.85.803.903l.106.006h7.272a.91.91 0 0 0 .903-.803l.006-.106V6.364a.91.91 0 0 0-.803-.903l-.106-.006h-.91l.001.909a.91.91 0 0 1-.803.903l-.106.006H8.182a.91.91 0 0 1-.903-.803l-.006-.106v-.91zm4.546-.909H8.182v1.819h3.636V4.545z"/>
    </g>
</svg>
