<svg width="20" height="20" viewBox="0 0 20 20" xmlns="http://www.w3.org/2000/svg">
    <g fill="#728997" fill-rule="evenodd">
        <path d="M7.597 4.116c-.011.013-.017.027-.028.04.015-.008.029-.018.045-.023l-.017-.017zM12.088 8.45l1.024-1.937a.896.896 0 0 0 .312.063.91.91 0 1 0-.909-.909c0 .111.027.215.063.313L10.64 7.003l1.447 1.448zM7.674 4.68a4.793 4.793 0 0 0 .375 6.345c.84.842 1.927 1.3 3.039 1.38.07.004.14.005.208.006a4.821 4.821 0 0 0 1.031-.09c.116-.022.234-.042.35-.073a5.065 5.065 0 0 0 .79-.291c.074-.034.148-.063.22-.1.246-.131.483-.281.706-.458L7.674 4.68zM7.727 11.347c-.058-.058-.099-.127-.153-.187L6.1 15.335h5.359l-.896-2.541a5.2 5.2 0 0 1-2.836-1.447"/>
    </g>
</svg>
