<svg xmlns="http://www.w3.org/2000/svg" width="24" height="24" viewBox="0 0 24 24"><g fill="#728997" fill-rule="evenodd"><path d="M13.981 3.687a.545.545 0 0 1 .838.699l-2.727 3.272a.545.545 0 0 1-.805.037L9.651 6.058a.545.545 0 1 1 .771-.771l1.214 1.214 2.345-2.814z"/><path fill-rule="nonzero" d="M8.727 12.554c0-.414.133-.834.4-1.26.266-.425.654-.778 1.165-1.057.51-.28 1.106-.419 1.787-.419.632 0 1.19.117 1.675.35.485.234.859.551 1.123.953.264.401.396.838.396 1.309 0 .37-.076.696-.226.975-.15.28-.33.52-.537.723-.207.203-.58.545-1.116 1.025a4.543 4.543 0 0 0-.357.356 1.45 1.45 0 0 0-.2.282c-.043.085-.077.17-.1.255-.025.085-.06.235-.109.449-.083.453-.342.68-.779.68a.796.796 0 0 1-.572-.222c-.155-.149-.233-.369-.233-.661 0-.367.057-.684.17-.953.114-.268.265-.504.452-.707.188-.203.44-.444.76-.723.279-.244.48-.429.605-.553.124-.124.229-.263.314-.416.085-.152.128-.318.128-.497 0-.35-.13-.644-.39-.884s-.594-.36-1.004-.36c-.48 0-.834.121-1.06.364-.228.242-.42.598-.577 1.07-.148.493-.43.74-.844.74a.83.83 0 0 1-.619-.26c-.168-.172-.252-.358-.252-.559zm3.194 7.174a1.03 1.03 0 0 1-.697-.259c-.198-.172-.297-.413-.297-.723 0-.275.096-.506.288-.694a.973.973 0 0 1 .706-.281c.275 0 .507.094.694.281a.943.943 0 0 1 .282.694c0 .306-.098.546-.295.72a.994.994 0 0 1-.68.262z"/></g></svg>