<svg xmlns="http://www.w3.org/2000/svg" width="24" height="24" viewBox="0 0 24 24"><g fill="#728997" fill-rule="evenodd"><path d="M15.086 3.818a4.35 4.35 0 0 1 1.278 3.086 4.35 4.35 0 0 1-1.278 3.085l-.515-.514a3.625 3.625 0 0 0 1.065-2.571 3.625 3.625 0 0 0-1.065-2.572l.515-.514zm-6.172 0 .515.514a3.625 3.625 0 0 0-1.065 2.572c0 1.004.407 1.913 1.065 2.571l-.515.514a4.35 4.35 0 0 1-1.278-3.085 4.35 4.35 0 0 1 1.278-3.086zm1.029 1.029.514.514c-.395.395-.639.94-.639 1.543 0 .602.244 1.147.639 1.542l-.514.515a2.9 2.9 0 0 1-.852-2.057 2.9 2.9 0 0 1 .852-2.057zm4.114 0a2.9 2.9 0 0 1 .852 2.057 2.9 2.9 0 0 1-.852 2.057l-.515-.514c.395-.395.64-.94.64-1.543s-.245-1.149-.64-1.544l.515-.513zM12 5.449a1.455 1.455 0 1 1 0 2.91 1.455 1.455 0 0 1 0-2.91z"/><path fill-rule="nonzero" d="M8.727 13.645c0-.414.133-.834.4-1.26.266-.425.654-.778 1.165-1.057.51-.28 1.106-.419 1.787-.419.632 0 1.19.117 1.675.35.485.234.859.551 1.123.953.264.401.396.837.396 1.309 0 .37-.076.696-.226.975-.15.28-.33.52-.537.723-.207.203-.58.545-1.116 1.025a4.543 4.543 0 0 0-.357.356 1.45 1.45 0 0 0-.2.282c-.043.085-.077.17-.1.255-.025.085-.06.235-.109.448-.083.454-.342.681-.779.681a.796.796 0 0 1-.572-.222c-.155-.149-.233-.37-.233-.661 0-.367.057-.684.17-.953.114-.268.265-.504.452-.707.188-.203.44-.444.76-.723.279-.244.48-.429.605-.553.124-.124.229-.263.314-.416.085-.152.128-.318.128-.497 0-.35-.13-.644-.39-.884s-.594-.36-1.004-.36c-.48 0-.834.121-1.06.363-.228.243-.42.6-.577 1.07-.148.494-.43.74-.844.74a.83.83 0 0 1-.619-.258c-.168-.173-.252-.36-.252-.56zm3.194 7.174a1.03 1.03 0 0 1-.697-.259c-.198-.172-.297-.413-.297-.723 0-.275.096-.506.288-.694a.973.973 0 0 1 .706-.281c.275 0 .507.094.694.281a.943.943 0 0 1 .282.694c0 .306-.098.546-.295.72a.994.994 0 0 1-.68.262z"/></g></svg>