<svg xmlns="http://www.w3.org/2000/svg" width="18" height="18" viewBox="0 0 18 18"><g fill="none" fill-rule="evenodd"><circle cx="9" cy="9" r="9" fill="#FFF"/><g fill-rule="nonzero"><path fill="#4F80FF" d="M9 0a9 9 0 1 1 0 18A9 9 0 0 1 9 0zm0 1a8 8 0 1 0 0 16A8 8 0 0 0 9 1z"/><path fill="#4F80FF" d="M9.033 5.571c2.279 0 4.124 1.143 5.536 3.427l.002.001v.002l-.002.001c-1.412 2.284-3.257 3.427-5.536 3.427h-.066c-2.279 0-4.124-1.143-5.536-3.427l-.002-.001v-.002l.002-.001C4.843 6.714 6.688 5.57 8.967 5.57h.066z"/><path fill="#FFF" d="M9 6.107a2.893 2.893 0 1 0 0 5.786 2.893 2.893 0 0 0 0-5.786zm0 1.5a1.393 1.393 0 1 1 0 2.786 1.393 1.393 0 0 1 0-2.786z"/></g></g></svg>