<svg xmlns="http://www.w3.org/2000/svg" width="18" height="18" viewBox="0 0 18 18"><g fill="none" fill-rule="nonzero"><circle cx="9" cy="9" r="8.5" fill="#FFF" stroke="#AAC5D5"/><path fill="#8AA3B2" d="M14.24 7.561a.5.5 0 0 1 .199.679c-.563 1.03-1.275 1.82-2.13 2.363l1.252 1.25a.5.5 0 0 1-.707.708l-1.415-1.415a.503.503 0 0 1-.059-.07 6.18 6.18 0 0 1-1.882.408c.002.004.002.01.002.016v2a.5.5 0 1 1-1 0v-2l.002-.016a6.212 6.212 0 0 1-1.884-.408.426.426 0 0 1-.057.07l-1.415 1.415a.5.5 0 0 1-.707-.707l1.251-1.25C4.836 10.06 4.124 9.27 3.561 8.24a.5.5 0 1 1 .878-.48C5.444 9.6 6.943 10.5 9 10.5s3.556-.9 4.561-2.74a.5.5 0 0 1 .679-.199z"/></g></svg>