<svg xmlns="http://www.w3.org/2000/svg" width="32" height="32" viewBox="0 0 32 32">
    <g fill="none" fill-rule="evenodd">
        <path fill="#FFF" fill-rule="nonzero" d="M11.242 18.486l7.25-.964a1 1 0 0 1 1.132.991v2.732a1 1 0 0 1-1.132.99l-7.25-.963.592 2.367a.5.5 0 0 1-.763.537L5.25 20.295a.5.5 0 0 1 0-.832l5.822-3.882a.5.5 0 0 1 .763.537l-.592 2.368zm9.516-5.67l-7.25.964a1 1 0 0 1-1.132-.992v-2.731a1 1 0 0 1 1.132-.991l7.25.964-.592-2.368a.5.5 0 0 1 .763-.537l5.822 3.882a.5.5 0 0 1 0 .832L20.93 15.72a.5.5 0 0 1-.763-.537l.592-2.367z"/>
    </g>
</svg>
