<svg width="18" height="18" viewBox="0 0 18 18" xmlns="http://www.w3.org/2000/svg">
    <g stroke="#4F80FF" fill="none" fill-rule="evenodd">
        <circle fill="#FFF" cx="9" cy="9" r="8.5"/>
        <path d="M8.767 12.729c.464-.131.572-.091.659-.004a.435.435 0 0 1 .127.32c0 .134-.03.248-.119.327a.516.516 0 0 1-.68 0c-.088-.078-.116-.193-.116-.326 0-.125.042-.232.13-.317zm.49-8.229c.533 0 1.004.094 1.412.29.383.185.682.433.89.75.202.307.303.64.303.999 0 .269-.05.507-.16.71-.12.225-.264.42-.43.583-.199.195-.555.521-1.069.98-.49.945-.734 1.405-.935 1.67-.516-.47-.477-.715-.39-.92.087-.206.202-.387.346-.543.173-.187.407-.409.7-.666.283-.248.487-.435.613-.56.154-.154.283-.326.388-.515.229-1.301-.018-1.645-.351-1.953-.34-.314-.776-.483-1.316-.483-.644 0-1.097.193-1.396.512-.26.277-.489.682-.67 1.224-.692-.236-.583-.554-.38-.878.216-.346.535-.628.949-.854.427-.234.927-.346 1.497-.346z" fill="#979797"/>
    </g>
</svg>
