<svg xmlns="http://www.w3.org/2000/svg" width="32" height="32" viewBox="0 0 32 32">
    <g fill="none" fill-rule="evenodd">
        <path fill="#00B6B1" d="M17 9.732V12h3a4 4 0 0 1 4 4v5a4 4 0 0 1-4 4h-8a4 4 0 0 1-4-4v-5a4 4 0 0 1 4-4h3V9.732a2 2 0 1 1 2 0zm8 5.318a2.5 2.5 0 0 1 2 2.45v2a2.5 2.5 0 0 1-2 2.45v-6.9zm-18 6.9a2.5 2.5 0 0 1-2-2.45v-2a2.5 2.5 0 0 1 2-2.45v6.9zM13 20a1 1 0 0 0 0 2h6a1 1 0 0 0 0-2h-6zm7-1a1 1 0 1 0 0-2 1 1 0 0 0 0 2zm-8 0a1 1 0 1 0 0-2 1 1 0 0 0 0 2z"/>
    </g>
</svg>
