<svg xmlns="http://www.w3.org/2000/svg" width="32" height="32" viewBox="0 0 32 32">
    <g fill="none" fill-rule="evenodd">
        <path fill="#FFF" fill-rule="nonzero" d="M16 27C9.925 27 5 22.075 5 16S9.925 5 16 5s11 4.925 11 11-4.925 11-11 11zm0-1.5a9.5 9.5 0 1 0 0-19 9.5 9.5 0 0 0 0 19zM15.534 11c1.025 0 1.834.337 2.425 1.01.01-.332.077-.56.2-.683.123-.123.338-.185.643-.185.631 0 .947.256.947.768 0 .143-.015.351-.045.626a6.36 6.36 0 0 0-.044.626c0 .086.01.209.03.37.02.161.029.285.029.37v.071c0 .56-.335.84-1.006.84-.561 0-.897-.228-1.005-.684l-.074-.298c-.148-.617-.67-.925-1.567-.925-.848 0-1.272.285-1.272.854 0 .294.091.493.273.597.183.104.644.228 1.383.37 1.242.237 2.144.593 2.706 1.067.562.474.843 1.119.843 1.934 0 .958-.34 1.743-1.02 2.355-.68.611-1.548.917-2.603.917-.877 0-1.72-.303-2.529-.91-.03.53-.325.796-.887.796-.64 0-.961-.303-.961-.91 0-.2.015-.413.044-.64.04-.304.06-.536.06-.697 0-.105-.013-.266-.037-.484a4.778 4.778 0 0 1-.037-.484.72.72 0 0 1 .318-.604c.211-.157.485-.235.82-.235.375 0 .643.078.806.235.163.156.279.448.348.875.108.71.67 1.067 1.685 1.067.414 0 .745-.095.991-.285a.89.89 0 0 0 .37-.74c0-.332-.109-.566-.325-.704-.217-.137-.735-.3-1.553-.49l-.976-.228a3.358 3.358 0 0 1-1.183-.555c-.71-.512-1.065-1.2-1.065-2.062 0-.873.303-1.582.91-2.127.606-.545 1.392-.818 2.358-.818z"/>
    </g>
</svg>
