<svg xmlns="http://www.w3.org/2000/svg" width="32" height="32" viewBox="0 0 32 32"><g fill="none" fill-rule="evenodd" transform="translate(4 8)"><path stroke="#FFF" stroke-linecap="round" stroke-linejoin="round" stroke-width="2" d="M7.062 3.017A7.034 7.034 0 0 0 5.397 5.65 6.989 6.989 0 0 0 5 7.978a6.988 6.988 0 0 0 2.094 4.994m9.83-.018a7.035 7.035 0 0 0 1.134-1.466A6.968 6.968 0 0 0 19 7.978a6.989 6.989 0 0 0-2.097-4.996M3.015.024A11.945 11.945 0 0 0 0 7.979a11.946 11.946 0 0 0 3.071 8.017m17.898-.045A11.946 11.946 0 0 0 24 7.979 11.945 11.945 0 0 0 20.965 0"/><circle cx="12" cy="7.978" r="3" fill="#FFF"/></g></svg>