<svg xmlns="http://www.w3.org/2000/svg" width="32" height="32" viewBox="0 0 32 32">
    <g fill="none" fill-rule="evenodd">
        <path fill="#00B400" d="M12.51 23.8h1.08a1.2 1.2 0 1 1 0 2.4H9.15a1.2 1.2 0 1 1 0-2.4h1.08V8.14a1.14 1.14 0 0 1 2.28 0V23.8zm5.162-6.466c-1.357.286-2.978.186-3.792-.39a.517.517 0 0 1-.23-.429v-8c0-.276.213-.5.475-.5.113 0 .217.042.298.111.814.568 1.897.709 3.25.424 2.035-.43 3.82-1.993 7.212-.418.187.097.165.232.165.383v8c0 .276-.213.5-.475.5-.132 0-.306-.096-.49-.168-3.132-1.174-4.377.058-6.413.487z"/>
    </g>
</svg>
