<svg xmlns="http://www.w3.org/2000/svg" width="32" height="32" viewBox="0 0 32 32">
    <g fill="none" fill-rule="evenodd">
        <path fill="#FFF" d="M22.688 15.899h-1.936v7.274c0 .25-.047.296-.28.296h-1.577c-.234 0-.312-.047-.312-.296V8.797c0-.235.078-.297.312-.297h1.576c.234 0 .281.062.281.297v5.322h1.936c.187 0 .312 0 .312.297v1.186c0 .25-.125.297-.312.297zm-12.3 4.355c-.297.171-.406.187-.578-.047l-.733-1.093c-.14-.203-.078-.406.109-.515 3.137-1.764 4.98-4.105 5.354-6.837.031-.218-.047-.327-.234-.327H9.95c-.266 0-.297-.079-.297-.313v-1.17c0-.25.063-.297.297-.297h5.681c1.046 0 1.296.406 1.234 1.327-.25 3.746-2.607 7.149-6.478 9.272z"/>
    </g>
</svg>
