<svg xmlns="http://www.w3.org/2000/svg" width="90" height="77" viewBox="0 0 90 77">
    <path fill="#E43500" fill-rule="evenodd" d="M58.331 39.355h-4.148V54.94c0 .536-.1.636-.602.636h-3.378c-.502 0-.669-.1-.669-.636V24.136c0-.502.167-.636.67-.636h3.377c.502 0 .602.134.602.636V35.54h4.148c.401 0 .669 0 .669.636v2.542c0 .535-.268.636-.669.636zm-26.357 9.332c-.636.368-.87.401-1.238-.1l-1.572-2.342c-.301-.435-.167-.87.234-1.104 6.723-3.78 10.67-8.797 11.473-14.65.067-.469-.1-.703-.502-.703h-9.332c-.568 0-.635-.167-.635-.669v-2.508c0-.535.133-.636.635-.636h12.175c2.241 0 2.777.87 2.643 2.843-.535 8.028-5.586 15.32-13.881 19.869z"/>
</svg>
