<svg xmlns="http://www.w3.org/2000/svg" xmlns:xlink="http://www.w3.org/1999/xlink" width="62" height="94" viewBox="0 0 62 94"><defs><path id="70c20lrp6a" d="M0 0.316L61.759 0.316 61.759 26.104 0 26.104z"/></defs><g fill="none" fill-rule="evenodd"><g><g><g><g><path fill="#FFF" d="M30.11 2.684c-1.2 0-2.4.5-3.2 1.3-.9.9-1.3 2-1.3 3.2v1.6c0 .4.2.8.5 1.1.3.3.6.4 1 .4h.1c1.3-.1 2.5-.1 3.7-.1 1.3 0 2.5 0 3.7.1h.1c.4 0 .7-.1 1-.4.3-.3.5-.7.5-1.1v-1.6c0-2.5-2-4.5-4.6-4.5h-1.5zm.6 22.6c-9.3 0-18.4-.7-27.2-2.1l-1.4-2c-1.2-1.6-.8-3.8.8-4.9.3-.2.7-.4 1.1-.5l17.3-4.9c1-.1 2-.3 2.9-.4.8-.1 1.3-.7 1.3-1.5v-1.9c0-2.5 2.1-4.6 4.6-4.6h1.5c2.5 0 4.6 2 4.6 4.5v1.9c0 .8.6 1.4 1.3 1.5.9.1 1.9.2 2.9.4l17.3 4.8c1.9.5 2.9 2.5 2.4 4.3-.1.4-.3.7-.5 1.1l-1.4 2c-8.9 1.4-18.1 2.2-27.4 2.2h-.1v.1z" transform="translate(-140.000000, -197.000000) translate(140.000000, 197.000000)"/><g transform="translate(-140.000000, -197.000000) translate(140.000000, 197.000000) translate(0.000000, 0.684400)"><mask id="o29wtgw7hb" fill="#fff"><use xlink:href="#70c20lrp6a"/></mask><path fill="#FFB503" d="M27.01 8.1c-.456-3.233 1.36-5.032 4.6-4.6 2.56-.004 3.39 2.5 3.1 4.6-1.3-.1-2.6-.1-3.8-.1-1.24 0-2.464-.003-3.9.1m4.6-7.7c-4.852-.721-8.352 3.284-7.6 8-1.82-.294-18.404 4.805-20.5 5.3-5.064 1.512-3.995 7.222-.9 10.2 18.243 2.995 38.364 2.915 56.6-.1 3.112-2.979 4.018-8.684-1.002-10.2-2.18-.539-18.575-5.507-20.499-5.3.547-3.902-1.752-7.937-6.1-7.9m5.8 10.9c1.535-.359 18.164 4.664 20 5.1 2.43.73 1.264 3.331 0 4.6-17.11 2.74-35.929 2.771-53 .1-1.263-1.288-2.366-3.798 0-4.6 8.147-2.478 21.864-6.751 30.4-5.4" mask="url(#o29wtgw7hb)"/></g><path fill="#FFF" d="M58.81 28.584l-3.3 59.8c-2.2 2-9.2 3.2-20.9 3.8-16.1 0-25.5-1.2-28.2-3.7l-.1-.1-3.5-59.7h.6c8.4 1.3 17.1 2 25.9 2.1h1.6c9.4 0 18.5-.7 27.4-2.1l.5-.1z" transform="translate(-140.000000, -197.000000) translate(140.000000, 197.000000)"/><path fill="#FFB503" d="M7.81 87.684c1.8 1.2 7.7 3 26.8 3 13.2-.6 17.8-2.1 19.4-3.1l3.2-57.2c-8.6 1.3-17.4 1.9-26.4 1.9h-1.6c-8.4-.1-16.7-.7-24.8-1.9l3.4 57.3zm26.9 6c-22.2 0-27.3-2.3-29.2-4.1l-.1-.1c-.3-.3-.4-.6-.5-1l-3.6-59.8c0-.5.2-.9.5-1.2.3-.3.8-.4 1.2-.4l.5.1c8.3 1.3 16.9 2 25.7 2.1h1.6c9.3 0 18.4-.7 27.2-2.1l.5-.1c.4-.1.9.1 1.2.4.3.3.5.7.5 1.2l-3.3 59.8c0 .4-.2.8-.5 1-1.5 1.5-5.5 3.5-21.7 4.2z" transform="translate(-140.000000, -197.000000) translate(140.000000, 197.000000)"/><path fill="#FFB503" d="M50.71 39.184c-1.1 0-2 .8-2.1 1.9v.2l-2.4 36.8v.1c0 1 .8 1.9 1.9 1.9 1.1 0 2-.8 2.1-1.9v-.2l2.4-36.8v-.1c0-1.1-.9-1.9-1.9-1.9M40.31 39.984c-1.1 0-2 .8-2.1 1.9v.2l-1.2 36.8v.1c0 1.1.9 2 2 2s2-.8 2.1-1.9v-.2l1.2-36.8v-.1c0-1.1-.9-2-2-2M30.71 40.784c-1.1 0-1.9.8-2 1.9v37c0 1.1.9 2 2 2s1.9-.8 2-1.9v-37c0-1.1-.9-2-2-2M21.01 39.984c-1.1 0-2 .9-2 2v.1l1.2 36.8v.2c.1 1.1 1 1.9 2.1 1.9s2-.9 2-2l-1.2-36.8v-.2c-.1-1.2-1-2-2.1-2M11.009 39.184c-1 0-1.9.8-1.9 1.9v.2l2.4 36.8v.2c.1 1.1 1 1.9 2.1 1.9 1 0 1.9-.8 1.9-1.9v-.2l-2.4-36.8v-.2c-.1-1-1-1.9-2.1-1.9" transform="translate(-140.000000, -197.000000) translate(140.000000, 197.000000)"/></g></g></g></g></g></svg>