<svg xmlns="http://www.w3.org/2000/svg" width="64" height="102" viewBox="0 0 64 102"><g fill="none" fill-rule="evenodd"><g><g><g><g><g><path fill="#FFB503" d="M31.3 35.9c-17.8 0-28-3.3-28.3-5 .1-.9 5.3-3.8 20.1-4.8 2 1.5 4.1 2.9 6.1 4.3 2.8 1.9 5.6 3.7 8.3 5.3-1.9.1-3.9.1-5.8.1h-.4v.1z" transform="translate(-269.000000, -187.000000) translate(239.000000, 187.000000) translate(30.000000, 0.000000) translate(0.500000, 0.000000)"/><path fill="#FFB503" d="M23.6 24.6h-.4c-12.5.8-21.7 3.3-21.7 6.3 0 3.6 13.3 6.5 29.8 6.5h.5c3.8 0 7.5-.2 10.8-.5-4.2-2.3-8.4-4.9-12.5-7.7-2.2-1.5-4.4-3-6.5-4.6m-1 3c1.9 1.4 3.9 2.7 5.8 4 1.4.9 2.7 1.8 4.1 2.7h-1.2c-13.8 0-22.7-2-25.9-3.5 2.3-1 7.7-2.5 17.2-3.2" transform="translate(-269.000000, -187.000000) translate(239.000000, 187.000000) translate(30.000000, 0.000000) translate(0.500000, 0.000000)"/><path fill="#FFF" d="M42.7 4.6c-1.5 0-2.9.7-3.8 2L38 8c-.2.3-.3.8-.2 1.2.1.4.3.8.7 1 1.1.6 2.2 1.3 3.2 2s2 1.4 3 2.2c.3.2.6.3.9.3h.2c.4-.1.8-.3 1-.6l.9-1.4c1.4-2.1.8-4.9-1.2-6.3l-1.3-.9c-.7-.6-1.6-.9-2.5-.9zm14.4 33.6c-8.1-3.8-16.2-8.3-23.9-13.5-7.7-5.2-15-11-21.5-17.1V5.1c0-1.9 1.5-3.5 3.4-3.6.4 0 .8.1 1.2.2l17.1 5.6c.9.4 1.8.9 2.6 1.3.2.1.5.2.7.2.5 0 1-.2 1.2-.7L39 6.5c.8-1.2 2.2-2 3.8-2 .9 0 1.8.3 2.6.8l1.3.9c2.1 1.4 2.7 4.3 1.3 6.3l-1.1 1.6c-.4.6-.3 1.5.3 2 .7.6 1.5 1.3 2.2 1.9L61 31.7c1.2 1.5 1.1 3.7-.4 4.9-.3.3-.6.5-1 .6l-2.5 1z" transform="translate(-269.000000, -187.000000) translate(239.000000, 187.000000) translate(30.000000, 0.000000) translate(0.500000, 0.000000)"/><path fill="#FFB503" d="M45.6 13.1c-1-.8-2.1-1.5-3.1-2.2-1-.7-2.1-1.4-3.2-2l.9-1.4c.6-.9 1.5-1.3 2.5-1.3.6 0 1.2.2 1.7.5l1.3.9c1.4.9 1.8 2.8.8 4.2l-.9 1.3zM15.1 0c-2.9.1-5 2.3-5 5.1l.066 2.031c.022.684.314 1.333.815 1.799C17.558 15.05 24.609 20.706 32.4 25.9c8 5.4 16.3 10.1 24.7 13.9l2.9-1.1c.5-.2 1-.5 1.4-.9 2.1-1.8 2.4-4.9.6-7L50.3 17c-.8-.7-1.6-1.4-2.3-2l1.1-1.6c1.9-2.8 1.1-6.5-1.7-8.4l-1.3-.9C45 3.4 43.8 3 42.7 3c-1.9 0-3.9.9-5 2.7l-1.1 1.6c-.9-.5-1.8-.9-2.699-1.4H33.9L16.7.2c-.5-.1-1-.2-1.6-.2zm0 3c.2 0 .4 0 .6.1l17 5.6c.9.4 1.7.8 2.5 1.3.4.2 2.1 1.2 2.6 1.5 1.1.6 2.099 1.299 3.099 1.899l.001.001c1 .7 2 1.4 2.9 2.1.4.3 1.9 1.5 2.3 1.8l2.1 1.8 11.5 13.6c.3.4.5.9.5 1.5 0 .5-.3 1-.7 1.4-.2.1-.4.3-.6.3l-1.7.7c-7.9-3.7-15.6-8.1-23.1-13.2-7.28-4.95-14.089-10.278-20.335-15.982-.361-.33-.565-.797-.565-1.286V5.1C13.1 3.9 14 3 15.1 3z" transform="translate(-269.000000, -187.000000) translate(239.000000, 187.000000) translate(30.000000, 0.000000) translate(0.500000, 0.000000)"/><path fill="#FFF" d="M1.5 36.5c5.1 3.1 16.3 4.9 29.8 4.9h.6c6.3 0 12.1-.4 17.1-1.1 2.2 1.1 4.3 2.2 6.5 3.2l1.6.7h.1l-2.9 52.5c-2.2 2-9.2 3.2-20.9 3.8-16.1 0-25.5-1.2-28.2-3.7l-.1-.1-3.6-60.2z" transform="translate(-269.000000, -187.000000) translate(239.000000, 187.000000) translate(30.000000, 0.000000) translate(0.500000, 0.000000)"/><path fill="#FFB503" d="M6.5 95.9c2 1.4 8.4 3 26.8 3 12.8-.7 17.7-2 19.4-3.1l2.8-50.7-.7-.3c-1.7-.8-3.3-1.6-4.9-2.4l-1.2-.6c-5.2.7-10.8 1.1-16.8 1.1h-.6c-12.2 0-22.2-1.4-28.1-3.9l3.3 56.9zm26.9 6c-22.3 0-27.4-2.3-29.3-4.1l-.1-.1c-.3-.3-.4-.6-.4-1L0 36.5c0-.6.2-1.1.7-1.4.5-.3 1.1-.3 1.6 0 4.8 2.9 15.7 4.7 29 4.7h.6c6.1 0 11.7-.4 16.9-1.1.3 0 .6 0 .9.1l1.7.8c1.6.8 3.2 1.6 4.8 2.3l1.3.6c.3.1.6.2.8.4.3.3.4.7.4 1.1l-2.9 52.5c0 .4-.2.8-.5 1-1.7 1.8-5.7 3.6-21.9 4.4z" transform="translate(-269.000000, -187.000000) translate(239.000000, 187.000000) translate(30.000000, 0.000000) translate(0.500000, 0.000000)"/><path fill="#FFB503" d="M49.5 47.4c-1.1 0-2 .8-2.1 1.9v.2L45 86.3v.1c0 1 .8 1.9 1.9 1.9 1.1 0 2-.8 2.1-1.9v-.2l2.4-36.8v-.1c-.1-1.1-.9-1.9-1.9-1.9M39.1 48.2c-1.1 0-2 .8-2.1 1.9v.2l-1.2 36.8v.1c0 1.1.9 2 2 2s2-.8 2.1-1.9v-.2l1.2-36.8v-.1c0-1.1-.9-2-2-2M29.5 49c-1.1 0-1.9.8-2 1.9v37c0 1.1.9 2 2 2s1.9-.8 2-1.9V51c0-1.1-.9-2-2-2M19.8 48.2c-1.1 0-2 .9-2 2v.1L19 87.1v.2c.1 1.1 1 1.9 2.1 1.9s2-.9 2-2l-1.2-36.8v-.2c-.1-1.2-1-2-2.1-2M9.8 47.4c-1 0-1.9.8-1.9 1.9v.2l2.4 36.8v.2c.1 1.1 1 1.9 2.1 1.9 1 0 1.9-.8 1.9-1.9v-.2l-2.4-36.8v-.2c-.1-1-1-1.9-2.1-1.9" transform="translate(-269.000000, -187.000000) translate(239.000000, 187.000000) translate(30.000000, 0.000000) translate(0.500000, 0.000000)"/></g></g></g></g></g></g></svg>