<svg xmlns="http://www.w3.org/2000/svg" width="32" height="32" viewBox="0 0 32 32">
    <g fill="none" fill-rule="evenodd">
        <path fill="#DD47D8" d="M11 12.389c0-.665.213-1.339.64-2.021.428-.683 1.05-1.248 1.87-1.696.819-.448 1.774-.672 2.866-.672 1.015 0 1.911.187 2.688.562.777.374 1.377.883 1.8 1.527.424.645.636 1.344.636 2.1 0 .596-.12 1.117-.362 1.565a4.788 4.788 0 0 1-.861 1.16c-.333.326-.93.873-1.79 1.644a7.288 7.288 0 0 0-.573.572c-.143.164-.25.315-.32.451-.07.137-.124.273-.163.41-.038.136-.096.376-.173.719-.133.728-.55 1.092-1.25 1.092-.364 0-.67-.119-.918-.357-.249-.238-.373-.591-.373-1.06 0-.589.091-1.098.273-1.528.182-.43.423-.809.724-1.134.302-.326.707-.712 1.219-1.16.448-.393.771-.688.97-.888.2-.2.368-.421.505-.667.136-.245.204-.51.204-.797 0-.56-.208-1.033-.624-1.418-.417-.385-.954-.577-1.612-.577-.77 0-1.337.194-1.701.582-.364.389-.672.961-.924 1.717-.238.791-.69 1.186-1.354 1.186-.393 0-.723-.138-.993-.414-.27-.277-.404-.576-.404-.898zm5.124 11.508c-.427 0-.8-.138-1.118-.415-.319-.276-.478-.663-.478-1.16 0-.441.154-.812.462-1.113a1.56 1.56 0 0 1 1.134-.451c.441 0 .812.15 1.113.451.301.301.452.672.452 1.113 0 .49-.158.875-.473 1.155-.315.28-.679.42-1.092.42z"/>
    </g>
</svg>
