<svg xmlns="http://www.w3.org/2000/svg" xmlns:xlink="http://www.w3.org/1999/xlink" id="Layer_1" x="0" y="0" version="1.1" viewBox="0 0 16 16" style="enable-background:new 0 0 16 16" xml:space="preserve"><style type="text/css">.st0{fill-rule:evenodd;clip-rule:evenodd;fill:#555}</style><path d="M5.3,0v3.6c0,1-0.8,1.8-1.8,1.8H0V4.4h3.6C4,4.4,4.4,4,4.4,3.6V0H5.3z M5.3,16H4.4v-3.6c0-0.5-0.4-0.9-0.9-0.9	H0v-0.9h3.6c1,0,1.8,0.8,1.8,1.8V16z M10.7,0h0.9v3.6c0,0.5,0.4,0.9,0.9,0.9H16v0.9h-3.6c-1,0-1.8-0.8-1.8-1.8V0z M10.7,16v-3.6	c0-1,0.8-1.8,1.8-1.8H16v0.9h-3.6c-0.5,0-0.9,0.4-0.9,0.9V16H10.7z" class="st0"/></svg>