<?xml version="1.0" encoding="utf-8"?>
<!-- Generator: Adobe Illustrator 25.0.1, SVG Export Plug-In . SVG Version: 6.00 Build 0)  -->
<svg version="1.1" id="Layer_2_1_" xmlns="http://www.w3.org/2000/svg" xmlns:xlink="http://www.w3.org/1999/xlink" x="0px" y="0px"
	 viewBox="0 0 144 246" style="enable-background:new 0 0 144 246;" xml:space="preserve">
<g>
	<g>
		<path style="fill-rule:evenodd;clip-rule:evenodd;fill:#0088C5;" d="M65,188.3l-1.2,2c-2.5,4.1-8.2,9.9-11.8,13.4l-7.7,5.3
			c-2.1,1.4-2.6,4.3-1.2,6.3l2.4,3.5l7.5,10.8c2.2,3.2,4.5,7.4,8.8,7.9c3,0.3,6.4-2.7,7.7-5.1c2.4-4.5,2.7-10,0.8-14.8
			c0,0-0.1-0.2-0.1-0.3c-1.6-3.6-3.5-5.5-5-6.4c-1-0.6-1.2-1.9-0.4-2.8c3.5-3.7,6.5-7.5,8.9-11.4l1.1-1.8L65,188.3z"/>
	</g>
	<g>
		<path style="fill:#FFFFFF;" d="M81.2,158.7c-0.4-2.1-1.8-3.7-3.7-4.3c-2.1-0.7-4.5-0.2-6.2,1.3c-1.6,1.4-2.3,3.5-1.9,5.7
			c2,9.8,0.1,19.5-5.6,28.8l-1.1,1.8l9.9,6.7l1.2-2C81.4,184.7,83.9,171.8,81.2,158.7z"/>
	</g>
	<g>
		<path d="M75.7,154.1c0.7,0,1.3,0.1,1.9,0.3c1.9,0.6,3.2,2.2,3.7,4.3c2.5,12.5,0.3,24.6-6.4,36.2L75,195l-1.1,1.8l0,0l-1.2,2h-0.1
			c-2.2,3.3-4.8,6.5-7.7,9.6c-0.8,0.8-0.6,2,0.3,2.6c1.5,0.9,3.5,2.7,5.1,6.5l0.1,0.3c2,4.7,1.7,10.2-0.8,14.8
			c-1.3,2.3-4.4,5.2-7.3,5.2c-0.2,0-0.3,0-0.5,0c-4.4-0.5-6.6-4.7-8.8-7.9l-7.5-10.8l-2.4-3.5c-1.4-2-0.9-4.8,1.1-6.2l7.7-5.3l0,0
			c3.6-3.5,9.3-9.4,11.8-13.4l0,0c5.7-9.3,7.6-19,5.6-28.8c-0.4-2.2,0.2-4.3,1.9-5.7C72.5,154.7,74.1,154.1,75.7,154.1 M75.7,150.6
			c-2.5,0-4.8,0.9-6.7,2.5c-2.6,2.3-3.7,5.7-3,9.1c1.8,8.9,0,17.7-5.2,26.2c-1.7,2.8-5.6,7.2-11,12.6l-7.5,5.2
			c-1.8,1.2-2.9,3-3.3,5.1c-0.4,2.1,0.1,4.2,1.3,6l2.4,3.5l7.5,10.8c0.3,0.4,0.5,0.8,0.8,1.2c2.1,3.2,5.1,7.6,10.6,8.2
			c0.3,0,0.6,0,0.9,0c4.3,0,8.5-3.6,10.4-7c2.9-5.4,3.3-12.1,0.9-17.8l-0.1-0.2c-1.5-3.4-3.2-5.5-4.8-6.9c2.3-2.6,4.4-5.2,6.2-7.9
			c0.2-0.2,0.4-0.4,0.5-0.7l1.2-2l0,0l1.1-1.8c0.2-0.3,0.3-0.6,0.4-0.9c6.8-12.2,9-25,6.4-38c-0.7-3.3-2.9-5.9-6-7
			C77.7,150.7,76.7,150.6,75.7,150.6L75.7,150.6z"/>
	</g>
</g>
<g>
	<g>
		<g>
			<path style="fill:#FFFFFF;" d="M56.7,164.8c-2.3,0.6-7.4,3.8-6.8,6l8.4,34.6l12-2.9l-8.4-34.6C61.3,165.6,59,164.2,56.7,164.8"/>
		</g>
		<g>
			<path style="fill-rule:evenodd;clip-rule:evenodd;fill:#009FF9;" d="M84.6,213.4h-0.3c-8.2,0.4-10.2,4.6-10.2,4.6l-4.7-19.2
				l-12,2.9l8.5,35.1c0.6,2.4,4.9,3.4,7.3,2.8l3-0.7l13.8-3.4c4.1-1,9.2-1.6,11.4-5.8c1.5-2.9-0.2-7.5-2.2-9.8
				C95.6,215.7,90.1,213.3,84.6,213.4"/>
		</g>
	</g>
	<g>
		<path d="M57.8,164.6c1.9,0,3.7,1.3,4.1,3.2l7.5,30.8l4.7,19.2c0,0,2-4.2,10.2-4.6c0.1,0,0.3,0,0.3,0c0.2,0,0.3,0,0.5,0
			c5.4,0,10.6,2.4,14.1,6.5c1.9,2.3,3.7,6.9,2.2,9.8c-2.2,4.2-7.3,4.9-11.4,5.8l-13.8,3.4l-3,0.7c-0.4,0.1-0.9,0.2-1.5,0.2
			c-2.4,0-5.3-1-5.8-3l-8.5-35.1l0,0l-7.5-30.8c-0.6-2.3,4.6-5.5,6.8-6C57.1,164.7,57.4,164.6,57.8,164.6 M57.8,161.1
			c-0.6,0-1.2,0.1-1.8,0.2c-2.4,0.6-10.8,4.6-9.4,10.3l7.5,30.8l8.5,35.1c1,3.9,5.4,5.7,9.2,5.7c0.8,0,1.6-0.1,2.3-0.3l3-0.7
			l13.8-3.4c0.5-0.1,1-0.2,1.5-0.3c4-0.9,9.5-2.1,12.2-7.3c2.4-4.6-0.1-10.8-2.6-13.7c-4.1-4.8-10.4-7.7-16.8-7.7h-0.5h-0.3
			c-3.5,0.2-6.1,0.9-8.1,1.8l-3.4-13.8L65.3,167C64.5,163.5,61.4,161.1,57.8,161.1L57.8,161.1z"/>
	</g>
</g>
<g>
	<path style="fill:#FFFFFF;" d="M117.2,132.6c-2.9-5.8-4.4-12-6-18.5c-0.7-2.9-3.1-13.5-8.3-9.7c-1.9,1.4-2,4.9-2.2,7
		c-0.5,4.6-0.4,9.2,0.4,13.6c0.9,5,2.5,9.8,4.7,14.3C108.5,137,112.4,134.3,117.2,132.6z"/>
</g>
<g>
	<g>
		<path style="fill:#0088C5;" d="M132.5,149.4c-0.1,0-0.1-0.1-0.2-0.1c-1.8-1.2-3.4-2.4-4.9-3.7c-2.1-1.8-4-3.8-5.7-6
			c-0.9-1.1-1.7-2.3-2.5-3.6c-0.7-1.1-1.4-2.3-1.9-3.4c-4.8,1.8-8.6,4.4-11.3,6.7c1.1,2.2,2.3,4.3,3.6,6.3c3.7,5.8,8.4,12.2,14.3,16
			c2.9,1.9,6.8,2.2,10,0.4c0.7-0.4,1.3-0.8,1.8-1.2c1.8-1.6,3.1-4,2.4-6.3c-0.1-0.5-0.3-0.9-0.6-1.2
			C136.3,151.5,134.2,150.5,132.5,149.4z"/>
	</g>
	<g>
		<path d="M105.1,103.5c3.8,0,5.6,8,6.2,10.5c1.6,6.6,3,12.7,6,18.5c0.6,1.2,1.2,2.3,1.9,3.4c0.8,1.3,1.6,2.4,2.5,3.6
			c1.7,2.2,3.6,4.2,5.7,6c1.5,1.3,3.1,2.5,4.9,3.7c0.1,0,0.1,0.1,0.2,0.1c1.7,1.1,3.8,2.1,4.9,3.8c0.2,0.4,0.4,0.8,0.6,1.2
			c0.6,2.3-0.6,4.7-2.4,6.3c-0.5,0.4-1.1,0.9-1.8,1.2c-1.4,0.8-3,1.2-4.6,1.2c-1.9,0-3.8-0.6-5.4-1.6c-5.9-3.8-10.6-10.2-14.3-16
			c-1.3-2-2.5-4.1-3.6-6.3c-2.2-4.5-3.9-9.3-4.7-14.3c-0.8-4.5-1-9-0.4-13.6c0.2-2.1,0.3-5.6,2.2-7
			C103.7,103.8,104.4,103.5,105.1,103.5 M105.1,100c-1.5,0-2.9,0.5-4.3,1.5c-2.9,2.1-3.3,6.1-3.6,8.6l-0.1,0.8
			c-0.6,4.9-0.4,9.8,0.5,14.6c0.9,5.1,2.6,10.2,5.1,15.2c1.1,2.3,2.4,4.6,3.8,6.7c3.7,5.7,8.7,12.8,15.4,17.1
			c2.2,1.4,4.7,2.2,7.3,2.2c2.2,0,4.4-0.6,6.3-1.6c0.9-0.5,1.7-1.1,2.4-1.7c3.1-2.7,4.5-6.5,3.5-9.9c-0.2-0.7-0.5-1.5-1-2.2
			c-1.3-2.1-3.3-3.2-4.9-4.2c-0.4-0.2-0.8-0.5-1.1-0.7l-0.2-0.1c-1.6-1.1-3.1-2.2-4.6-3.4c-1.9-1.7-3.6-3.4-5.2-5.5
			c-0.8-1-1.5-2.1-2.3-3.3c-0.6-0.9-1.1-1.9-1.8-3.1c-2.6-5.1-4-10.7-5.4-16.7l-0.3-1.1l-0.1-0.3C113.7,109.1,111.5,100,105.1,100
			L105.1,100z"/>
	</g>
</g>
<g>
	<g>
		<path style="fill:#FFFFFF;" d="M74,29.5c-1.2,0-2.2-0.6-2.7-1.7c-2.1-4.5-0.6-11.3,2-15.1c1.5-2.2,3.7-3.8,6.5-4.8
			c1.8-0.7,3.6-1,5.2-1c4.8,0,8.5,2.7,12.8,5.9l0.9,0.7c1.9,1.4,3.2,3.5,3.4,5.8c0.3,2.3-0.4,4.6-1.9,6.4C98.5,27.8,95.8,29,93,29
			l0,0c-2,0-3.9-0.6-5.5-1.7c-0.7-0.5-1.4-1-2-1.5c-1.4-1.1-2.8-2.2-3.6-2.2c-0.1,0-0.3,0-0.7,0.5c-0.4,0.5-0.6,1.1-0.9,1.7
			c-0.4,1.1-1,2.8-3.3,3.2c-0.4,0.1-0.8,0.2-1.2,0.3C75.3,29.3,74.7,29.5,74,29.5z"/>
	</g>
	<g>
		<path d="M85,8.6c4.5,0,8,2.8,12.7,6.2c3.2,2.3,3.7,6.6,1.2,9.6c-1.5,1.8-3.6,2.7-5.8,2.7c-1.5,0-3.1-0.5-4.4-1.4
			c-2.8-2-4.8-4-6.6-4c-0.7,0-1.4,0.3-2,1.1c-1.6,1.9-1,3.9-3.1,4.3c-1.1,0.2-2.1,0.6-2.9,0.6c-0.5,0-0.9-0.2-1.1-0.7
			c-1.8-3.8-0.5-10,1.8-13.3c1.3-2,3.4-3.3,5.7-4.1C82.1,8.9,83.6,8.6,85,8.6 M85,5.1c-1.9,0-3.8,0.4-5.8,1.1
			c-3.2,1.1-5.7,3-7.4,5.5c-2.9,4.3-4.5,11.8-2.1,16.9c0.8,1.7,2.4,2.7,4.3,2.7c0.9,0,1.7-0.2,2.5-0.4c0.3-0.1,0.7-0.2,1-0.2
			c3.3-0.6,4.3-3.1,4.7-4.3c0.1-0.3,0.2-0.5,0.3-0.7c0.6,0.4,1.4,1,2.1,1.5c0.6,0.5,1.3,1,2.1,1.5c1.9,1.4,4.1,2.1,6.5,2.1
			c3.4,0,6.5-1.5,8.6-4c1.8-2.2,2.6-5,2.3-7.7c-0.4-2.8-1.8-5.3-4.2-7L99,11.4C94.3,8,90.4,5.1,85,5.1L85,5.1z"/>
	</g>
</g>
<g>
	<path style="fill:#683100;" d="M86.9,21.4c0.5-0.2,1.1-0.2,1.7-0.1c-0.7-0.3-1.3-0.8-1.6-1.4c-0.6-1.4,0.1-3,1.5-3.6
		c0.7-0.3,1.4-0.3,2.1-0.1c-0.6-0.3-1.1-0.7-1.4-1.3c-0.6-1.4,0.5-3,2-3.6c0.1-0.1,0.8-0.1,0.9-0.1c3.5,1.6,5,3.3,5.6,3.7
		c3.2,2.3,3.7,6.6,1.2,9.6s-7.1,3.6-10.2,1.3c-0.9-0.7-2.8-2-3.3-2.4C84.5,22.7,85.9,21.8,86.9,21.4"/>
</g>
<g>
	<g>
		<g>
			<path style="fill:#FFFFFF;" d="M26.2,40.1c-2.3,0-4.6-0.8-6.4-2.3c-4.4-3.5-5.1-10-1.6-14.4c5.2-6.6,10.2-12.1,18.5-12.1
				c0.8,0,1.6,0.1,2.5,0.2c3.5,0.4,6.3,1.7,8.6,3.9c4.8,4.7,6.7,9.3,5.8,14.3c-0.5,2.9-4.5,4.8-7,4.9h-0.4c-2.3,0-3.2-1.3-4-2.3
				c-0.4-0.5-0.8-1.1-1.5-1.6c-0.4-0.3-0.7-0.5-0.9-0.5c-0.8,0-2.3,2-3.6,3.7c-0.6,0.7-1.2,1.6-1.8,2.4
				C32.2,38.7,29.3,40.1,26.2,40.1z"/>
		</g>
		<g>
			<path d="M36.7,13c0.7,0,1.5,0,2.2,0.1c2.8,0.4,5.5,1.4,7.6,3.4c3.6,3.4,6.3,7.6,5.3,12.7c-0.3,1.8-3.2,3.3-5.4,3.5
				c-0.1,0-0.2,0-0.3,0c-2.3,0-2.2-1.8-4.4-3.6c-0.7-0.6-1.4-0.8-2-0.8c-2.2,0-4,3.2-6.8,6.7c-1.7,2.1-4.1,3.2-6.6,3.2
				c-1.9,0-3.7-0.6-5.3-1.9c-3.6-2.9-4.3-8.3-1.4-12C24.7,18,29.3,13,36.7,13 M36.7,9.5L36.7,9.5c-9.1,0-14.6,6.1-19.9,12.8
				c-4.1,5.2-3.2,12.7,1.9,16.9c2.1,1.7,4.8,2.7,7.5,2.7c3.7,0,7.1-1.6,9.4-4.5c0.7-0.8,1.3-1.6,1.9-2.4c0.7-0.9,1.6-2.2,2.2-2.8
				c0.4,0.4,0.7,0.7,1,1.2c0.9,1.1,2.3,3,5.4,3c0.2,0,0.3,0,0.5,0c3.1-0.2,7.9-2.3,8.6-6.4c1-5.5-1.1-10.9-6.3-15.9
				c-2.5-2.4-5.7-3.9-9.6-4.4C38.4,9.6,37.5,9.5,36.7,9.5L36.7,9.5z"/>
		</g>
	</g>
	<g>
		<path style="fill:#683100;" d="M33.6,29.4c-0.7-0.1-1.3,0-1.9,0.3c0.7-0.5,1.2-1.3,1.4-2.2c0.3-1.9-0.9-3.6-2.8-3.9
			c-0.9-0.1-1.7,0.1-2.4,0.5c0.6-0.5,1-1.2,1.2-2c0.3-1.9-1.4-3.5-3.3-3.8c-0.2,0-0.9,0.1-1.1,0.1c-3.5,2.9-4.7,5.4-5.2,6.1
			c-2.9,3.7-2.3,9,1.4,12c3.6,2.9,9,2.4,11.9-1.3c0.9-1.1,2.5-3.2,3-3.9C36.6,30.3,34.8,29.6,33.6,29.4"/>
	</g>
</g>
<g>
	
		<path style="fill-rule:evenodd;clip-rule:evenodd;fill:#FFFFFF;stroke:#231815;stroke-linecap:round;stroke-linejoin:round;stroke-miterlimit:10;" d="
		M65.9,113.8"/>
</g>
<g>
	<g>
		<path d="M69.2,25.2c11.1,0,22.5,4.5,31.7,10.7c7.8,5.3,13.1,14.8,15.9,23.7c0.2,0.5,0.3,1.1,0.4,1.6c0.3,0.9,0.6,1.8,0.9,2.7
			c3.1,10.8,1.3,20.2-1.7,30.9c-0.6,2.3-5.3,13.7-5.4,14.2c-1.3,6.2,1.9,13.9,2.8,20c1.7,11.4,2,23.2-2.8,34
			c-6.5,14.7-21.6,19.9-36.7,20.9c-1.5,0.1-3,0.1-4.5,0.1c-0.3,0-0.6,0-1,0c-0.1,0-0.1,0-0.2,0l-3.7-0.1c-1.8,0-3.7-0.1-5.5-0.3
			c-12.4-1.2-26-6-33.7-16.3c-5.6-7.4-7.7-19.8-7.1-28.9c0.5-7.2,2.7-14.1,4-21.1c0.5-2.7,1.6-5.4,1.3-8.2c0-0.6-0.1-1.2-0.2-1.7
			c-0.4-1.3-3.8-10.7-4.7-14.4c-2.5-8.2-3.2-16.9-1.9-25.6c1.3-9.2,5.1-19.4,12-25.9c8.8-8.3,20.7-15,32.8-15.9c0,0,0.1,0,0.2,0
			l3.9-0.3C67.1,25.3,68.2,25.2,69.2,25.2 M69.2,21.7c-1.2,0-2.3,0-3.5,0.1l-3.8,0.3h-0.3C50,23.1,37.2,29.2,26.8,39
			c-6.6,6.2-11.4,16.4-13,28c-1.3,9.2-0.7,18.3,2,27.1c0.7,3,2.9,9.4,4.6,14.3c0.1,0.4,0.1,0.8,0.1,1.2c0.1,1.4-0.3,3-0.7,4.7
			c-0.2,0.9-0.4,1.7-0.6,2.6c-0.4,2.2-1,4.6-1.5,6.8c-1.1,4.7-2.2,9.7-2.6,14.7c-0.6,9.6,1.5,22.9,7.8,31.3
			c7.3,9.7,20.5,16.2,36.2,17.7c1.8,0.2,3.8,0.3,5.8,0.3l3.7,0.1h0.2h1c1.6,0,3.1-0.1,4.7-0.2c19.9-1.3,33.6-9.3,39.7-23
			c5.5-12.5,4.5-25.8,3.1-36c-0.3-2.1-0.9-4.4-1.4-6.6c-1.1-4.2-2.1-8.6-1.4-12.1c0.2-0.6,1-2.7,1.8-4.5c1.9-4.7,3.2-8.2,3.6-9.6
			c2.9-10.4,5.2-20.8,1.7-32.8c-0.3-0.9-0.6-1.8-0.9-2.8l-0.1-0.5c-0.1-0.4-0.2-0.7-0.3-1.1c-3.5-11.2-9.8-20.5-17.3-25.6
			C92.1,25.7,80.2,21.7,69.2,21.7L69.2,21.7z"/>
	</g>
	<g>
		<path style="fill:#009FF9;" d="M116.4,94.8c3-10.7,4.9-20.1,1.7-30.9c-0.3-0.9-0.6-1.8-0.9-2.7c-0.2-0.5-0.3-1.1-0.4-1.6
			c-2.8-8.9-8.1-18.4-15.9-23.7c-10-6.8-22.8-11.5-34.9-10.6l-3.9,0.3c-0.1,0-0.2,0-0.2,0c-12,0.9-23.9,7.6-32.8,15.9
			c-6.9,6.4-10.6,16.7-12,25.9C15.8,76.1,16.5,84.8,19,93c0.8,3.6,4.2,13.1,4.7,14.4c0.1,0.6,0.2,1.2,0.2,1.7
			c0.2,2.8-0.8,5.5-1.3,8.2c-1.3,7-3.5,13.9-4,21.1c-0.6,9.2,1.5,21.5,7.1,28.9c7.7,10.3,21.4,15.1,33.7,16.3
			c1.8,0.2,3.7,0.3,5.5,0.3l3.7,0.1c0.1,0,0.1,0,0.2,0c1.8,0,3.6,0,5.4-0.1c15-1,30.2-6.2,36.7-20.9c4.8-10.8,4.4-22.6,2.8-34
			c-0.9-6.1-4.1-13.8-2.8-20C111,108.5,115.7,97.1,116.4,94.8z"/>
	</g>
</g>
<g>
	<path style="fill:#009FF8;" d="M66,25.4c0,0-0.1,0-0.2,0H66z"/>
</g>
<g>
	<path style="fill-rule:evenodd;clip-rule:evenodd;fill:#FFBEB8;" d="M127.4,74.1c-0.5-2.5-3.1-10.8-7.2-8c-5.5,3.8-3.4,14-0.9,19.1
		c1,2,2.8,4.4,5.5,4c1.5-0.2,2.2-3,2.4-4C128,81.6,128.2,77.8,127.4,74.1z"/>
</g>
<g>
	<g>
		<path style="fill:#FFFFFF;" d="M23,142.8c2.6-6,6.4-11,10.4-16.4c1.8-2.4,8.4-11,2.1-12.6c-2.3-0.6-5,1.6-6.8,2.8
			c-3.9,2.5-7.3,5.6-10.2,9c-3.3,3.9-5.9,8.2-7.9,12.8C14.1,139,18.6,140.3,23,142.8z"/>
	</g>
	<g>
		<path style="fill:#0088C5;" d="M19.9,165.4c0-0.1,0-0.2,0-0.2c-0.3-2.2-0.4-4.2-0.3-6.1c0-2.8,0.3-5.5,1-8.3
			c0.3-1.4,0.7-2.8,1.1-4.2c0.4-1.3,0.9-2.5,1.4-3.7c-4.4-2.5-8.9-3.8-12.4-4.5c-1,2.2-1.9,4.5-2.6,6.8c-2.1,6.6-4,14.3-3.1,21.3
			c0.4,3.4,2.6,6.6,6.1,7.9c0.7,0.3,1.4,0.5,2.1,0.6c2.4,0.4,5-0.2,6.4-2.1c0.3-0.4,0.4-0.8,0.6-1.2
			C20.7,169.6,20.1,167.4,19.9,165.4z"/>
	</g>
	<g>
		<path d="M34.8,113.7c0.3,0,0.5,0,0.8,0.1c6.3,1.6-0.3,10.2-2.1,12.6c-4,5.4-7.9,10.4-10.4,16.4c-0.5,1.2-1,2.4-1.4,3.7
			c-0.5,1.4-0.8,2.8-1.1,4.2c-0.6,2.8-0.9,5.5-1,8.3c0,2,0.1,4,0.3,6.1c0,0.1,0,0.2,0,0.2c0.2,2,0.9,4.3,0.2,6.2
			c-0.1,0.4-0.3,0.8-0.6,1.2c-1.1,1.6-3,2.3-5,2.3c-0.5,0-1,0-1.4-0.1c-0.7-0.1-1.4-0.3-2.1-0.6c-3.5-1.3-5.7-4.5-6.1-7.9
			C4,159.4,6,151.7,8,145.1c0.7-2.3,1.6-4.6,2.6-6.8c2-4.6,4.7-8.9,7.9-12.8c2.9-3.5,6.3-6.5,10.2-9
			C30.4,115.6,32.7,113.7,34.8,113.7 M34.8,110.2c-2.9,0-5.4,1.7-7.3,3l-0.7,0.4c-4.1,2.7-7.8,5.9-11,9.7c-3.3,3.9-6.2,8.5-8.5,13.6
			c-1.1,2.4-2,4.8-2.7,7.2c-2,6.4-4.2,14.8-3.3,22.8c0.6,4.9,3.8,9.1,8.3,10.8c0.9,0.4,1.9,0.6,2.8,0.8c0.7,0.1,1.3,0.2,2,0.2
			c3.3,0,6.2-1.4,7.9-3.8c0.4-0.6,0.8-1.3,1.1-2.2c0.8-2.3,0.4-4.6,0.1-6.4c-0.1-0.4-0.1-0.9-0.2-1.3v-0.3c-0.2-1.9-0.3-3.8-0.3-5.7
			c0-2.5,0.3-5,0.9-7.5c0.3-1.3,0.6-2.5,1.1-3.9c0.3-1,0.7-2.1,1.3-3.4c2.3-5.3,5.7-9.9,9.4-14.8l0.7-0.9l0.2-0.2
			c3.3-4.4,6.4-9.5,4.9-13.7c-0.4-1.2-1.6-3.4-4.9-4.2C35.9,110.3,35.4,110.2,34.8,110.2L34.8,110.2z"/>
	</g>
</g>
<g>
	<g>
		<path style="fill-rule:evenodd;clip-rule:evenodd;fill:#FFFFFF;" d="M71.8,32.3c42.5-2.9,46.1,29,46.3,30.5
			c0,0,10.3,2.7,12.1,15.4c3.2,22.9-18.7,33-38.7,34.5c-39.5,2.9-55.2-10.8-57.4-33.3C33.3,70.7,32.8,35,71.8,32.3z"/>
		<path d="M81.3,114.9c-30.5,0-46.6-11.6-48.9-35.3C31.9,74.5,31.1,56.9,42,44c6.8-8,16.8-12.5,29.7-13.4l0.1,1.8l-0.1-1.8
			c40.4-2.7,47,24.8,48,30.9c3,1.2,10.7,5.2,12.3,16.5c1.2,8.2-0.7,15.4-5.5,21.4c-6.8,8.5-19.5,14-34.8,15.1
			C88,114.8,84.6,114.9,81.3,114.9z M71.9,34.1C60,34.9,50.8,39,44.7,46.3c-10.3,12.1-9.1,29.6-8.8,33c2.4,24,20.5,34.3,55.5,31.8
			c14.1-1,26.2-6.2,32.3-13.8c4.2-5.2,5.8-11.4,4.7-18.7c-1.6-11.4-10.4-13.9-10.8-14c-0.7-0.2-1.2-0.8-1.3-1.6
			C116.2,61.7,113,31.3,71.9,34.1L71.9,34.1z"/>
	</g>
	<g>
		<path style="fill-rule:evenodd;clip-rule:evenodd;fill:#FFBEB8;" d="M87.5,82.5c0.2,7.2-5.2,13.2-12.1,13.4
			c-6.9,0.2-12.5-5.6-12.7-12.8c-0.2-7.2,5.2-13.2,12.1-13.4C81.6,69.6,87.3,75.3,87.5,82.5"/>
	</g>
	<g>
		<g>
			<path style="fill-rule:evenodd;clip-rule:evenodd;" d="M108.8,75.9c0,0.9-1,1.7-2.2,1.8c-1.2,0-2.3-0.7-2.3-1.6s1-1.7,2.2-1.8
				C107.8,74.3,108.8,75,108.8,75.9"/>
		</g>
		<g>
			<path style="fill-rule:evenodd;clip-rule:evenodd;" d="M111.9,73.8L111.9,73.8c-1.3,0-2.4-1.2-2.4-2.8v-0.4c0-1.6,1-2.9,2.3-2.9
				s2.4,1.2,2.4,2.8v0.4C114.2,72.5,113.2,73.8,111.9,73.8"/>
		</g>
		<g>
			<path style="fill-rule:evenodd;clip-rule:evenodd;" d="M91.9,74.3L91.9,74.3c-1.5,0-2.8-1.2-2.8-2.8v-0.4c0-1.6,1.2-2.9,2.7-2.9
				s2.8,1.2,2.8,2.8v0.4C94.7,73,93.5,74.3,91.9,74.3"/>
		</g>
		<g>
			<g>
				<path style="fill:#231815;" d="M98.2,87.4c-2.3,0-4.7-0.6-6.6-1.9c-1.8-1.2-2.8-2.4-2.9-3.5c-0.1-0.7,0.1-1.4,0.6-1.9
					c0.5-0.6,1.5-0.6,2.1-0.1c0.5,0.4,0.6,1.1,0.3,1.7c0.2,0.3,0.7,0.7,1.5,1.3c3.6,2.4,9.4,1.6,11.5-1.4c0.5-0.7,1.4-0.8,2-0.4
					c0.7,0.5,0.8,1.4,0.4,2C105.3,85.9,101.8,87.4,98.2,87.4z"/>
			</g>
			<g>
				<path style="fill:#231815;" d="M110.8,86.2c-0.1,0-0.2,0-0.2,0c-2.3-0.1-4.5-1.2-5.8-3c-0.5-0.7-0.3-1.6,0.3-2.1
					c0.7-0.5,1.6-0.3,2.1,0.3c0.8,1,2.1,1.7,3.5,1.7c0.7,0,2.1-0.1,3.2-1.3c0.5-0.6,0.4-0.8,0.3-0.9c-0.4-0.7-0.2-1.6,0.5-2
					s1.6-0.2,2,0.5c0.5,0.8,1,2.4-0.6,4.3C114.7,85.4,112.8,86.2,110.8,86.2z"/>
			</g>
		</g>
	</g>
	<g>
		<path style="fill-rule:evenodd;clip-rule:evenodd;fill:#FFBEB8;" d="M127.8,76.8c-0.6-2.5-3.5-10.7-7.5-7.7
			c-5.4,4-2.9,14.1-0.2,19.1c1.1,2,3,4.3,5.6,3.8c1.5-0.3,2.1-3.1,2.3-4.1C128.7,84.3,128.7,80.4,127.8,76.8z"/>
	</g>
</g>
</svg>
