<?xml version="1.0" encoding="utf-8"?>
<!-- Generator: Adobe Illustrator 25.0.1, SVG Export Plug-In . SVG Version: 6.00 Build 0)  -->
<svg version="1.1" id="Layer_3" xmlns="http://www.w3.org/2000/svg" xmlns:xlink="http://www.w3.org/1999/xlink" x="0px" y="0px"
	 viewBox="0 0 144 246" style="enable-background:new 0 0 144 246;" xml:space="preserve">
<g>
	<path style="fill-rule:evenodd;clip-rule:evenodd;fill:#FFBEB8;" d="M127.8,77c-0.6-2.5-3.5-10.7-7.5-7.7c-5.4,4-2.9,14.1-0.2,19.1
		c1.1,2,3,4.3,5.6,3.8c1.5-0.3,2.1-3.1,2.3-4.1C128.7,84.4,128.8,80.6,127.8,77z"/>
</g>
<g>
	<g>
		<path style="fill-rule:evenodd;clip-rule:evenodd;fill:#009FF8;" d="M45.9,188.7l-0.8,2.2c-1.6,4.5-6,11.4-8.9,15.5l-6.5,6.7
			c-1.7,1.8-1.7,4.7,0.1,6.4l3,2.9l9.5,9.1c2.8,2.7,5.8,6.4,10.2,6c3-0.3,5.7-3.9,6.5-6.6c1.5-4.9,0.7-10.4-2.2-14.6
			c0,0-0.1-0.2-0.2-0.2c-2.3-3.2-4.5-4.7-6.1-5.3c-1.1-0.4-1.5-1.7-0.9-2.7c2.7-4.3,4.8-8.6,6.4-12.9l0.7-2L45.9,188.7z"/>
	</g>
	<g>
		<path style="fill:#FFFFFF;" d="M55.8,156.5c-0.8-2-2.4-3.2-4.4-3.5c-2.2-0.3-4.5,0.7-5.9,2.6c-1.3,1.7-1.6,3.9-0.7,6
			c3.9,9.2,4,19,0.2,29.3l-0.7,2l11.1,4.6l0.8-2.2C61.2,181.8,61,168.8,55.8,156.5z"/>
	</g>
	<g>
		<path d="M50.7,152.9c0.2,0,0.5,0,0.7,0c2,0.2,3.6,1.5,4.4,3.5c5,11.7,5.3,24.1,1,36.8l0.1,0l-0.7,2c0,0,0,0,0,0l-0.8,2.2l-0.1,0
			c-1.5,3.6-3.4,7.3-5.6,10.9c-0.6,0.9-0.2,2.1,0.9,2.5c1.6,0.6,3.9,2,6.3,5.3c0,0,0.2,0.2,0.2,0.2c2.9,4.3,3.7,9.7,2.2,14.6
			c-0.8,2.7-3.6,6.3-6.5,6.6c-0.2,0-0.4,0-0.6,0c-4,0-6.9-3.4-9.6-6l-9.5-9.1l-3.1-3c-1.8-1.7-1.8-4.5-0.1-6.3l6.5-6.8c0,0,0,0,0,0
			c2.8-4.2,7.2-11,8.8-15.5l0,0c3.7-10.3,3.6-20.2-0.2-29.3c-0.9-2.1-0.6-4.2,0.7-6C46.8,153.9,48.7,152.9,50.7,152.9 M50.7,149.4
			c-3.1,0-6.1,1.5-8,4c-2.1,2.7-2.5,6.3-1.1,9.5c3.5,8.3,3.6,17.3,0.2,26.8c-1.1,3.1-4.1,8.2-8.3,14.5l-6.3,6.6
			c-1.5,1.5-2.3,3.6-2.2,5.7c0,2.1,0.9,4.1,2.5,5.6l3.1,3l9.5,9.1c0.3,0.3,0.7,0.6,1,1c2.7,2.7,6.1,6,11,6c0.3,0,0.6,0,1,0
			c5.1-0.5,8.6-5.8,9.6-9.1c1.8-5.9,0.8-12.5-2.6-17.6l-0.1-0.2c-2.1-3-4.2-4.7-6-5.8c1.7-3,3.3-6,4.5-9c0.2-0.2,0.3-0.5,0.4-0.7
			l0.8-2.2c0,0,0,0,0,0l0.7-2c0.1-0.3,0.2-0.6,0.2-0.9c4.3-13.3,3.8-26.3-1.4-38.5c-1.3-3.1-4-5.2-7.3-5.6
			C51.4,149.4,51.1,149.4,50.7,149.4L50.7,149.4z"/>
	</g>
</g>
<g>
	<path style="fill:#FFFFFF;" d="M90.6,196c-3-10.9-6.4-22.4-12.2-33.2l0,0c-1-1.9-2.8-3-4.8-3.1c-2.2-0.1-4.4,1.1-5.6,3
		c-1.1,1.8-1.2,4-0.1,5.9c5.3,10,8.5,20.9,11.1,30.3l0.6,2l2.1-0.5c2.3-0.5,5-1.2,7.4-1.8l2.2-0.5L90.6,196z"/>
</g>
<g>
	<path d="M73.4,159.7c0.1,0,0.1,0,0.2,0c2.1,0.1,3.8,1.2,4.8,3.1l0,0c5.4,10.1,8.7,20.9,11.6,31.2l0,0l0.5,1.7
		c0,0.1,0.1,0.3,0.1,0.4l0.6,2.2l0,0l0.2,0.8c0.8,3.1,1.7,6.2,2.6,9.3c0.2,0.8,1,1.3,1.8,1.3c0.3,0,0.7-0.1,1-0.3
		c1.4-0.8,3.4-1.6,6.3-1.9c0,0,0.3,0,0.3,0c0.5,0,0.9-0.1,1.4-0.1c4.7,0,9.2,1.9,12.5,5.3c1.9,2,3.8,6.2,2.5,8.9
		c-1.8,4-6.5,4.9-10.2,6L97,231.5l-2.6,0.8c-0.6,0.2-1.2,0.3-1.7,0.3c-2.6,0-5-1.7-5.8-4.3l-1.7-5.7l0,0L85,222l-0.4-1.4l0,0
		l-1.4-5.4c-1.8-6.7-3.6-13.7-4.3-16.1l0-0.1c-2.6-9.5-5.8-20.4-11.1-30.3c-1-2-1-4.1,0.1-5.9C69.1,160.9,71.2,159.7,73.4,159.7
		 M73.4,156.2L73.4,156.2c-3.4,0-6.6,1.8-8.4,4.7c-1.8,2.9-1.9,6.4-0.3,9.5c5.1,9.6,8.3,20.3,10.8,29.6c0.7,2.6,2.6,9.8,4.3,16.2
		l1.3,4.9c0,0.2,0.1,0.5,0.1,0.7l0.4,1.4l0.1,0.4c0,0.2,0.1,0.3,0.2,0.5l1.6,5.3c1.2,4.1,4.9,6.8,9.1,6.8c0.9,0,1.9-0.1,2.8-0.4
		l2.6-0.8l12.6-3.8c0.4-0.1,0.9-0.3,1.3-0.4c3.7-1.1,8.8-2.5,11.1-7.5c2.1-4.7-0.8-10.4-3.2-12.8c-3.9-4.1-9.4-6.4-15-6.4
		c-0.5,0-1.1,0-1.6,0.1l-0.3,0c-2.3,0.2-4.3,0.7-6,1.5c-0.7-2.5-1.4-4.9-2.1-7.3l-0.2-0.8l-0.6-2.2l-0.1-0.2l0-0.2l-0.5-1.7
		c0-0.1,0-0.1-0.1-0.2c-2.7-9.7-6.1-20.9-11.8-31.7c-1.6-3-4.5-4.9-7.8-5L73.4,156.2L73.4,156.2L73.4,156.2z"/>
</g>
<g>
	<path style="fill-rule:evenodd;clip-rule:evenodd;fill:#0088C2;" d="M117.3,212.7c-3.5-3.7-8.7-5.7-13.8-5.2c0,0-0.2,0-0.3,0
		c-2.9,0.3-4.9,1-6.3,1.8c-1.1,0.7-2.6,0-3-1.2c-0.9-3-1.7-6.1-2.6-9.1c0,0-1.4-5.1-1.4-5.1l-2.1,0.5c-2.4,0.6-5.1,1.3-7.4,1.8
		l-2.2,0.5l0.6,2.2c0.7,2.4,2.5,9.5,4.3,16.2l1.4,5.4l0,0L85,222l0.1,0.5l0,0l1.7,5.5c1,3.3,4.5,5.1,7.7,4.1l2.4-0.7l12.6-3.8
		c3.7-1.1,8.4-2,10.2-6C121.1,218.9,119.2,214.7,117.3,212.7z"/>
</g>
<g>
	<g>
		<path style="fill:#FFFFFF;" d="M86.5,135.9c-0.6-6.5,0.3-12.7,1.2-19.4c0.4-3,2-13.7-4.2-12c-2.3,0.6-3.6,3.8-4.6,5.7
			c-2.2,4.1-3.7,8.4-4.6,12.8c-1,5-1.2,10-0.8,15C76.8,136.9,81.4,135.8,86.5,135.9z"/>
	</g>
</g>
<g>
	<g>
		<path style="fill:#0088C5;" d="M94.6,157.2c0-0.1-0.1-0.1-0.1-0.2c-1.3-1.8-2.3-3.5-3.3-5.2c-1.3-2.5-2.3-5-3.1-7.7
			c-0.4-1.3-0.7-2.7-1-4.2c-0.3-1.3-0.4-2.6-0.6-3.9c-5.1-0.1-9.7,0.9-13,2.1c0.2,2.4,0.5,4.8,1,7.2c1.4,6.8,3.4,14.4,7.5,20.1
			c2,2.8,5.5,4.5,9.2,4c0.8-0.1,1.5-0.3,2.1-0.5c2.3-0.8,4.3-2.6,4.6-5c0.1-0.5,0-0.9-0.1-1.4C97.4,160.5,95.8,158.8,94.6,157.2z"/>
	</g>
</g>
<g>
	<path d="M84.7,104.3c4.8,0,3.4,9.5,3,12.2c-0.9,6.7-1.8,12.9-1.2,19.4c0.1,1.3,0.3,2.6,0.6,3.9c0.3,1.5,0.6,2.9,1,4.2
		c0.8,2.7,1.8,5.2,3.1,7.7c0.9,1.7,2,3.4,3.3,5.2c0,0.1,0.1,0.1,0.1,0.2c1.2,1.7,2.8,3.3,3.2,5.4c0.1,0.4,0.1,0.9,0.1,1.4
		c-0.3,2.4-2.3,4.1-4.6,5c-0.6,0.2-1.4,0.4-2.1,0.5c-0.4,0.1-0.8,0.1-1.3,0.1c-3.2,0-6.1-1.6-7.9-4.1c-4.1-5.7-6.2-13.4-7.5-20.1
		c-0.5-2.4-0.8-4.8-1-7.2c-0.4-5-0.2-10,0.8-15c0.9-4.4,2.4-8.8,4.6-12.8c1-1.9,2.3-5.1,4.6-5.7C83.9,104.3,84.3,104.3,84.7,104.3
		 M84.7,100.7c-0.7,0-1.4,0.1-2.1,0.3c-3.5,0.9-5.3,4.4-6.5,6.7l-0.4,0.7c-2.3,4.3-3.9,9-4.9,13.8c-1,5.1-1.3,10.5-0.8,16
		c0.2,2.6,0.6,5.1,1.1,7.6c1.3,6.6,3.5,15,8.1,21.5c2.5,3.5,6.5,5.6,10.8,5.6c0.6,0,1.2,0,1.7-0.1c1-0.1,2-0.4,2.8-0.7
		c3.9-1.4,6.5-4.4,6.9-7.9c0.1-0.8,0-1.5-0.1-2.4c-0.5-2.4-1.9-4.2-3-5.7c-0.3-0.4-0.5-0.7-0.8-1.1l-0.2-0.2c-1.1-1.6-2.1-3.2-3-4.8
		c-1.2-2.2-2.1-4.5-2.9-7c-0.4-1.2-0.7-2.5-1-3.9c-0.2-1-0.4-2.2-0.5-3.6c-0.6-5.7,0.2-11.5,1-17.5l0.1-1.1l0-0.3
		c0.7-5.1,1-10.6-1.7-13.8C88.3,101.5,86.5,100.7,84.7,100.7L84.7,100.7z"/>
</g>
<g>
	<g>
		<path style="fill:#FFFFFF;" d="M74.1,29.6c-1.2,0-2.2-0.6-2.7-1.7c-2.1-4.5-0.6-11.3,2-15.1C74.8,10.6,77,9,79.8,8
			c1.8-0.7,3.6-1,5.2-1c4.8,0,8.5,2.7,12.8,5.9l0.9,0.7c1.9,1.4,3.2,3.5,3.5,5.8c0.3,2.3-0.4,4.6-1.9,6.4c-1.7,2.1-4.4,3.3-7.2,3.3
			c0,0,0,0,0,0c-2,0-3.9-0.6-5.5-1.7c-0.7-0.5-1.4-1-2-1.5c-1.4-1.1-2.8-2.2-3.6-2.2c-0.1,0-0.3,0-0.7,0.5c-0.4,0.5-0.6,1.1-0.9,1.7
			c-0.4,1.1-1,2.8-3.3,3.2c-0.4,0.1-0.8,0.2-1.2,0.3C75.4,29.5,74.7,29.6,74.1,29.6z"/>
	</g>
	<g>
		<path d="M85.1,8.8c4.5,0,8,2.8,12.7,6.2c3.2,2.3,3.7,6.6,1.2,9.6c-1.5,1.8-3.6,2.7-5.8,2.7c-1.5,0-3.1-0.5-4.4-1.4
			c-2.8-2-4.8-4-6.6-4c-0.7,0-1.4,0.3-2,1.1c-1.6,1.9-1,3.9-3.1,4.3c-1.1,0.2-2.1,0.6-2.9,0.6c-0.5,0-0.9-0.2-1.1-0.7
			c-1.8-3.8-0.5-10,1.8-13.3c1.3-2,3.4-3.3,5.7-4.1C82.1,9.1,83.7,8.8,85.1,8.8 M85.1,5.3c-1.9,0-3.8,0.4-5.8,1.1
			c-3.2,1.1-5.7,3-7.4,5.5c-2.9,4.3-4.5,11.8-2.1,16.9c0.8,1.7,2.4,2.7,4.3,2.7c0.9,0,1.7-0.2,2.5-0.4c0.3-0.1,0.7-0.2,1-0.2
			c3.3-0.6,4.3-3.1,4.7-4.3c0.1-0.3,0.2-0.5,0.3-0.7c0.6,0.4,1.4,1,2.1,1.5c0.6,0.5,1.3,1,2.1,1.5c1.9,1.4,4.1,2.1,6.5,2.1
			c3.4,0,6.5-1.5,8.6-4c1.8-2.2,2.6-5,2.3-7.7c-0.4-2.8-1.8-5.3-4.2-7l-0.9-0.7C94.4,8.1,90.5,5.3,85.1,5.3L85.1,5.3z"/>
	</g>
	<g>
		<path style="fill:#683100;" d="M87,21.6c0.5-0.2,1.1-0.2,1.7-0.1c-0.7-0.3-1.3-0.8-1.6-1.4c-0.6-1.4,0.1-3,1.5-3.6
			c0.7-0.3,1.4-0.3,2.1-0.1c-0.6-0.3-1.1-0.7-1.4-1.3c-0.6-1.4,0.5-3,2-3.6c0.1-0.1,0.8-0.1,0.9-0.1c3.5,1.6,5,3.3,5.6,3.7
			c3.2,2.3,3.7,6.6,1.2,9.6c-2.5,3-7.1,3.6-10.2,1.3c-0.9-0.7-2.8-2-3.3-2.4C84.6,22.9,85.9,22,87,21.6"/>
	</g>
</g>
<g>
	<g>
		<path style="fill:#FFFFFF;" d="M26.3,40.2c-2.3,0-4.6-0.8-6.4-2.3c-4.4-3.5-5.1-10-1.6-14.4c5.2-6.6,10.2-12.1,18.5-12.1
			c0.8,0,1.6,0.1,2.5,0.2c3.4,0.4,6.3,1.7,8.6,3.9c4.8,4.7,6.7,9.3,5.8,14.3c-0.5,2.9-4.5,4.8-7,4.9l-0.4,0c-2.3,0-3.2-1.3-4-2.3
			c-0.4-0.5-0.8-1.1-1.5-1.6c-0.4-0.3-0.7-0.5-0.9-0.5c-0.8,0-2.3,2-3.6,3.7c-0.6,0.7-1.2,1.6-1.8,2.4
			C32.3,38.8,29.4,40.2,26.3,40.2z"/>
	</g>
	<g>
		<path d="M36.7,13.2c0.7,0,1.5,0,2.2,0.1c2.8,0.4,5.5,1.4,7.6,3.4c3.6,3.4,6.3,7.6,5.3,12.7c-0.3,1.8-3.2,3.3-5.4,3.5
			c-0.1,0-0.2,0-0.3,0c-2.3,0-2.2-1.8-4.4-3.6c-0.7-0.6-1.4-0.8-2-0.8c-2.2,0-4,3.2-6.8,6.7c-1.7,2.1-4.1,3.2-6.6,3.2
			c-1.9,0-3.7-0.6-5.3-1.9c-3.6-2.9-4.3-8.3-1.4-12C24.7,18.2,29.3,13.2,36.7,13.2 M36.7,9.7L36.7,9.7c-9.1,0-14.6,6.1-19.9,12.8
			c-4.1,5.2-3.2,12.7,1.9,16.9c2.1,1.7,4.8,2.7,7.5,2.7c3.7,0,7.1-1.6,9.4-4.5c0.7-0.8,1.3-1.6,1.9-2.4c0.7-0.9,1.6-2.2,2.2-2.8
			c0.4,0.4,0.7,0.7,1,1.2c0.9,1.1,2.3,3,5.4,3c0.2,0,0.3,0,0.5,0c3.1-0.2,7.9-2.3,8.6-6.4c1-5.5-1.1-10.9-6.3-15.9
			c-2.5-2.4-5.7-3.9-9.6-4.4C38.5,9.7,37.6,9.7,36.7,9.7L36.7,9.7z"/>
	</g>
	<g>
		<path style="fill:#683100;" d="M33.6,29.6c-0.7-0.1-1.3,0-1.9,0.3c0.7-0.5,1.2-1.3,1.4-2.2c0.3-1.9-0.9-3.6-2.8-3.9
			c-0.9-0.1-1.7,0.1-2.4,0.5c0.6-0.5,1-1.2,1.2-2c0.3-1.9-1.4-3.5-3.3-3.8c-0.2,0-0.9,0.1-1.1,0.1c-3.5,2.9-4.7,5.4-5.2,6.1
			c-2.9,3.7-2.3,9,1.4,12c3.6,2.9,9,2.4,11.9-1.3c0.9-1.1,2.5-3.2,3-3.9C36.6,30.5,34.9,29.8,33.6,29.6"/>
	</g>
</g>
<g>
	
		<path style="fill-rule:evenodd;clip-rule:evenodd;fill:#FFFFFF;stroke:#231815;stroke-linecap:round;stroke-linejoin:round;stroke-miterlimit:10;" d="
		M66,114"/>
</g>
<g>
	<g>
		<path d="M69.3,25.4c11.1,0,22.5,4.5,31.7,10.7c7.8,5.3,13.1,14.8,15.9,23.7c0.2,0.5,0.3,1.1,0.4,1.6c0.3,0.9,0.6,1.8,0.9,2.7
			c3.1,10.8,1.3,20.2-1.7,30.9c-0.6,2.3-5.3,13.7-5.4,14.2c-1.3,6.2,1.9,13.9,2.8,20c1.7,11.4,2,23.2-2.8,34
			c-6.5,14.7-21.6,19.9-36.7,20.9c-1.5,0.1-3,0.1-4.5,0.1c-0.3,0-0.6,0-1,0c-0.1,0-0.1,0-0.2,0l-3.7-0.1c-1.8,0-3.7-0.1-5.5-0.3
			c-12.4-1.2-26-6-33.7-16.3c-5.6-7.4-7.7-19.8-7.1-28.9c0.5-7.2,2.7-14.1,4-21.1c0.5-2.7,1.6-5.4,1.3-8.2c0-0.6-0.1-1.2-0.2-1.7
			c-0.4-1.3-3.8-10.7-4.7-14.4c-2.5-8.2-3.2-16.9-1.9-25.6c1.3-9.2,5.1-19.4,12-25.9c8.8-8.3,20.7-15,32.8-15.9c0,0,0.1,0,0.2,0
			l3.9-0.3C67.1,25.4,68.2,25.4,69.3,25.4 M69.3,21.9c-1.2,0-2.3,0-3.5,0.1l-3.8,0.3l-0.3,0c-11.6,0.9-24.4,7-34.8,16.9
			c-6.6,6.2-11.4,16.4-13,28c-1.3,9.2-0.7,18.3,2,27.1c0.7,3,2.9,9.4,4.6,14.3c0.1,0.4,0.1,0.8,0.1,1.2c0.1,1.4-0.3,3-0.7,4.7
			c-0.2,0.9-0.4,1.7-0.6,2.6c-0.4,2.2-1,4.6-1.5,6.8c-1.1,4.7-2.2,9.7-2.6,14.7c-0.6,9.6,1.5,22.9,7.8,31.3
			c7.3,9.7,20.5,16.2,36.2,17.7c1.8,0.2,3.8,0.3,5.8,0.3l3.7,0.1l0.2,0l1,0c1.6,0,3.1-0.1,4.7-0.2c19.9-1.3,33.6-9.3,39.7-23
			c5.5-12.5,4.5-25.8,3.1-36c-0.3-2.1-0.9-4.4-1.4-6.6c-1.1-4.2-2.1-8.6-1.4-12.1c0.2-0.6,1-2.7,1.8-4.5c1.9-4.7,3.2-8.2,3.6-9.6
			c2.9-10.4,5.2-20.8,1.7-32.8c-0.3-0.9-0.6-1.8-0.9-2.8l-0.1-0.5c-0.1-0.4-0.2-0.7-0.3-1.1c-3.5-11.2-9.8-20.5-17.3-25.6
			C92.1,25.9,80.2,21.9,69.3,21.9L69.3,21.9z"/>
	</g>
	<g>
		<path style="fill:#009FF9;" d="M116.4,95c3-10.7,4.9-20.1,1.7-30.9c-0.3-0.9-0.6-1.8-0.9-2.7c-0.2-0.5-0.3-1.1-0.4-1.6
			c-2.8-8.9-8.1-18.4-15.9-23.7c-10-6.8-22.8-11.5-34.9-10.6l-3.9,0.3c-0.1,0-0.2,0-0.2,0c-12,0.9-23.9,7.6-32.8,15.9
			c-6.9,6.4-10.6,16.7-12,25.9c-1.3,8.7-0.6,17.4,1.9,25.6c0.8,3.6,4.2,13.1,4.7,14.4c0.1,0.6,0.2,1.2,0.2,1.7
			c0.2,2.8-0.8,5.5-1.3,8.2c-1.3,7-3.5,13.9-4,21.1c-0.6,9.2,1.5,21.5,7.1,28.9c7.7,10.3,21.4,15.1,33.7,16.3
			c1.8,0.2,3.7,0.3,5.5,0.3l3.7,0.1c0.1,0,0.1,0,0.2,0c1.8,0,3.6,0,5.4-0.1c15-1,30.2-6.2,36.7-20.9c4.8-10.8,4.4-22.6,2.8-34
			c-0.9-6.1-4.1-13.8-2.8-20C111.1,108.6,115.7,97.3,116.4,95z"/>
	</g>
</g>
<g>
	<path style="fill:#009FF8;" d="M66.1,25.5c0,0-0.1,0-0.2,0L66.1,25.5z"/>
</g>
<g>
	<path style="fill-rule:evenodd;clip-rule:evenodd;fill:#FFBEB8;" d="M127.5,74.3c-0.5-2.5-3.1-10.8-7.2-8c-5.5,3.8-3.4,14-0.9,19.1
		c1,2,2.8,4.4,5.5,4c1.5-0.2,2.2-3,2.4-4C128,81.8,128.2,78,127.5,74.3z"/>
</g>
<g>
	<g>
		<g>
			<path style="fill:#FFFFFF;" d="M50.3,140c-3.8-5.3-6.2-11.1-8.8-17.4c-1.2-2.8-5.2-12.8-9.8-8.2c-1.7,1.7-1.2,5.1-1.1,7.3
				c0.2,4.6,1.1,9.1,2.6,13.4c1.7,4.8,4.1,9.2,6.9,13.3C42.5,145.7,45.9,142.5,50.3,140z"/>
		</g>
	</g>
	<g>
		<g>
			<path style="fill:#0088C5;" d="M68.1,154.2c-0.1,0-0.2-0.1-0.2-0.1c-2-0.9-3.8-1.8-5.4-2.8c-2.4-1.5-4.5-3.1-6.6-5
				c-1-1-2-2-3-3.1c-0.9-1-1.7-2-2.5-3.1c-4.4,2.5-7.8,5.7-10.1,8.4c1.4,2,2.9,3.9,4.5,5.7c4.6,5.1,10.2,10.7,16.7,13.5
				c3.1,1.4,7,1.1,9.9-1.2c0.6-0.5,1.1-1,1.6-1.5c1.6-1.9,2.4-4.4,1.4-6.6c-0.2-0.4-0.5-0.8-0.8-1.1C72.2,155.6,70,155,68.1,154.2z"
				/>
		</g>
	</g>
	<g>
		<path d="M34.2,113.2c3.5,0,6.4,7.2,7.3,9.4c2.6,6.2,5,12.1,8.8,17.4c0.8,1.1,1.6,2.1,2.5,3.1c1,1.1,2,2.2,3,3.1
			c2.1,1.9,4.2,3.6,6.6,5c1.7,1,3.5,2,5.4,2.8c0.1,0,0.2,0.1,0.2,0.1c1.9,0.8,4.1,1.4,5.5,3c0.3,0.3,0.6,0.7,0.8,1.1
			c1,2.2,0.2,4.7-1.4,6.6c-0.4,0.5-1,1-1.6,1.5c-1.7,1.4-3.8,2-5.9,2c-1.4,0-2.8-0.3-4-0.8c-6.5-2.8-12.1-8.4-16.7-13.5
			c-1.6-1.8-3.1-3.7-4.5-5.7c-2.9-4.1-5.3-8.5-6.9-13.3c-1.5-4.3-2.4-8.8-2.6-13.4c-0.1-2.1-0.6-5.6,1.1-7.3
			C32.6,113.6,33.4,113.2,34.2,113.2 M34.2,109.7c-1.2,0-3.1,0.4-4.9,2.2c-2.6,2.6-2.3,6.5-2.2,9.1l0,0.8c0.2,4.9,1.2,9.7,2.8,14.4
			c1.7,4.9,4.2,9.7,7.4,14.2c1.5,2.1,3.1,4.1,4.8,6c4.5,5,10.6,11.2,17.9,14.4c1.7,0.7,3.6,1.1,5.4,1.1c3,0,5.8-1,8.1-2.8
			c0.8-0.6,1.5-1.3,2.1-2c2.6-3.2,3.4-7.1,1.9-10.3c-0.3-0.7-0.7-1.4-1.3-2c-1.6-1.8-3.7-2.7-5.5-3.4c-0.4-0.2-0.8-0.3-1.2-0.5
			l-0.2-0.1c-1.8-0.8-3.4-1.7-5-2.6c-2.2-1.3-4.1-2.8-6-4.6c-0.9-0.9-1.9-1.8-2.8-2.9c-0.7-0.8-1.4-1.7-2.2-2.8
			c-3.4-4.7-5.6-10-8-15.6l-0.4-1l-0.1-0.2C42.3,115.4,39.2,109.7,34.2,109.7L34.2,109.7z"/>
	</g>
</g>
<g>
	<g>
		<path style="fill-rule:evenodd;clip-rule:evenodd;fill:#FFFFFF;" d="M71.9,32.5c42.5-2.9,46.1,29,46.3,30.5
			c0,0,10.3,2.7,12.1,15.4c3.2,22.9-18.7,33-38.7,34.5c-39.5,2.9-55.2-10.8-57.4-33.3C33.3,70.9,32.8,35.1,71.9,32.5z"/>
		<path d="M81.4,115.1c-30.5,0-46.6-11.6-48.9-35.3C31.9,74.7,31.1,57,42,44.2c6.8-8,16.8-12.5,29.7-13.4l0.1,1.8l-0.1-1.8
			c40.4-2.8,47,24.8,48,30.9c3,1.2,10.7,5.2,12.3,16.5c1.2,8.2-0.7,15.4-5.5,21.4c-6.8,8.5-19.5,14-34.8,15.1
			C88.1,115,84.6,115.1,81.4,115.1z M77.1,34.1c-1.6,0-3.4,0.1-5.2,0.2c-12,0.8-21.1,4.9-27.3,12.2c-10.3,12.1-9.1,29.6-8.8,33
			c2.4,24,20.5,34.3,55.5,31.8c14.1-1,26.2-6.2,32.3-13.8c4.2-5.2,5.8-11.4,4.7-18.7c-1.6-11.4-10.4-13.9-10.8-14
			c-0.7-0.2-1.2-0.8-1.3-1.6C116.3,61.9,113.3,34.1,77.1,34.1z"/>
	</g>
	<g>
		<path style="fill-rule:evenodd;clip-rule:evenodd;fill:#FFBEB8;" d="M87.5,82.7c0.2,7.2-5.2,13.2-12.1,13.4
			c-6.9,0.2-12.5-5.6-12.7-12.8c-0.2-7.2,5.2-13.2,12.1-13.4C81.7,69.7,87.4,75.5,87.5,82.7"/>
	</g>
	<g>
		<g>
			<path style="fill-rule:evenodd;clip-rule:evenodd;" d="M112,74L112,74c-1.3,0-2.4-1.2-2.4-2.8l0-0.4c0-1.6,1-2.9,2.3-2.9
				c1.3,0,2.4,1.2,2.4,2.8l0,0.4C114.3,72.7,113.2,74,112,74"/>
		</g>
		<g>
			<path style="fill-rule:evenodd;clip-rule:evenodd;" d="M92,74.5L92,74.5c-1.5,0-2.8-1.2-2.8-2.8l0-0.4c0-1.6,1.2-2.9,2.7-2.9
				c1.5,0,2.8,1.2,2.8,2.8l0,0.4C94.7,73.1,93.5,74.4,92,74.5"/>
		</g>
		<g>
			<path style="fill-rule:evenodd;clip-rule:evenodd;" d="M108.8,76.1c0,0.9-1,1.7-2.2,1.8c-1.2,0-2.3-0.7-2.3-1.6
				c0-0.9,1-1.7,2.2-1.8C107.8,74.4,108.8,75.2,108.8,76.1"/>
		</g>
		<g>
			<g>
				<path style="fill:#231815;" d="M98.3,87.5c-2.3,0-4.7-0.6-6.6-1.9c-1.8-1.2-2.8-2.4-2.9-3.5c-0.1-0.7,0.1-1.4,0.6-1.9
					c0.5-0.6,1.5-0.6,2.1-0.1c0.5,0.4,0.6,1.1,0.3,1.7c0.2,0.3,0.7,0.7,1.5,1.3c3.6,2.4,9.4,1.6,11.5-1.4c0.5-0.7,1.4-0.8,2-0.4
					c0.7,0.5,0.8,1.4,0.4,2C105.4,86.1,101.9,87.5,98.3,87.5z"/>
			</g>
			<g>
				<path style="fill:#231815;" d="M110.8,86.4c-0.1,0-0.2,0-0.2,0c-2.3-0.1-4.5-1.2-5.8-3c-0.5-0.7-0.3-1.6,0.3-2.1
					c0.7-0.5,1.6-0.3,2.1,0.3c0.8,1,2.1,1.7,3.5,1.7c0.8,0,2.1-0.1,3.2-1.3c0.5-0.6,0.4-0.8,0.3-0.9c-0.4-0.7-0.2-1.6,0.5-2
					c0.7-0.4,1.6-0.2,2,0.5c0.5,0.8,1,2.4-0.6,4.3C114.8,85.5,112.9,86.4,110.8,86.4z"/>
			</g>
		</g>
	</g>
	<g>
		<path style="fill-rule:evenodd;clip-rule:evenodd;fill:#FFBEB8;" d="M127.8,77c-0.6-2.5-3.5-10.7-7.5-7.7
			c-5.4,4-2.9,14.1-0.2,19.1c1.1,2,3,4.3,5.6,3.8c1.5-0.3,2.1-3.1,2.3-4.1C128.7,84.4,128.8,80.6,127.8,77z"/>
	</g>
</g>
</svg>
